<svg id="レイヤー_1" data-name="レイヤー 1" xmlns="http://www.w3.org/2000/svg" viewBox="0 0 1677.7 511.4"><title>copy_main</title><path d="M89,138.57c-5.32-9.8-13.66-20.35-25.69-31.79l-.46-.41-.78-.72a23,23,0,0,0-1.9-1.58l-.31-.21,0,0a4.68,4.68,0,0,0,.55,1.11h0c9.48,15.62,14.72,27,17.6,35.85a62.76,62.76,0,0,1,3.36,20.55c0,7.41-1.37,13.31-3.59,18A27.56,27.56,0,0,1,69.12,190a33.1,33.1,0,0,1-19,6.07c-6.73,0-12-1.66-16.13-4.36a26.47,26.47,0,0,1-9-10.44c-4.06-8.06-4.73-17.39-4.84-23h0c0-1.79,0-4.26.19-6.79a26.22,26.22,0,0,1,1.37-7.23,6.68,6.68,0,0,1,2.42-3.36,4.13,4.13,0,0,1,2.28-.68,3,3,0,0,1,.42,0l.56.08,1.64.29,4.85.92c3.66.69,7.84,1.46,10.3,1.76.69.08,1.26.13,1.57.13a14.52,14.52,0,0,0,5.39-1,8.17,8.17,0,0,0,3.75-2.72,4.14,4.14,0,0,0,.79-2.42,5.55,5.55,0,0,0-1.39-3.53,13.42,13.42,0,0,0-3.67-2.93,24.72,24.72,0,0,0-9-2.93h0c-4.22-.43-7.3-.73-9.58-1a16.49,16.49,0,0,1-4.86-1.18,3.38,3.38,0,0,1-1.61-1.6,4.1,4.1,0,0,1-.33-1.17,11.12,11.12,0,0,1-.07-1.44,29.52,29.52,0,0,1,.53-4.68c.32-1.85.75-3.93,1.23-6,.95-4.19,2.05-8.47,2.68-11.05h0c2.26-8.77,3.34-13.15,5-16a8.56,8.56,0,0,1,2-2.29,13.69,13.69,0,0,1,3.65-2h0c7.43-3,11.38-5,13.23-6.68a5.41,5.41,0,0,0,1.25-1.54A4.68,4.68,0,0,0,55.18,69a7.2,7.2,0,0,0-1.69-4.52A35.66,35.66,0,0,0,48,59.1h0a14.67,14.67,0,0,1-3.11-3.25,5.72,5.72,0,0,1-1-3.2A7.45,7.45,0,0,1,44.07,51c.14-.64.35-1.36.6-2.15.51-1.59,1.21-3.48,2-5.49,1.58-4,3.51-8.56,5-12.12,1-2.36,1.72-4.32,2-5.3a3,3,0,0,0,.1-.46,9,9,0,0,0-1-3.43,30.53,30.53,0,0,0-2.65-4.52A50.67,50.67,0,0,0,42,8.5a23.74,23.74,0,0,0-5.52-3.72,7.24,7.24,0,0,0-1.74-.54,4.31,4.31,0,0,0,.3,1l0,0v0a54,54,0,0,1,1.48,7.89,75.85,75.85,0,0,1,.67,9c0,1.21-.19,4.34-.64,8.08a67.25,67.25,0,0,1-2.29,11.53,14.18,14.18,0,0,1-2.92,5.61,3.81,3.81,0,0,1-2.72,1.24,8.23,8.23,0,0,1-2.85-.65,25.29,25.29,0,0,1-3.62-1.77,46.49,46.49,0,0,1-8.52-6.51h0a6.86,6.86,0,0,1-.65-.71c-.25-.3-.54-.66-.85-1.06-.62-.79-1.34-1.71-2-2.47A11.67,11.67,0,0,0,9,34.32a1.4,1.4,0,0,0-.2-.17l-.08.08a2.14,2.14,0,0,0-.39.77A9.21,9.21,0,0,0,8,37.57a22,22,0,0,0,4.57,12.92,67.82,67.82,0,0,0,9.19,9.83c1.73,1.57,3,2.7,3.89,3.72a7.65,7.65,0,0,1,1.84,3.07,8.76,8.76,0,0,1,.27,2.35,7.09,7.09,0,0,1-.44,2.68,9.85,9.85,0,0,1-1.8,2.79C23.75,77,20.71,79.82,15.25,85,8.68,91.27,4.87,96.37,2.71,100.77A25.21,25.21,0,0,0,0,112.48a21.19,21.19,0,0,0,2.72,10.39A37.16,37.16,0,0,0,11,132.74h0a14,14,0,0,1,3.58,4.37,9.79,9.79,0,0,1,.75,4.28c0,.7-.06,1.82-.16,3.25s-.23,3.14-.38,5c-.29,3.68-.65,7.84-.89,11.11-.15,2.18-.26,4-.26,4.9,0,16.58,5,26.75,11.36,33.11a37.29,37.29,0,0,0,20,9.95,44.28,44.28,0,0,0,51.56-42.81C96.59,157.41,94.28,148.37,89,138.57ZM18.41,118.82h0a4.23,4.23,0,0,1-1.28,1.82,3.21,3.21,0,0,1-1.94.75,7.43,7.43,0,0,1-4-1.45,16.23,16.23,0,0,1-3.72-3.58,18.18,18.18,0,0,1-4-10.81A17.69,17.69,0,0,1,7.24,95.2a25.24,25.24,0,0,1,7.64-6.86,10.77,10.77,0,0,1,4.93-1.59,3.94,3.94,0,0,1,2.11.53,3.06,3.06,0,0,1,1.2,1.44A8.28,8.28,0,0,1,23.54,92a4.38,4.38,0,0,1,0,.47c0,.19,0,.43-.08.72-.07.57-.17,1.32-.3,2.22-.26,1.78-.62,4.13-1,6.66-.84,5.07-1.91,10.84-2.87,14.35A16.48,16.48,0,0,1,18.41,118.82Z" style="fill:#00abff"/><path d="M178.75,202.1c4.89,2.43,10.67,3.57,17.39,3.57,15.68,0,30.09-6.39,41.71-14.24a115.41,115.41,0,0,0,24.84-22.76,35.9,35.9,0,0,0,2.68-3.77,6,6,0,0,0,.4-.8.59.59,0,0,0,0-.14l-.18.09c-.29.16-.72.39-1.23.69-1,.6-2.4,1.44-3.95,2.4-3.09,1.91-6.84,4.28-9.78,6.11-2,1.22-3.54,2.19-4.38,2.65h0c-18.85,10.46-34.17,13-44.63,13-7.17,0-12.89-1.42-17.41-4a25.74,25.74,0,0,1-10.13-10.79c-4.65-9-5.62-20.89-5.63-33.43,0-7.85.83-20.41,2-33.74s2.75-27.41,4.2-38.25c1-7.24,1.89-13,2.64-16.25h0c.11-.53.36-1.3.68-2.29l1.14-3.45a67.3,67.3,0,0,0,2-6.85,6.41,6.41,0,0,0,.14-1,15.52,15.52,0,0,0-.88-4.17,42.86,42.86,0,0,0-2.52-6c-2.15-4.27-5.21-8.73-8.65-11.54a11.57,11.57,0,0,0-7.13-3,2.6,2.6,0,0,0-1.07.24,1.56,1.56,0,0,0-.73.61,1.38,1.38,0,0,0-.14.54l0,0c0,.13.1.32.18.54.16.46.37,1.08.61,1.74.47,1.32,1,2.81,1.28,3.62.08.22.13.37.17.5a37.09,37.09,0,0,1,1.94,12.42c0,3.54-.48,10.33-1.06,17.3S162,65.72,161.61,69.81h0c-2.21,24.22-3.42,37.56-4.07,46.75s-.76,14.22-.76,21.87c0,18.57,1.83,32.73,5.51,43.1S171.42,198.45,178.75,202.1Z" style="fill:#00abff"/><path d="M401.17,138.57c-5.32-9.8-13.65-20.35-25.69-31.79l-.45-.41-.78-.72c-.59-.53-1.3-1.14-1.91-1.58-.1-.08-.21-.15-.3-.21a.09.09,0,0,0,0,0,5.1,5.1,0,0,0,.55,1.11h0c9.49,15.62,14.73,27,17.6,35.85a62.76,62.76,0,0,1,3.36,20.55c0,7.41-1.37,13.31-3.59,18A27.64,27.64,0,0,1,381.34,190a33.12,33.12,0,0,1-19,6.07c-6.73,0-12-1.66-16.14-4.36a26.47,26.47,0,0,1-9-10.44c-4.05-8.06-4.72-17.39-4.83-23h0c0-1.79,0-4.26.18-6.79a27,27,0,0,1,1.37-7.23,6.73,6.73,0,0,1,2.42-3.36,4.13,4.13,0,0,1,2.28-.68,3.13,3.13,0,0,1,.43,0l.55.08,1.64.29,4.85.92c3.66.69,7.85,1.46,10.3,1.76.7.08,1.26.13,1.57.13a14.61,14.61,0,0,0,5.4-1,8.14,8.14,0,0,0,3.74-2.72,4.07,4.07,0,0,0,.79-2.42,5.5,5.5,0,0,0-1.39-3.53,13.42,13.42,0,0,0-3.67-2.93,24.72,24.72,0,0,0-9-2.93l.2,0-.2,0c-4.23-.43-7.31-.73-9.59-1a16.58,16.58,0,0,1-4.86-1.18,3.38,3.38,0,0,1-1.61-1.6,4.1,4.1,0,0,1-.33-1.17,11.12,11.12,0,0,1-.07-1.44,29.52,29.52,0,0,1,.53-4.68c.32-1.85.75-3.93,1.23-6,1-4.19,2.06-8.47,2.68-11.05h0c2.25-8.77,3.34-13.15,5-16a8.56,8.56,0,0,1,2-2.29,13.76,13.76,0,0,1,3.66-2h0c7.42-3,11.37-5,13.22-6.68a5.25,5.25,0,0,0,1.25-1.54,4.56,4.56,0,0,0,.46-2.23,7.14,7.14,0,0,0-1.69-4.52,35.66,35.66,0,0,0-5.52-5.34h0a14.9,14.9,0,0,1-3.11-3.25,5.8,5.8,0,0,1-1-3.2,7.45,7.45,0,0,1,.24-1.68c.14-.64.35-1.36.6-2.15.51-1.59,1.21-3.48,2-5.49,1.57-4,3.5-8.56,4.95-12.12,1-2.36,1.72-4.32,2-5.3a3,3,0,0,0,.1-.46A8.84,8.84,0,0,0,365,22a29.67,29.67,0,0,0-2.65-4.52,50.67,50.67,0,0,0-8.12-9,23.53,23.53,0,0,0-5.52-3.72A7.32,7.32,0,0,0,347,4.24a3.84,3.84,0,0,0,.29,1l0,0,0,0a55.36,55.36,0,0,1,1.48,7.89,77.87,77.87,0,0,1,.66,9,79.93,79.93,0,0,1-.64,8.08,67.25,67.25,0,0,1-2.29,11.53,14.17,14.17,0,0,1-2.91,5.61,3.83,3.83,0,0,1-2.73,1.24,8.28,8.28,0,0,1-2.85-.65,25.22,25.22,0,0,1-3.61-1.77,45.82,45.82,0,0,1-8.52-6.51h0a5.9,5.9,0,0,1-.64-.71L324.37,38c-.62-.79-1.34-1.71-2-2.47a12.94,12.94,0,0,0-1.15-1.21l-.21-.17-.08.08a2.16,2.16,0,0,0-.38.77,9.22,9.22,0,0,0-.35,2.57,22,22,0,0,0,4.57,12.92,67.87,67.87,0,0,0,9.2,9.83c1.73,1.57,3,2.7,3.89,3.72a7.74,7.74,0,0,1,1.83,3.07,8.76,8.76,0,0,1,.27,2.35,7.28,7.28,0,0,1-.43,2.68,10.31,10.31,0,0,1-1.8,2.79C336,77,332.92,79.82,327.46,85c-6.57,6.25-10.38,11.35-12.54,15.75a25.34,25.34,0,0,0-2.71,11.71,21.19,21.19,0,0,0,2.72,10.39,37.21,37.21,0,0,0,8.3,9.87h0a13.85,13.85,0,0,1,3.58,4.37,9.79,9.79,0,0,1,.75,4.28c0,.7-.06,1.82-.16,3.25s-.23,3.14-.38,5c-.29,3.68-.65,7.84-.88,11.11-.16,2.18-.26,4-.26,4.9,0,16.58,5,26.75,11.35,33.11a37.29,37.29,0,0,0,20,9.95,44.3,44.3,0,0,0,51.57-42.81C408.8,157.41,406.5,148.37,401.17,138.57Zm-70.55-19.75h0a4.15,4.15,0,0,1-1.28,1.82,3.21,3.21,0,0,1-1.94.75,7.43,7.43,0,0,1-4-1.45,16.44,16.44,0,0,1-3.72-3.58,18.25,18.25,0,0,1-4-10.81,17.69,17.69,0,0,1,3.77-10.35,25.16,25.16,0,0,1,7.65-6.86A10.7,10.7,0,0,1,332,86.75a3.94,3.94,0,0,1,2.11.53,3.14,3.14,0,0,1,1.21,1.44,8.47,8.47,0,0,1,.42,3.24,4.7,4.7,0,0,1,0,.47c0,.19,0,.43-.08.72-.07.57-.17,1.32-.3,2.22-.26,1.78-.62,4.13-1,6.66-.84,5.07-1.91,10.84-2.86,14.35A17.6,17.6,0,0,1,330.62,118.82Z" style="fill:#00abff"/><path d="M462.87,149.31c0,9.52,2.71,16.82,7.05,22.53s10.4,9.81,17.13,12.74c13.47,5.88,29.66,7,40,7,3.77,0,10.14-.14,17-.78S558.17,189,563.77,187c3.73-1.34,6.67-3.07,8.22-5.12a6.14,6.14,0,0,0,1.35-3.85c0-2.09-1.26-4.81-3.54-6.93a13.6,13.6,0,0,0-9.32-3.69h0l-.2,0-.7.09-2.4.35L549.38,169c-6.11.91-13.58,2-19.44,2.74-3.92.49-7.09.82-8.78.82-.84,0-2.62-.07-4.64-.16l-5.9-.26c-1.1,0-2-.07-2.29-.07a52.37,52.37,0,0,1-24-6c-7.65-4.1-14.23-10.47-17.27-19.41-.08-.26-.16-.58-.27-1s-.23-.94-.37-1.51c-.27-1.14-.61-2.47-1-3.61a13,13,0,0,0-.73-1.9v0a8,8,0,0,0-.63,1.44A29.38,29.38,0,0,0,462.87,149.31Z" style="fill:#00abff"/><path d="M486.86,29.44l-1.73-.71a28.58,28.58,0,0,0-3.33-1.22,2.61,2.61,0,0,0-.37-.07.13.13,0,0,1,0,.06,5.26,5.26,0,0,0,.31.75,15.35,15.35,0,0,0,1.38,2.31,35.78,35.78,0,0,0,6.14,6.55C495,42,504.07,47.25,517.58,50.19c2,.4,3.42.7,4.46,1a5.66,5.66,0,0,1,2.3,1,2.18,2.18,0,0,1,.7,1.24,3.33,3.33,0,0,1,.06.69,3.87,3.87,0,0,1-.42,1.57,13.93,13.93,0,0,1-1,1.68c-.78,1.21-1.83,2.58-3,4-2.26,2.85-4.87,5.91-6.27,7.92-.31.44-.55.83-.72,1.13h0a1.31,1.31,0,0,0,.24-.09,14.23,14.23,0,0,0,1.49-1h0a116.13,116.13,0,0,1,12.32-7.75,37.15,37.15,0,0,1,14.64-4.28h0c4.07-.35,7.15-.6,9.43-.88a17.59,17.59,0,0,0,4.65-1,2.15,2.15,0,0,0,1-.78,4,4,0,0,0,.37-2.06,10.45,10.45,0,0,0-.66-2.88,28.81,28.81,0,0,0-2.07-4.52,24.86,24.86,0,0,0-8.32-9,16.28,16.28,0,0,0-8.56-2.42c-1.11,0-4.64.12-8.19.25s-7.11.24-8.41.24c-12.06,0-24.12-1.23-33.75-4.5h0A11.79,11.79,0,0,1,486.86,29.44Z" style="fill:#00abff"/><path d="M680.21,201.79a2,2,0,0,0,.86.17,33.73,33.73,0,0,0,4.13-.38c2-.27,4.56-.72,7.58-1.39a139.84,139.84,0,0,0,22.8-7.3h0c18.37-7.57,31.44-21.1,39.95-36.76a105.38,105.38,0,0,0,12.41-49.34c0-16.05-3.44-30.6-9.67-42.75a68.06,68.06,0,0,0-26.41-28.33h0a48.81,48.81,0,0,0-11.72-5.16C714.89,29,708,27.94,698.51,27.94c-6.08,0-16,0-27.77,4s-25.28,11.88-38.52,27.81h0c-20.82,24.74-23.09,49.41-23.1,62.4a99.47,99.47,0,0,0,4.61,30.54c2.87,8.78,6.9,15.79,11.38,19.9,3,2.74,6.14,4.18,9.29,4.18a16.16,16.16,0,0,0,6.41-1.32,27.55,27.55,0,0,0,7.74-5.16c5.7-5.13,12.55-14.07,20.92-29.1h0C687.9,108.4,691,85.64,691,69.21c0-10.8-1.25-18.64-2.1-26.59v-.11a6.17,6.17,0,0,0-.19-1.23,6.65,6.65,0,0,1-.23-1.49,6.14,6.14,0,0,1,.16-1.57,3.38,3.38,0,0,1,1.05-1.71,4,4,0,0,1,1.41-.79,8.52,8.52,0,0,1,2.79-.39c14.52,0,25.56,3.73,33.88,9.52a53,53,0,0,1,17.66,21.68c7.49,16.16,7.69,33.41,7.69,38.28,0,31-11.54,52.05-25.83,66.47S696,193.6,685.06,198.67h0c-1.9.89-3.16,1.49-4,1.92a5.79,5.79,0,0,0-1.13.68.79.79,0,0,0,.07.36ZM666,125.57h0c-5.45,9.67-9.58,16.14-13,20.5s-6,6.62-8.62,7.74a11.87,11.87,0,0,1-4.94.95,12.49,12.49,0,0,1-9-4,28.31,28.31,0,0,1-5.91-9.66c-3-7.68-4.4-17.28-4.41-25.43a82.82,82.82,0,0,1,14.19-46c8.36-12.59,19.21-22.15,29.34-27.82,6.76-3.77,13.18-5.83,18.44-5.84a4.18,4.18,0,0,1,1.74.3,3.06,3.06,0,0,1,1.47,1.4c.69,1.3,1,3.19,1.19,6.55.12,2.23.17,5.1.17,8.82C686.68,77.87,677.17,105.41,666,125.57Z" style="fill:#00abff"/><path d="M969.82,208.63c2.07,0,4,0,5.55-.11a10.64,10.64,0,0,0,3.59-.7,1.71,1.71,0,0,0,.88-.76,1.58,1.58,0,0,0,.12-.59v0a3.32,3.32,0,0,0-.19-.37,12.92,12.92,0,0,0-.9-1.27c-.79-1-1.93-2.33-3.25-3.74-2.64-2.84-6-6.13-8.82-8.63a34.69,34.69,0,0,0-4.49-3.54,2.62,2.62,0,0,0-.51-.26,1.13,1.13,0,0,0-.7.19,5.36,5.36,0,0,0-1.22,1.3c-1.12,1.49-2.87,4.34-6,9.41v0a13.48,13.48,0,0,1-2.05,2.61,6.22,6.22,0,0,1-2.63,1.48c-2.08.59-4.77.56-9.61.57H901.08a13.52,13.52,0,0,1-3.66-.4,5.25,5.25,0,0,1-2.95-2,7,7,0,0,1-1.09-2.59v-.05l0-.19,0-.19c0-.15,0-.34,0-.57,0-.47,0-1.11,0-1.91,0-1.59,0-3.8-.07-6.43-.05-5.28-.1-12.27-.14-19.46-.08-14.37-.13-29.51-.13-33.22a26.13,26.13,0,0,1,.27-4.39,6,6,0,0,1,1.47-3.2,5,5,0,0,1,2-1.28,12,12,0,0,1,4-.54h50.87c2.14,0,4.08,0,5.69-.11a10.83,10.83,0,0,0,3.65-.7,1.66,1.66,0,0,0,.89-.77,1.48,1.48,0,0,0,.12-.58v0c0-.07-.1-.2-.19-.36a12.92,12.92,0,0,0-.9-1.27c-.79-1-1.93-2.33-3.25-3.75-2.63-2.83-6-6.13-8.82-8.63a36.6,36.6,0,0,0-4.49-3.54,3,3,0,0,0-.51-.25,1.35,1.35,0,0,0-.74.17,5.13,5.13,0,0,0-1.22,1.21c-1.14,1.43-2.94,4.22-6.19,9.29h0a13,13,0,0,1-1.92,2.6,6,6,0,0,1-2.61,1.49c-2.08.59-4.82.56-9.77.57H900.45a10.33,10.33,0,0,1-4.63-.85,5.15,5.15,0,0,1-2.53-2.93,12.21,12.21,0,0,1-.61-2.86c-.14-1.42-.17-3.07-.17-5,0-6.09,0-34.71.26-44.53,0-1.41.08-2.42.13-3a2.7,2.7,0,0,1,.05-.41h0v0a7.42,7.42,0,0,1,1.29-2.8,5.16,5.16,0,0,1,2-1.55,9.76,9.76,0,0,1,4-.61h57.6c2.07,0,4,0,5.54-.11a10.91,10.91,0,0,0,3.6-.7,1.76,1.76,0,0,0,.88-.77,1.53,1.53,0,0,0,.12-.59l0,0a2.17,2.17,0,0,0-.19-.37,11.53,11.53,0,0,0-.89-1.26c-.79-1-1.93-2.33-3.25-3.75-2.64-2.83-6-6.13-8.83-8.63a35.7,35.7,0,0,0-4.48-3.54,3.47,3.47,0,0,0-.51-.25,1.35,1.35,0,0,0-.74.17,4.72,4.72,0,0,0-1.19,1.2c-1.12,1.43-2.86,4.22-6,9.28v0a13.79,13.79,0,0,1-2.05,2.61,6.25,6.25,0,0,1-2.64,1.48c-2.07.59-4.76.56-9.6.56H900.45a10.33,10.33,0,0,1-4.58-.81,4.92,4.92,0,0,1-2.45-2.73,10,10,0,0,1-.56-2.57c-.13-1.25-.14-2.67-.14-4.28,0-2.29.08-7.31.3-12.56a130.18,130.18,0,0,1,1.1-14,12,12,0,0,1,.56-2.28l0,0,0,0a8,8,0,0,1,.72-1.07l1.07-1.36c.78-1,1.67-2.08,2.31-3a7.26,7.26,0,0,0,.81-1.44l0-.1a2.18,2.18,0,0,0-.58-1.37,6.91,6.91,0,0,0-1.9-1.5,28.27,28.27,0,0,0-6.56-2.53A79.42,79.42,0,0,0,878.37,0L878,0a3,3,0,0,0-1,.14c-.18.09-.21.13-.26.22a1,1,0,0,0-.06.37,7.66,7.66,0,0,0,.12.91c.09.44.2,1,.33,1.59.27,1.19.6,2.54.86,3.6.16.71.3,1.27.36,1.64v.08a258.69,258.69,0,0,1,1.27,29c0,3.47,0,6.22-.15,8.41a13.11,13.11,0,0,1-1.13,5.15,4.7,4.7,0,0,1-2,2,9.24,9.24,0,0,1-4.22.76H841a22.2,22.2,0,0,1-2.31-.07,5.47,5.47,0,0,1-2.19-.63,3.24,3.24,0,0,1-1.17-1.13,4.38,4.38,0,0,1-.59-2.38,7.28,7.28,0,0,1,.21-1.37c.13-.53.3-1.17.52-1.89.43-1.43,1-3.18,1.66-5,1.29-3.64,2.81-7.53,3.78-9.66a11.9,11.9,0,0,1,.69-1.36h0a.05.05,0,0,0,0,0h0a7.69,7.69,0,0,1,.92-1.15c.41-.43.91-.93,1.45-1.46,1.08-1.06,2.33-2.26,3.33-3.36a12.2,12.2,0,0,0,1.49-1.9A1.83,1.83,0,0,0,849,22a1,1,0,0,0-.1-.36,4.73,4.73,0,0,0-.43-.66,12.12,12.12,0,0,0-1.8-1.77,52,52,0,0,0-6-4.09A122.18,122.18,0,0,0,829.7,9.35a26.86,26.86,0,0,0-.57,4.08v0a196,196,0,0,1-5.46,26.67,379.82,379.82,0,0,1-22.37,60.64h0c-.79,1.64-1.83,3.89-2.78,6s-1.8,4-2.2,5c-.09.22-.15.4-.18.49a1.37,1.37,0,0,0,.06.39h0a1.45,1.45,0,0,0,.24-.11,5.68,5.68,0,0,0,.83-.57,23,23,0,0,0,2.49-2.49,102.78,102.78,0,0,0,7.1-9.36,275.58,275.58,0,0,0,17.62-29.93c1.48-2.92,2.58-5.09,3.56-6.73a11.51,11.51,0,0,1,3-3.58,6.49,6.49,0,0,1,2.42-1.06,19.46,19.46,0,0,1,4.13-.3h34.69a7.6,7.6,0,0,1,4,.94,5.82,5.82,0,0,1,2.44,3.16,13.16,13.16,0,0,1,.65,3.24v48.54a26.41,26.41,0,0,1-.15,3.34,6.47,6.47,0,0,1-1.19,3.1,5,5,0,0,1-1.91,1.49,9.63,9.63,0,0,1-4.06.74H848.73c-9.89,0-18.53-.25-28.84-.75h-.12c-.51-.08-1.75-.25-3.14-.41s-3-.34-4.18-.45c-.54,0-1-.08-1.36-.1l.42.64,4.2,5.69,0,0a10.8,10.8,0,0,0,.61.91,1,1,0,0,0,.33.33l.11,0,.45,0,.85-.12c.64-.1,1.38-.23,2-.34l.87-.2.14,0h.15c.87,0,2.91-.13,7-.25s10.24-.25,19.5-.25h24.6a8.76,8.76,0,0,1,3.37.59,5.64,5.64,0,0,1,2.26,1.63,7.34,7.34,0,0,1,1.47,4.72v59.58a18.77,18.77,0,0,1-.75,5.92,5.59,5.59,0,0,1-2.27,3.08,5.66,5.66,0,0,1-2.08.74,16.91,16.91,0,0,1-2.84.16H831.29c-9.92,0-18.56-.5-28.85-1h0c-.33,0-.77,0-1.32-.07l-2-.17c-1.43-.13-3-.29-4.23-.39l-1.29-.1.42.63,4.21,5.7,0,0c.23.35.42.62.56.79s.23.22.25.22h0c.09,0,.31,0,.57,0l.92-.11,2.06-.26c.38,0,.69-.07,1-.08,2-.26,8.14-.74,26.6-.75Z" style="fill:#00abff"/><path d="M1038,65.8c0-.17,0-.29,0-.3a2.43,2.43,0,0,0-.24-1.08.41.41,0,0,0-.07-.11l0,.06a17.49,17.49,0,0,0-.82,1.92c-.57,1.5-1.09,3.22-1.29,3.94h0c-6.52,23.36-10.41,37.28-13.89,48a247.28,247.28,0,0,1-11.39,29c-1.61,3.54-3.37,6.11-5.65,7.81a13.24,13.24,0,0,1-8.29,2.42,10,10,0,0,0-1.36.1,3.94,3.94,0,0,0-1.18.36l-.17.12a5.27,5.27,0,0,0,.8.44c.79.36,1.88.72,2.87,1.06.66.22,1.28.43,1.77.64a5.25,5.25,0,0,1,.71.36h0a25.72,25.72,0,0,1,6.35,4.89,20,20,0,0,1,4.05,6.88c2,5.53,2.71,13.15,2.92,24.92h0a58.6,58.6,0,0,0,.61,9.39c.57,3.45,1.71,6.77,3.71,8.75a7.27,7.27,0,0,0,5.4,2.12,6.86,6.86,0,0,0,4.91-2.42c1.53-1.69,2.71-4.32,2.71-8.2a36.2,36.2,0,0,0-.53-5.24c-.3-1.93-.68-3.84-1-5.23-.19-.91-.33-1.57-.39-1.93-3-13.84-4.78-21.49-5.76-26.75a58.39,58.39,0,0,1-1.2-12.27,47.27,47.27,0,0,1,.5-5.48c.32-2.3.77-5,1.32-8.08,1.1-6.07,2.58-13.34,4.12-20.64,3.07-14.58,6.39-29.32,7.32-34.7v-.06c0-.14.11-.58.21-1.17s.23-1.38.38-2.28c.28-1.81.62-4.09,1-6.41C1037.15,72,1037.83,67.2,1038,65.8Z" style="fill:#00abff"/><path d="M1176.44,77.73a8.81,8.81,0,0,0,3.41-.73,1.54,1.54,0,0,0,.78-.83,2,2,0,0,0,.13-.72l0,0a4.08,4.08,0,0,0-.23-.42,17,17,0,0,0-1-1.43c-.9-1.13-2.19-2.57-3.61-4.08a96.35,96.35,0,0,0-8.62-8.12,13.41,13.41,0,0,0-1.59-1.11,1.93,1.93,0,0,0-.34-.16,1.39,1.39,0,0,0-.75.16,3.83,3.83,0,0,0-1,1c-1,1.17-2.46,3.46-5.08,7.53h0a13.79,13.79,0,0,1-2.05,2.61,6.22,6.22,0,0,1-2.63,1.48c-2.07.59-4.77.56-9.61.56h-16.61a8.79,8.79,0,0,1-1.9-.17,6.16,6.16,0,0,1-2.77-1.32,5.5,5.5,0,0,1-1.5-2.08v0a1.63,1.63,0,0,1-.1-.41,4.3,4.3,0,0,1-.07-.45c0-.34-.07-.76-.11-1.26-.06-1-.12-2.31-.18-3.86-.11-3.08-.19-7.07-.26-11.16-.13-8.16-.18-16.69-.18-19a10.46,10.46,0,0,1,1.07-5.22,6.09,6.09,0,0,1,3.19-2.66,15.6,15.6,0,0,1,2.83-.76h0c5-1.11,16.71-3.76,24.68-5a46.24,46.24,0,0,1,6.44-.69,20.85,20.85,0,0,0,2.6-.13,4.18,4.18,0,0,0,1.49-.43,1,1,0,0,0,.39-.34,1.37,1.37,0,0,0,.19-.8l0-.09a3,3,0,0,0-.22-.4,10.16,10.16,0,0,0-1-1.32A52.29,52.29,0,0,0,1158.3,12c-3-2.76-6.82-5.88-9.82-8.23-2-1.57-3.67-2.82-4.5-3.37l0,0-.64.45c-.65.48-1.54,1.16-2.5,1.89-1.92,1.47-4.12,3.17-5.48,4.14-.39.27-.71.49-1,.65h0a159.79,159.79,0,0,1-20.83,9.91c-10.46,4.13-25,8.84-45.44,13.43-.58.16-1.64.41-2.92.72s-2.81.69-4.07,1.07c-.65.19-1.24.38-1.7.56l.23.09a10.63,10.63,0,0,0,3.4.53,174,174,0,0,0,20.7-1.23h0c1-.09,3.41-.46,6.22-.89s6-.91,8.49-1.23a37.23,37.23,0,0,1,3.88-.36,6.15,6.15,0,0,1,3.09.76,5.49,5.49,0,0,1,2,2,10.24,10.24,0,0,1,1.19,5.18V65.75a9.6,9.6,0,0,1-1,4.68,5.34,5.34,0,0,1-2.54,2.35,7.21,7.21,0,0,1-1.94.53,15.37,15.37,0,0,1-2.25.11h-13c-9.89,0-18.54-.24-28.87-1h0c-.3,0-.69,0-1.2-.07l-1.91-.16c-1.41-.13-3-.29-4.26-.39l-1.2-.09c.1.16.24.36.42.62h0l4,5.65c.3.35.54.63.72.81a1.07,1.07,0,0,0,.34.28h0l.48,0,.9-.11,2-.26c.36,0,.63-.07.87-.08h0c2.17-.25,8.29-.75,26.81-.75h14.3a7.36,7.36,0,0,1,5,1.62,6.58,6.58,0,0,1,2,4.09.67.67,0,0,1,0,.17l0,.14c0,.1,0,.21,0,.34s0,.64,0,1.08c0,.9,0,2.13,0,3.6,0,2.94,0,6.83.07,10.85,0,8,0,16.57,0,18.92a18.47,18.47,0,0,1-.15,2.87,6.87,6.87,0,0,1-1.16,3.07,5.44,5.44,0,0,1-1.88,1.62,8.9,8.9,0,0,1-4.11.85H1085.9a32.22,32.22,0,0,1-6.26-.36,20,20,0,0,1-6.21-2.49h0c-2.76-1.57-4.6-2.63-5.87-3.32a15.6,15.6,0,0,0-2.34-1.15,1.94,1.94,0,0,0-.43-.09l-.06.2a5.4,5.4,0,0,0-.1,1.27c0,.18,0,.57.06,1s.1,1,.17,1.59c.13,1.13.28,2.31.38,2.89v.07c.43,4.54.43,12.69.43,16.66,0,3.49-.27,14.54-.55,26s-.61,23.15-.71,28h0c0,1.08-.09,3.57-.2,6.37s-.25,5.92-.34,8.12c-.06,1.45-.09,2.54-.09,2.8a5.94,5.94,0,0,0,.49,2.64,2.65,2.65,0,0,0,1.22,1.21,4.7,4.7,0,0,0,1.28.41,12.38,12.38,0,0,0,2.31.18,11.58,11.58,0,0,0,5.78-1.29,8.09,8.09,0,0,0,3.76-5.6c.31-1.36.57-2.46.84-3.39a8.5,8.5,0,0,1,1-2.31,3.66,3.66,0,0,1,1-1.08,4.77,4.77,0,0,1,1.88-.73,20.62,20.62,0,0,1,3.39-.19h53.82a8.81,8.81,0,0,1,3,.48,5.26,5.26,0,0,1,2,1.32,6.92,6.92,0,0,1,1.59,3.44v.05a34.82,34.82,0,0,0,.74,3.72,5.94,5.94,0,0,0,1.11,2.3,3,3,0,0,0,1.15.84,6.85,6.85,0,0,0,2.74.46,11.88,11.88,0,0,0,4.39-.83,8.9,8.9,0,0,0,4.82-4.55,15.93,15.93,0,0,0,1.35-7h0v-.15c0-.1,0-.25,0-.44,0-.37,0-.9,0-1.58,0-1.35-.07-3.26-.12-5.56-.1-4.62-.23-10.81-.36-17.27-.27-12.92-.53-26.88-.53-31.36a22,22,0,0,1,.37-4.72,11.81,11.81,0,0,1,2.6-5.32c1.11-1.3,1.88-2.21,2.4-2.88a5.09,5.09,0,0,0,.85-1.36,1.63,1.63,0,0,0,.09-.55,2.78,2.78,0,0,0-.32-1,14.15,14.15,0,0,0-1-1.77,48.57,48.57,0,0,0-3.63-4.6,63.16,63.16,0,0,0-8.42-8.13,6.38,6.38,0,0,0-1.32-.81l-.07,0c-.15,0-.14,0-.21,0a3.35,3.35,0,0,0-.59.52c-.65.68-1.77,2.06-3.87,4.53a22.48,22.48,0,0,1-3.41,3.41A6.48,6.48,0,0,1,1143,127a13,13,0,0,1-2,.11h-13a9.9,9.9,0,0,1-3.27-.5,5.88,5.88,0,0,1-3-2.23,6.83,6.83,0,0,1-1.06-2.8h0c0-.11,0-.19,0-.3s0-.23,0-.38,0-.7,0-1.17c0-1,0-2.26,0-3.79,0-3.06,0-7.07-.07-11.15,0-8.16,0-16.63,0-18.48a12.45,12.45,0,0,1,.76-4.72,5.43,5.43,0,0,1,2.18-2.68,6.09,6.09,0,0,1,1.92-.77,12,12,0,0,1,2.65-.25h42.68C1172.89,77.85,1174.86,77.85,1176.44,77.73ZM1141,131.5a8.45,8.45,0,0,1,4.13.91,5.5,5.5,0,0,1,2.28,2.39,12.56,12.56,0,0,1,.89,5.61c0,7.43-.21,43.27-.21,51.42a9.51,9.51,0,0,1-1.2,5.12,5.71,5.71,0,0,1-3.33,2.45,9.75,9.75,0,0,1-2.77.36h-55.08a8.27,8.27,0,0,1-4.3-1,5.53,5.53,0,0,1-2.27-2.72,9.61,9.61,0,0,1-.57-2.26,23.93,23.93,0,0,1-.17-3.18V139.42a9.45,9.45,0,0,1,1.21-5.11,5.72,5.72,0,0,1,3.32-2.45,9.82,9.82,0,0,1,2.78-.36Z" style="fill:#00abff"/><path d="M1014.06,67.7a35.74,35.74,0,0,0-12.14-7.42,20.37,20.37,0,0,0-6.41-1.44,4.19,4.19,0,0,0-1.54.31,2.68,2.68,0,0,0-.42.19A74.28,74.28,0,0,1,1009,83.16a21.4,21.4,0,0,0,2.18,4.09A5.17,5.17,0,0,0,1013.1,89a2.61,2.61,0,0,0,1.11.26,5.37,5.37,0,0,0,3.81-2.15,10,10,0,0,0,2.13-6.5C1020.15,75.46,1017.64,71.15,1014.06,67.7Z" style="fill:#00abff"/><path d="M1040.87,18.27a22.24,22.24,0,0,0-5.06-6,43.76,43.76,0,0,0-13.45-7.44A38.77,38.77,0,0,0,1016.09,3a4.35,4.35,0,0,0-.61-.06.55.55,0,0,0-.33.07.53.53,0,0,0-.18.22,2.05,2.05,0,0,0-.17.91v0a1.87,1.87,0,0,0,.1.26,4.93,4.93,0,0,0,.34.6,1,1,0,0,0,.15.2l0,0,0,0c4.84,6.8,7.52,10.64,9.52,13.83a98.36,98.36,0,0,1,5.27,9.78,19.72,19.72,0,0,0,2.83,4.31,4.84,4.84,0,0,0,2,1.42,3.85,3.85,0,0,0,1.17.16,5.94,5.94,0,0,0,4.36-2.28,10.07,10.07,0,0,0,2.21-6.61A15.89,15.89,0,0,0,1040.87,18.27Z" style="fill:#00abff"/><path d="M1329.21,32.14a3.24,3.24,0,0,0-1.58.44,2.86,2.86,0,0,0-1,.8l0,0h0a2.71,2.71,0,0,0,.17.31,7.07,7.07,0,0,0,.73.91,13.54,13.54,0,0,0,1.81,1.63h0l0,0c4.31,3.46,7,5.64,9.19,7.72a46,46,0,0,1,5.93,7.07h0c2.43,3.42,4.19,5.75,5.55,7.3a9,9,0,0,0,3.09,2.61,4.12,4.12,0,0,0,1.68.3,2.93,2.93,0,0,0,1.85-.71,6.83,6.83,0,0,0,1.67-2,12.56,12.56,0,0,0,1.58-5.9,7.42,7.42,0,0,0-.24-1.55,18.81,18.81,0,0,0-.86-2.69,23.62,23.62,0,0,0-4.42-6.95C1350,36.66,1342.43,32.15,1329.21,32.14Z" style="fill:#00abff"/><path d="M1335.46,126.72a14,14,0,0,1,1.84.38h0l.05,0c.45.2,1,.51,1.76.92s1.57.91,2.48,1.45c1.83,1.08,3.92,2.31,5.74,3.29a24.75,24.75,0,0,0,3.08,1.46,3.52,3.52,0,0,0,.84.22,6.23,6.23,0,0,0,4.32-1.89,16.35,16.35,0,0,0,3.32-4.83,40.6,40.6,0,0,0,3.2-11,13,13,0,0,0,.14-1.58,54.15,54.15,0,0,0-4.56-19c-3.09-7.2-7.89-14.34-14.71-18.87a29.26,29.26,0,0,0-16.52-4.89h-.41a1.19,1.19,0,0,0,0,.34,1.4,1.4,0,0,0,.22.24,9.31,9.31,0,0,0,1.21.89c1,.65,2.25,1.33,3.11,1.84h0a31.62,31.62,0,0,1,14.77,16.17,35.79,35.79,0,0,1,2.75,13.12,25.37,25.37,0,0,1-.26,4.26,9.18,9.18,0,0,1-1.28,3.35c-1.33,2.09-3.53,4-7.41,7.47h0a11.92,11.92,0,0,1-1.13.91l-1.66,1.19c-1.23.87-2.6,1.85-3.63,2.7a10.79,10.79,0,0,0-1.16,1.09c.19,0,.41.11.67.16C1333.14,126.4,1334.4,126.56,1335.46,126.72Z" style="fill:#00abff"/><path d="M1306.31,144.64c3-15.17,4.45-30.65,4.45-40.32a43.57,43.57,0,0,0-2.1-14.22,24.54,24.54,0,0,0-5.68-9.43c-4.79-4.83-11.48-7-19.18-7-.28,0-1,.06-2,.15s-2.12.22-3.32.35c-2.4.27-4.93.56-6.25.68a8.45,8.45,0,0,1-.86.06,3.72,3.72,0,0,1-1.87-.45A2.71,2.71,0,0,1,1268.3,73a3.81,3.81,0,0,1-.22-1.32,19.79,19.79,0,0,1,.31-2.78c.19-1.2.47-2.66.8-4.29.66-3.27,1.55-7.25,2.47-11.23,1.85-8,3.81-15.88,4.32-18l.09-.38a10.11,10.11,0,0,0-1.37-4.62,17.3,17.3,0,0,0-4.13-4.86,24.45,24.45,0,0,0-15.78-5.27,5.79,5.79,0,0,0-1.21.14,2.35,2.35,0,0,0-1,.48.47.47,0,0,0-.14.36.45.45,0,0,0,0,.2,3.62,3.62,0,0,0,.4.71c.47.73,1.37,2,2.94,4.2l0,0a30.13,30.13,0,0,1,4.59,11.15,52.47,52.47,0,0,1,.83,10.42c0,.53,0,5-.32,10.4s-.83,11.55-1.87,15.56a12.78,12.78,0,0,1-1.09,2.91,3.93,3.93,0,0,1-.86,1.07l-.07,0-.06,0a1.08,1.08,0,0,1-.2.1l-.11,0-.24.07-.79.22c-.67.18-1.6.42-2.74.7-2.28.57-5.38,1.33-8.77,2.12-6.79,1.58-14.71,3.3-19.59,4a25.54,25.54,0,0,1-3.39.32,7.86,7.86,0,0,1-1.17-.12c-.44-.08-1-.18-1.5-.31-1.11-.25-2.41-.58-3.74-.94-2.65-.72-5.4-1.54-6.79-1.91l-.7-.18a.85.85,0,0,0-.58.29,1.06,1.06,0,0,0-.28.69,10.85,10.85,0,0,0,.87,3.59,32.84,32.84,0,0,0,2.47,4.93,33.61,33.61,0,0,0,7.87,9.17,9.88,9.88,0,0,0,5.65,2.32,7.06,7.06,0,0,0,1.64-.3c.74-.2,1.65-.49,2.67-.85,2-.73,4.52-1.73,7.11-2.8,5.18-2.13,10.75-4.49,14.32-5.48a11,11,0,0,1,2.64-.46,2.42,2.42,0,0,1,1.31.37,2.27,2.27,0,0,1,.79.88,3.8,3.8,0,0,1,.38,1.73,9.17,9.17,0,0,1-.11,1c-.06.4-.15.86-.26,1.36-.21,1-.51,2.18-.82,3.38-.64,2.39-1.37,4.85-1.8,6.13-5.69,18.58-10.76,30.75-15.13,39.22a101.62,101.62,0,0,1-10.89,17h0c-4.73,6.12-7.89,10.22-10,13.2s-3.07,4.81-3.52,6.39a11.38,11.38,0,0,0-.39,3.29,9.26,9.26,0,0,0,.81,4,4.82,4.82,0,0,0,2.34,2.37,6,6,0,0,0,2.58.52,9.76,9.76,0,0,0,5.89-2.47,34.79,34.79,0,0,0,6.46-7.14c4.36-6.13,8.75-14.73,12.87-24.4,8.25-19.33,15.44-42.91,19.64-59.67,1.58-6.31,2.07-8.42,2.65-9.79a6.52,6.52,0,0,1,.63-1.15h0a4.34,4.34,0,0,1,1.3-1.17,14.88,14.88,0,0,1,1.94-1,43.48,43.48,0,0,1,5.42-2A48,48,0,0,1,1286.11,83a21.06,21.06,0,0,1,5.73.67,11.41,11.41,0,0,1,5.6,3.49,14.6,14.6,0,0,1,2.71,4.86,32.61,32.61,0,0,1,1.47,10.53,148.1,148.1,0,0,1-2.41,22.88c-1.35,7.91-3,15.4-4.14,20.36h0c-2.3,10.07-4.84,16.9-7.49,21.55s-5.45,7.13-8.21,8.34a12.63,12.63,0,0,1-5.24,1,45.56,45.56,0,0,1-11-1.76l-.05,0,0,0c-.45-.17-2.57-1-4-1.42a7.81,7.81,0,0,0-.93-.24h0a1,1,0,0,0,0,.22l0,.11c0,.12.08.29.14.49.13.4.31.94.53,1.53.42,1.19,1,2.62,1.37,3.82.27.77.49,1.44.62,1.94a94,94,0,0,0,3,9,13.63,13.63,0,0,0,4.21,6.06,7.24,7.24,0,0,0,4.29,1.3c3.24,0,7-1.61,10.6-4.29a47.67,47.67,0,0,0,10-10.38c3-4.2,5.59-10,7.84-16.69A174.86,174.86,0,0,0,1306.31,144.64Z" style="fill:#00abff"/><path d="M1362.17,29.54v0c1.58,2.13,2.88,3.9,4.09,5.23a10.24,10.24,0,0,0,3.54,2.75,6.93,6.93,0,0,0,2.71.51,3.06,3.06,0,0,0,1.77-.53,4.77,4.77,0,0,0,1.35-1.46,8.57,8.57,0,0,0,1.14-4.18,14.78,14.78,0,0,0-1-4.88,19.52,19.52,0,0,0-4.08-6.58c-4.11-4.38-11.35-8.3-24.18-8.31a12.11,12.11,0,0,0-2.79.42,11,11,0,0,0-2.79,1.08,2.65,2.65,0,0,0-.92.78.29.29,0,0,0-.07.19c0,.08,0,.25.29.53a4.44,4.44,0,0,0,1.77,1l0,0h0a62.19,62.19,0,0,1,10.88,6.19,42,42,0,0,1,8.22,7.2Z" style="fill:#00abff"/><path d="M72,499.84a1.57,1.57,0,0,0,.92.2,34,34,0,0,0,6.18-.79c2.22-.45,4.39-1,5.92-1.47,1-.29,1.79-.54,2-.64h.06c7.32-2.32,17.7-5.69,27.8-11.79s19.9-14.89,26.14-28.08c4.16-8.8,6.74-19.57,6.75-32.85,0-15.65-4.22-29.58-12.14-39.55s-19.51-16.05-34.58-16.07c-7,0-16,1.71-26,4.66a23,23,0,0,1-3,.82,18.16,18.16,0,0,1-3.42.46,7.1,7.1,0,0,1-1.61-.14,3.13,3.13,0,0,1-1.51-.75,3.09,3.09,0,0,1-.71-1,6.41,6.41,0,0,1-.53-1.79,22.7,22.7,0,0,1-.21-3.52,46,46,0,0,1,1.54-10.25,10.58,10.58,0,0,1,.92-2.39h0a5.28,5.28,0,0,1,1.72-1.66,15.82,15.82,0,0,1,3-1.4c2.57-.95,6.46-2.06,12.66-3.8,10-2.91,16.82-4.91,20.6-7.36a10,10,0,0,0,2.84-2.58,7.34,7.34,0,0,0,1.27-4.42,6.91,6.91,0,0,0-2.21-4.94,7.37,7.37,0,0,0-7.21-2c-.73.16-1.62.41-2.62.71-2,.6-4.44,1.43-7,2.3-5.09,1.76-10.57,3.71-14,4.52a12.44,12.44,0,0,1-2.52.38,9.06,9.06,0,0,1-1.46-.09,3.29,3.29,0,0,1-1.19-.4,2.09,2.09,0,0,1-.62-.6,2.66,2.66,0,0,1-.38-1,7.85,7.85,0,0,1-.09-1.4,26.21,26.21,0,0,1,.71-5.17,48.66,48.66,0,0,1,2.31-7.32h0l.46-1.15c.25-.63.58-1.44.92-2.31.68-1.72,1.43-3.63,1.76-4.55.06-.15.1-.28.13-.36a2.18,2.18,0,0,0-.39-1A6.39,6.39,0,0,0,74,307.92a22,22,0,0,0-4.71-2.7,68.53,68.53,0,0,0-10-3.42l-1.1-.26a2.06,2.06,0,0,0-.57.09c-.16.06-.19.1-.21.13a.43.43,0,0,0-.05.25v0a1.91,1.91,0,0,0,0,.28c0,.23.08.56.14.95.12.8.29,1.87.47,3.09.37,2.42.82,5.37,1.11,7.69a33.87,33.87,0,0,1,.34,3.54c0,.27,0,1.08-.09,2.3s-.15,2.79-.27,4.5A97,97,0,0,1,58,334.34a11.71,11.71,0,0,1-.48,1.87h0a3.63,3.63,0,0,1-1.28,1.68,7.6,7.6,0,0,1-2,1.06A23.37,23.37,0,0,1,49,340.13a81,81,0,0,1-9.69.47,105.34,105.34,0,0,1-14.43-1h-.06c-.36-.07-.87-.22-1.54-.42L21,338.46c-1.63-.51-3.39-1-4.34-1.25a4.53,4.53,0,0,0-.48-.07,1.57,1.57,0,0,0-1.18.38,1.51,1.51,0,0,0-.35,1.09v.08a1.58,1.58,0,0,0,.06.23,5.8,5.8,0,0,0,.25.73,17,17,0,0,0,1.12,2.21,28.14,28.14,0,0,0,4.7,5.89,27.84,27.84,0,0,0,19.77,7.91c.58,0,2.41-.09,4.27-.2s3.79-.23,4.67-.27l.52,0a9.26,9.26,0,0,1,3,.39,3.48,3.48,0,0,1,1.93,1.55,5,5,0,0,1,.55,1.6,15.09,15.09,0,0,1,.18,2.66c0,6.61-.3,11.09-1,14.47a15.78,15.78,0,0,1-3.74,7.64,39.43,39.43,0,0,1-4.2,3.87h0c-12.75,10.32-24.14,22.55-32.32,35.48S1.2,449.38,1.2,462.47a33.82,33.82,0,0,0,.74,7.13c.62,2.77,1.76,5.5,3.62,7.14a7.15,7.15,0,0,0,4.94,1.79c4.77,0,9.81-1.94,15-5.17a109.93,109.93,0,0,0,15.86-12.61h0c2.38-2.14,5.88-5.38,8.11-7.26a17.72,17.72,0,0,1,1.79-1.38,2.74,2.74,0,0,1,.42-.21,1.22,1.22,0,0,1,.41-.07,1.55,1.55,0,0,1,.29,0,1.6,1.6,0,0,1,.74.28,2.41,2.41,0,0,1,.69.77c.37.59.78,1.45,1.51,2.92A29.39,29.39,0,0,0,57,458.7a5.66,5.66,0,0,0,2.06,1.87A4.42,4.42,0,0,0,61,461a3.87,3.87,0,0,0,2.4-.8,6.27,6.27,0,0,0,1.8-2.32,19.47,19.47,0,0,0,1.53-8.25c0-.58-.09-2.25-.2-4.17s-.24-4.1-.33-5.82c-.06-1.15-.1-2.07-.1-2.61a18.23,18.23,0,0,1,.4-4.6,21.18,21.18,0,0,1,2-4.77h0c3.79-7,6.51-12.09,8.72-17a103.33,103.33,0,0,0,5.7-16.38c1.07-4.1,1.86-7.18,2.71-9.54a11.78,11.78,0,0,1,3.12-5.21A7.57,7.57,0,0,1,92,377.9a27.9,27.9,0,0,1,6.19-.49c8.84,0,17.8,4.31,24.51,12.55s11.18,20.41,11.18,36.17A64.45,64.45,0,0,1,120.58,466c-9.3,12.23-23.92,23-45.17,31.48h0c-.82.32-1.54.61-2.12.88a6.39,6.39,0,0,0-1.25.72.71.71,0,0,0-.19.21.9.9,0,0,0,.06.36ZM53.13,424.92c-.14,2.9-.3,5.25-.49,6.56a5.79,5.79,0,0,1-.2.9h0a24.72,24.72,0,0,1-4.63,7.3,85.7,85.7,0,0,1-8.07,8.17c-6.05,5.41-12.89,10.37-17.67,12.64a13.33,13.33,0,0,1-3.65,1.24h0a6.39,6.39,0,0,1-1,.07,4.37,4.37,0,0,1-2.21-.55,3.9,3.9,0,0,1-1.47-1.52,9,9,0,0,1-.92-4.43,34.52,34.52,0,0,1,2-10.26,88.11,88.11,0,0,1,5.06-12,159.8,159.8,0,0,1,14.84-23.7,88.64,88.64,0,0,1,9.86-11.25,20.64,20.64,0,0,1,4.56-3.35,5,5,0,0,1,2.13-.56,1.73,1.73,0,0,1,1.13.41,2.62,2.62,0,0,1,.62.82,6.58,6.58,0,0,1,.53,1.91,24.55,24.55,0,0,1,.19,3.54C53.75,402.85,53.55,416.24,53.13,424.92Zm25.7-35.33c-.36,1.53-.87,3.24-1.47,5a86.26,86.26,0,0,1-4.43,10.57,34.55,34.55,0,0,1-3.17,5.27A6.9,6.9,0,0,1,68,412.17a2.14,2.14,0,0,1-1.17.37,2,2,0,0,1-.9-.22,2.39,2.39,0,0,1-.68-.53,4.52,4.52,0,0,1-.81-1.44,16.1,16.1,0,0,1-.81-3.79,63,63,0,0,1-.32-6.88,67.3,67.3,0,0,1,.25-7.17,15.43,15.43,0,0,1,1.83-6.26,8.67,8.67,0,0,1,3-3,13.11,13.11,0,0,1,6.84-1.59c.24,0,.62,0,1,0a5.46,5.46,0,0,1,1.33.23,2,2,0,0,1,.92.58,2.67,2.67,0,0,1,.43.78,7.59,7.59,0,0,1,.22.78,13.19,13.19,0,0,1,.21,1.32,1.93,1.93,0,0,1,0,.24A18.31,18.31,0,0,1,78.83,389.59Z" style="fill:#00abff"/><path d="M212.31,492.62c8.54,4.71,18.4,4.74,23.22,4.73,3.63,0,10.68-.13,18.5-.75s16.41-1.74,23.07-3.67c4.44-1.28,8-3,9.87-4.9a5,5,0,0,0,1.58-3.52,10.15,10.15,0,0,0-3.9-7.49,14.12,14.12,0,0,0-9-3.38,21.22,21.22,0,0,0-5.6.71c-2.2.54-5.14,1.47-9.87,2.95-6.32,2-14.86,4.5-25.52,4.5-6.48,0-12.31-.88-17.12-2.92a20.34,20.34,0,0,1-10.84-10,25.53,25.53,0,0,1-2.27-11.11,39.57,39.57,0,0,1,1.95-12.8,42.39,42.39,0,0,1,8.12-13.9c8.19-9.66,22.6-20.15,47.69-32.06h0a82.27,82.27,0,0,0,8.34-4.21,17.67,17.67,0,0,0,5.95-5.29,8.1,8.1,0,0,0,1.31-4.43,9.22,9.22,0,0,0-2-5.53,6.38,6.38,0,0,0-5-2.61,14.2,14.2,0,0,0-5.22,1.48,59.12,59.12,0,0,0-6.5,3.53c-4.31,2.66-8.18,5.55-9.33,6.41l0,0,0,0c-4.26,3.15-7.1,5.26-9.17,6.68a18.21,18.21,0,0,1-4.61,2.58,7.64,7.64,0,0,1-2.38.33,3.2,3.2,0,0,1-1.4-.33,4,4,0,0,1-1.13-.87,8.23,8.23,0,0,1-1.56-2.72,35.19,35.19,0,0,1-1.68-8.16,177.35,177.35,0,0,1-.69-18.34,272.64,272.64,0,0,1,1.9-32.75v-.05c.2-1.13.78-3.85,1.38-6.78s1.22-6,1.45-7.79a9.21,9.21,0,0,0,.1-1.09,11.26,11.26,0,0,0-1.73-5.42,24,24,0,0,0-4.79-5.79c-4-3.61-9.51-6.33-15.18-6.33-.14,0-.76,0-1.49.08a21.75,21.75,0,0,0-2.31.3,7.47,7.47,0,0,0-.73.19c.1.17.27.43.52.77.68.92,2,2.47,4.15,5.18a24,24,0,0,1,4.58,7.14c1.21,3.12,2,7.27,2,13.53,0,3.25-.27,12-.53,20.7s-.53,17.29-.53,20.09a119.36,119.36,0,0,0,.84,16,94.54,94.54,0,0,0,2.7,12.64c.1.32.24.78.4,1.37s.36,1.32.55,2.05c.38,1.48.74,3,.9,3.86a4.07,4.07,0,0,1,.08.67,7.56,7.56,0,0,1-.6,2.85,15.69,15.69,0,0,1-1.74,3,98,98,0,0,1-7,8.15C198,436,196.38,452.76,196.37,459.54c0,9.57,1.88,16.67,4.79,21.95A27.7,27.7,0,0,0,212.31,492.62Z" style="fill:#00abff"/><path d="M444.6,444.32a2.65,2.65,0,0,0-1.17-.94,7.31,7.31,0,0,0-3-.47H425.25a7.36,7.36,0,0,1-4.05-1.3,6.71,6.71,0,0,1-2.55-3.09h0a.08.08,0,0,0,0,0v0h0a4,4,0,0,1-.23-.81c-.06-.32-.11-.69-.16-1.11-.09-.84-.17-1.9-.24-3.16-.14-2.5-.23-5.77-.29-9.45-.12-7.36-.12-16.38-.12-24.18,0-10.51.24-80.63.24-95.67a35.93,35.93,0,0,0-.24-4.58,10.1,10.1,0,0,0-1-3.37,3.86,3.86,0,0,0-1.08-1.31,3.91,3.91,0,0,0-2.37-.67,2.79,2.79,0,0,0-1.55.36,7.63,7.63,0,0,0-2,2.09c-1.76,2.37-4.36,6.91-8.94,15.13h0c-18.34,32.08-47.79,83.47-65.89,115.54h0c-1.26,2.24-3.08,5.44-4.71,8.62a47.88,47.88,0,0,0-3.61,8.45,6,6,0,0,0-.22,1.38,5.84,5.84,0,0,0,.49,2.68,2,2,0,0,0,1,.95,4.6,4.6,0,0,0,1.13.26,17.46,17.46,0,0,0,2,.08h63.49a8.24,8.24,0,0,1,2.65.38,5.45,5.45,0,0,1,2.08,1.23,8.28,8.28,0,0,1,2.14,4.59,30.7,30.7,0,0,1,.45,4.35c.1,2.19.1,4.72.1,7.63,0,5,0,9.48-.37,13.32s-1.1,7.1-2.67,9.72a11.47,11.47,0,0,1-4.38,4.19c-2.51,1.37-5.74,2-9.9,2a29.61,29.61,0,0,0-3.11.1,5,5,0,0,0-2.05.58,2.08,2.08,0,0,0-.73.77,4.46,4.46,0,0,0-.45,2.23,3,3,0,0,0,.44,1.7,2.57,2.57,0,0,0,1.08.88,7.82,7.82,0,0,0,3.13.53h54.07a19.41,19.41,0,0,0,2.24-.09,6.1,6.1,0,0,0,2.05-.51,2.21,2.21,0,0,0,.85-.65,2.41,2.41,0,0,0,.47-1.58,4.11,4.11,0,0,0-.57-2.33,2.85,2.85,0,0,0-1.3-1.1,8.67,8.67,0,0,0-3.5-.53,32.25,32.25,0,0,1-9.68-1.19,12.17,12.17,0,0,1-6-3.91,13.21,13.21,0,0,1-2.21-4.15,30.71,30.71,0,0,1-1.3-7.26c-.29-3.67-.29-8-.29-13,0-3.35,0-6.16.16-8.5a16.37,16.37,0,0,1,1.19-5.78,6,6,0,0,1,2.12-2.49,8.4,8.4,0,0,1,4.68-1.12h14.72a15.45,15.45,0,0,0,1.91-.09,3.88,3.88,0,0,0,1.6-.54,2.08,2.08,0,0,0,.69-.72,4.08,4.08,0,0,0,.45-2.05A3.47,3.47,0,0,0,444.6,444.32Zm-42.9-11.9c-.05,1.55-.1,2.63-.17,3.23h0a8.47,8.47,0,0,1-2.5,5.43,7.19,7.19,0,0,1-4.92,1.83H343.9a19,19,0,0,1-2.21-.09,5.68,5.68,0,0,1-2.32-.74,3.83,3.83,0,0,1-1.27-1.29,5.15,5.15,0,0,1-.65-2.72,4.08,4.08,0,0,1,.18-1.27,11.57,11.57,0,0,1,.68-1.68c.67-1.37,1.82-3.44,3.88-7,12.8-23,33.79-59.62,46.58-82.32h0c1.78-3.14,4.21-7.48,6.25-10.42A19.22,19.22,0,0,1,397,333a4.64,4.64,0,0,1,1.13-.86,2.08,2.08,0,0,1,.85-.21,2.35,2.35,0,0,1,1.46.5,2.78,2.78,0,0,1,.79,1.12,6.72,6.72,0,0,1,.35,2.37c0,7.36.48,40.29.48,46.84C402,388.68,402,421.58,401.7,432.42Z" style="fill:#00abff"/><path d="M583.75,436.49h64.53a64.21,64.21,0,0,0,6.81-.26,7,7,0,0,0,2.89-.74.86.86,0,0,0,.39-.49,1.82,1.82,0,0,0,.06-.48h0v-.05l-.06-.19a3.55,3.55,0,0,0-.33-.63,17.41,17.41,0,0,0-1.42-1.9,67.81,67.81,0,0,0-4.92-5.05,117.34,117.34,0,0,0-11.51-9.52,17.84,17.84,0,0,0-2-1.25,2.15,2.15,0,0,0-.41-.17,1.7,1.7,0,0,0-.89.17,4.08,4.08,0,0,0-1.13,1.08,98.1,98.1,0,0,0-5.28,8.39,26.86,26.86,0,0,1-2.68,4,6.62,6.62,0,0,1-2.9,2.07,10,10,0,0,1-2.44.47c-1.21.1-2.62.1-4.41.1H583.75a8.75,8.75,0,0,1-4.62-1.07,5.55,5.55,0,0,1-2.29-2.78,8.63,8.63,0,0,1-.5-2.14,22.92,22.92,0,0,1-.11-2.67c0-9.39,0-28.68-.21-37.8h0v0a30.44,30.44,0,0,1,.26-4.51,8.48,8.48,0,0,1,1-3.06,4.52,4.52,0,0,1,1.23-1.37,5.7,5.7,0,0,1,2.25-.94,20.35,20.35,0,0,1,3.87-.26h38.26c2.82,0,5,0,6.62-.12a7.55,7.55,0,0,0,3.11-.64,1.14,1.14,0,0,0,.53-.68,3.09,3.09,0,0,0,.09-.78v0l0-.12c0-.1-.11-.24-.2-.41a9.59,9.59,0,0,0-1-1.27,38.42,38.42,0,0,0-3.49-3.4c-2.83-2.48-6.41-5.21-9.29-7.25-1.92-1.36-3.54-2.43-4.37-2.89l-.29-.15-.17.07a4.17,4.17,0,0,0-.7.49,19.47,19.47,0,0,0-2,2c-1.47,1.64-3.12,3.79-4.58,5.65-1,1.24-1.85,2.36-2.57,3.15a6.07,6.07,0,0,1-1.14,1.06l0,0,0,0a6.3,6.3,0,0,1-1.81.52,19.58,19.58,0,0,1-2.4.23c-1.81.1-4,.1-6.54.1h-8a18.68,18.68,0,0,1-3.88-.29,5.23,5.23,0,0,1-3-1.73,6.15,6.15,0,0,1-1.17-2.36,18.08,18.08,0,0,1-.51-4.78V329.13a8.39,8.39,0,0,1,1.63-4.83,5.51,5.51,0,0,1,3.32-1.85,12.7,12.7,0,0,1,2.36-.18h47.08c2.35,0,4.36,0,6-.12a9.08,9.08,0,0,0,3.47-.73,1.57,1.57,0,0,0,.79-.83,2.19,2.19,0,0,0,.13-.77h0l0-.11a3,3,0,0,0-.22-.41,10.84,10.84,0,0,0-1.06-1.32,46.67,46.67,0,0,0-3.86-3.63c-3.12-2.68-7-5.67-10.17-7.92-2.09-1.51-3.83-2.69-4.71-3.21l-.24-.14-.11.07a6.37,6.37,0,0,0-.79.82,29.9,29.9,0,0,0-2.07,3c-1.46,2.4-2.93,5.21-3.87,6.84a11.54,11.54,0,0,1-.7,1.12l0,0,0,0a6.07,6.07,0,0,1-1.35,1.26,5.73,5.73,0,0,1-2.12.83,51.84,51.84,0,0,1-9.28.49H538.55c-1.51,0-2.63,0-3.49,0a5.52,5.52,0,0,1-2.06-.39,1.89,1.89,0,0,1-.92-.95,2.41,2.41,0,0,1-.17-.65,5.58,5.58,0,0,1,0-.7,6.78,6.78,0,0,1,.63-2.48,22.41,22.41,0,0,1,1.41-2.68,27.62,27.62,0,0,1,3.29-4.44h0c.22-.25.5-.51.85-.84l1.29-1.14c.94-.83,2-1.78,2.89-2.67a11.55,11.55,0,0,0,1.36-1.57,1.78,1.78,0,0,0,.26-.5h0a.78.78,0,0,0-.08-.25,3.38,3.38,0,0,0-.42-.62,13.34,13.34,0,0,0-1.84-1.72,57.32,57.32,0,0,0-6.15-4.11c-4.17-2.48-8.75-4.81-11-5.88-.1.22-.21.49-.32.8-.35.93-.71,2.14-1,3.11-.17.64-.3,1.19-.34,1.43v.07c-4.13,16.71-12,33-19.74,46.25A214,214,0,0,1,483.39,366c-.61.72-1.88,2.21-3.15,3.77a46.11,46.11,0,0,0-3.09,4.13l0,0a8.33,8.33,0,0,0,2.7-1,34.59,34.59,0,0,0,4.72-3.18,130.71,130.71,0,0,0,12.05-10.9,234.78,234.78,0,0,0,23.28-27.19h0c1.65-2.3,2.88-4,4-5.33a11.47,11.47,0,0,1,3.15-2.87,7.81,7.81,0,0,1,2.4-.86,23.51,23.51,0,0,1,4.11-.26h21.66a13,13,0,0,1,2.69.18,3.76,3.76,0,0,1,2.3,1.46,6.31,6.31,0,0,1,1,2,22.44,22.44,0,0,1,.75,4.21c.24,2.37.39,5.48.47,9.61.12,5.51.13,12.84.13,22.6a19.81,19.81,0,0,1-.23,3.49,6.43,6.43,0,0,1-1.34,3.07,5.34,5.34,0,0,1-2,1.42,10,10,0,0,1-4,.69H528a22.77,22.77,0,0,1-10.26-2.06h0c-5.83-2.41-7.77-3.13-8.86-3.31a7.74,7.74,0,0,0-.83-.07s0,.06,0,.1c0,.23,0,.57-.05,1s0,1.35,0,2.34c0,.08,0,.8,0,1.92s.07,2.69.12,4.57c.1,3.75.23,8.73.36,13.91.26,10.36.53,21.47.53,25.09,0,4.17,0,7.31-.14,9.71a14.07,14.07,0,0,1-1,5.36,4,4,0,0,1-1.9,1.89,8.83,8.83,0,0,1-3.83.6c-1.88,0-5.93-.24-10.53-.55s-9.71-.67-13.62-.91c-2.24-.14-4.1-.24-5.21-.26l.48.57,0,0,4,5.75h0a5.1,5.1,0,0,0,.55.77.64.64,0,0,0,.28.22.5.5,0,0,0,.22,0l.48,0,.9-.11,2.05-.26a8.64,8.64,0,0,1,.88-.08h0c3.74-.38,9.11-.56,14.19-.66s9.87-.09,12.4-.09h45.41a13.36,13.36,0,0,1,2.69.18,5,5,0,0,1,2.72,1.45,6,6,0,0,1,1.27,2.17,14.27,14.27,0,0,1,.62,4.62c0,6.21-.42,27.95-.63,35.62h0v0c-.16,3-.91,13.18-1.27,19.54-.12,2.12-.2,3.82-.2,4.63a6.59,6.59,0,0,0,1.4,4.2,7.28,7.28,0,0,0,2.78,2.12,4.18,4.18,0,0,0,1.34.35,10.14,10.14,0,0,0,5.29-1.62,35.29,35.29,0,0,0,5.16-4h0a4.8,4.8,0,0,0,1.46-2.75,25.34,25.34,0,0,0,.32-4.92c0-2.41-.31-9.05-.63-15.59s-.63-13-.63-15.31V445.4a19.49,19.49,0,0,1,.34-4.11,6.12,6.12,0,0,1,1.5-3,5.08,5.08,0,0,1,1.91-1.23A10,10,0,0,1,583.75,436.49Zm-21-17.74a44.88,44.88,0,0,1-.92,8.94,6.48,6.48,0,0,1-1.54,3,3.83,3.83,0,0,1-1.38.9,6.5,6.5,0,0,1-1.81.39c-.72.06-1.48.06-2.32.06h-24.6a18,18,0,0,1-2.91-.14,4.41,4.41,0,0,1-2.47-1.17,5.3,5.3,0,0,1-1.13-1.73,15,15,0,0,1-.89-3.58,74.33,74.33,0,0,1-.58-8c-.14-4.58-.17-10.66-.17-18.75,0-6,0-10.38.26-13.63s.57-5.36,1.3-6.88a4.39,4.39,0,0,1,2.13-2.16,9.41,9.41,0,0,1,4-.58H555a18.16,18.16,0,0,1,3,.16,4.69,4.69,0,0,1,2.41,1,4.47,4.47,0,0,1,1.12,1.49,10.59,10.59,0,0,1,.85,2.95,50.26,50.26,0,0,1,.48,6.29c.11,3.53.11,8.17.11,14.29C562.88,409,562.86,414.58,562.71,418.75Z" style="fill:#00abff"/><path d="M728.92,397.88a45.84,45.84,0,0,1,5.79-1.83c1.12-.28,2-.47,2.53-.54a2.46,2.46,0,0,1,.4,0,4,4,0,0,1,2.5.8,5,5,0,0,1,1.59,2.33v0h0a36,36,0,0,0,1.82,4.72,7.62,7.62,0,0,0,2.5,3.1,4.12,4.12,0,0,0,2.3.64,2.9,2.9,0,0,0,1.36-.31,3.6,3.6,0,0,0,1.07-.87,8.32,8.32,0,0,0,1.49-3.12,23.82,23.82,0,0,0,.75-6.07c0-5.4-2.57-10.4-6.11-14.64a51.85,51.85,0,0,0-11.56-10,34.63,34.63,0,0,0-5.33-2.91l-.12-.05,0,.08a7.79,7.79,0,0,0,.49.91c.41.67,1,1.44,1.42,2.12a13.18,13.18,0,0,1,.79,1.27v0c.62,1.28,1.59,3.18,2.54,5.24a54.82,54.82,0,0,1,2.54,6.23,12.76,12.76,0,0,1,.7,3.55,3.05,3.05,0,0,1-.62,1.95,3.54,3.54,0,0,1-1.67,1.12,25,25,0,0,1-5.33.89c-4.72.5-17.49,1-20.5,1a11.47,11.47,0,0,1-1.39-.07,5.05,5.05,0,0,1-1.89-.55,2.45,2.45,0,0,1-1.08-1.12,2.39,2.39,0,0,1-.22-1,4.12,4.12,0,0,1,.67-2.12,19,19,0,0,1,1.88-2.48h0a304.93,304.93,0,0,0,22-29.58h0c3.7-5.56,6.16-9.31,8-11.91a30.62,30.62,0,0,1,4-5.06,7.84,7.84,0,0,1,2.13-1.42h0a19.88,19.88,0,0,0,4.41-2.52,2.28,2.28,0,0,0,.49-.64,2.49,2.49,0,0,0,.22-1.13,1,1,0,0,0-.23-.52,6.12,6.12,0,0,0-.93-1.05,25.27,25.27,0,0,0-3.58-2.63,81.22,81.22,0,0,0-9.6-5.06,37.2,37.2,0,0,0-4.4-1.75,1.73,1.73,0,0,0-.08.27,15.89,15.89,0,0,0-.34,2c0,.4-.07.75-.07.85v.13c-1.11,8.88-5.36,20.91-9.62,31.4s-8.54,19.42-9.72,21.91l-.28.6v0l0,0c-1.72,3.42-3.08,5.93-4.25,7.79a16,16,0,0,1-3.14,3.92,5.69,5.69,0,0,1-2,1.14,9.13,9.13,0,0,1-2.8.31,39.89,39.89,0,0,1-13.74-2h0c-.65-.22-2.17-.78-3.78-1.36s-3.28-1.18-4.14-1.44l-.41-.11a.27.27,0,0,0-.13,0l-.11.12a2.25,2.25,0,0,0-.2,1h0a1.59,1.59,0,0,0,0,.23c0,.2.11.48.2.82.17.67.41,1.57.69,2.57.55,2,1.23,4.41,1.76,6.26h0c.55,1.89,1.1,4,1.69,5.88a29.34,29.34,0,0,0,1.89,4.95,4.4,4.4,0,0,0,1.27,1.62.92.92,0,0,0,.42.17h0a3.34,3.34,0,0,0,.43-.25,15.38,15.38,0,0,0,1.31-1c1-.77,2-1.67,2.74-2.2a4.9,4.9,0,0,1,.48-.34h0l0,0h0a17.49,17.49,0,0,1,4.29-1.86c1.73-.56,3.68-1.05,5.58-1.46,3.81-.83,7.36-1.37,8.52-1.49l.41,0a4.28,4.28,0,0,1,1.94.4A3.34,3.34,0,0,1,711,405.2c.68,1.24.93,2.9,1.07,5.39.09,1.65.12,3.68.12,6.16,0,1.36-.09,5.42-.24,10.92s-.34,12.4-.54,19.4c-.42,14-.88,28.34-1.06,32.44,0,.52,0,.87,0,1.07,0,.65-.07,1.76-.16,3.15s-.22,3.13-.36,4.89c-.27,3.5-.57,7.19-.69,9.09,0,.54,0,1,0,1.11a25.09,25.09,0,0,0,.28,4.2,7.91,7.91,0,0,0,1.16,3.15,4.35,4.35,0,0,0,1.42,1.31,6.55,6.55,0,0,0,3.28.73,10.86,10.86,0,0,0,4.21-.63,4.25,4.25,0,0,0,2.2-2.11,11.09,11.09,0,0,0,.89-2.84,41,41,0,0,0,.6-6.09c.14-3.33.14-7.54.14-12.8,0-7.9-.42-52.15-.42-61.8,0-4.06,0-10.58.42-15.34a27.77,27.77,0,0,1,.6-4.08,5.63,5.63,0,0,1,.6-1.61v0a5.54,5.54,0,0,1,1.88-1.7A17.81,17.81,0,0,1,728.92,397.88Z" style="fill:#00abff"/><path d="M859.25,384.56a72.35,72.35,0,0,0-7.35-6.86,42.15,42.15,0,0,0-3.45-2.6l-.06,0a11.15,11.15,0,0,0-.94,1c-.72.83-1.54,1.89-2.16,2.7-.42.55-.74,1-.94,1.2a5.1,5.1,0,0,1-1.53,1.28,7.45,7.45,0,0,1-2.34.7,73,73,0,0,1-9.72.35H774.64a4.44,4.44,0,0,1-2.2-.49,4.6,4.6,0,0,1-1.64-1.64,37.62,37.62,0,0,1-2.78-6.69h0a10.53,10.53,0,0,0-.66-1.55,5.78,5.78,0,0,0-.62-1,10,10,0,0,0-.13,2,27.85,27.85,0,0,1-.71,5.05c-.42,2-1,4.35-1.64,6.59h0c-.24.8-.74,2.22-1.39,4s-1.43,4-2.22,6.22c-1.59,4.5-3.23,9.37-3.86,12.19a8.42,8.42,0,0,0-.26,1.75,9.86,9.86,0,0,0,2,6.06,6.18,6.18,0,0,0,7.71,2,6.59,6.59,0,0,0,2.13-1.7A15.61,15.61,0,0,0,771.2,409c1.27-5.05,1.39-11.42,1.38-16.22a14,14,0,0,1,.16-2.16,5.35,5.35,0,0,1,.7-2,3.37,3.37,0,0,1,1-1,3.77,3.77,0,0,1,2.06-.54h58.65c1.12,0,2.17,0,3.15.1A6,6,0,0,1,841,388a3.82,3.82,0,0,1,1.29,1.46,6.71,6.71,0,0,1,.6,3,17.5,17.5,0,0,1-.9,5h0c-.15.41-.4,1-.72,1.75s-.69,1.59-1.06,2.46c-.75,1.73-1.52,3.58-1.81,4.57a3.11,3.11,0,0,0-.13.52.11.11,0,0,0,0,.06l.35-.33c.66-.62,1.84-1.81,4.05-3.92h0a45.94,45.94,0,0,1,6.8-5.53,16.82,16.82,0,0,1,5.85-2.38h0c1.78-.42,3.21-.76,4.32-1.09a8.23,8.23,0,0,0,2.37-1,2,2,0,0,0,.65-.68,2.79,2.79,0,0,0,.3-1.46,5.46,5.46,0,0,0-1-2.49A25.65,25.65,0,0,0,859.25,384.56Z" style="fill:#00abff"/><path d="M775.72,492.92c6.33-7.39,12.56-19,15.59-37.77h0c.17-1,.42-3,.72-5.46s.63-5.47,1-8.53c.69-6.13,1.41-12.57,1.89-15.91.14-1,.25-1.66.36-2.1a3.79,3.79,0,0,1,.12-.36,2.34,2.34,0,0,1,.28-.47c.11-.15.22-.28.35-.43s.57-.61.91-.95c.68-.68,1.48-1.45,2.15-2.15a12.55,12.55,0,0,0,1.06-1.24,2.13,2.13,0,0,0,.21-.35,2.16,2.16,0,0,0-.32-.83,9.23,9.23,0,0,0-1.14-1.47,28.44,28.44,0,0,0-4.1-3.51A38.48,38.48,0,0,0,784.6,406a7.71,7.71,0,0,0-2-.35,1.4,1.4,0,0,0-.7.14.53.53,0,0,0-.24.27,2.47,2.47,0,0,0-.16,1.06,12.2,12.2,0,0,0,.22,1.75c.13.72.29,1.54.4,2.32v.07c.21,3.16.84,8.16.84,14.65,0,12.67-1,31.06-7.2,48.54-2.75,7.85-5.79,14.08-9.88,19.29a50.39,50.39,0,0,1-16,13.15h0l0,0c-.36.17-1.31.67-2.28,1.25-.72.42-1.47.9-2,1.29h.07a24.87,24.87,0,0,0,6.65-1.4,69.11,69.11,0,0,0,7-2.7A49,49,0,0,0,775.72,492.92Z" style="fill:#00abff"/><path d="M814.46,494.32a13.58,13.58,0,0,0,3.59,6.61,11.67,11.67,0,0,0,3.86,2.39,27.37,27.37,0,0,0,7.48,1.55c3.94.37,8.73.37,14.41.37a49.6,49.6,0,0,0,11.58-1,15,15,0,0,0,6.09-3,13.84,13.84,0,0,0,3.54-4.4,10.42,10.42,0,0,0,1.33-4.45,5.24,5.24,0,0,0-.33-1.89,17,17,0,0,0-1.42-2.79h0a61.75,61.75,0,0,1-3.69-7.18,28.3,28.3,0,0,1-1.47-5.75v0h0c-.28-2-1-7.71-1.7-11.4-.07-.37-.14-.7-.21-1-.27,1.11-.64,2.81-1.17,5.31h0c-1.36,6.55-2.44,11.32-3.54,14.85s-2.2,5.83-3.74,7.39a7.7,7.7,0,0,1-3.61,2,26.62,26.62,0,0,1-6.49.52,50.31,50.31,0,0,1-5.84-.25,12.81,12.81,0,0,1-4.67-1.36,7.41,7.41,0,0,1-2.34-2,10.2,10.2,0,0,1-1.79-4.32h0v0h0a33.4,33.4,0,0,1-.47-4.47c-.12-2-.2-4.44-.26-7.11-.12-5.33-.15-11.56-.15-16.82,0-4.21,0-7.81,0-9.85,0-6.34.06-10.94.21-14.33a44.53,44.53,0,0,1,.72-7.15,8.24,8.24,0,0,1,.89-2.44,7.42,7.42,0,0,1,1.68-1.81l.06-.05.06,0a14.71,14.71,0,0,0,3.12-2.41,3.8,3.8,0,0,0,1-2.68,3.07,3.07,0,0,0-.49-1.61,6.7,6.7,0,0,0-1.48-1.65,20.68,20.68,0,0,0-5.08-2.92,48.57,48.57,0,0,0-9.71-2.91l-.33,0a5.35,5.35,0,0,0-2,.29,1,1,0,0,0-.59.48,1.3,1.3,0,0,0-.15.47,6.86,6.86,0,0,0,0,1c0,.35,0,1.06.12,2s.17,2,.28,3.12c.22,2.3.49,4.91.66,6.94.12,1.33.2,2.38.2,3h0c.64,12.41.64,34.9.64,59.14A46.39,46.39,0,0,0,814.46,494.32Z" style="fill:#00abff"/><path d="M744.28,476a5.39,5.39,0,0,0,1.25,1.8,3.1,3.1,0,0,0,2.2.77,4.17,4.17,0,0,0,2.31-.75,9,9,0,0,0,2.15-2.12,20.07,20.07,0,0,0,3-6.31,14.63,14.63,0,0,0,.61-3.66,25.24,25.24,0,0,0-2.31-9.41,69.23,69.23,0,0,0-5.68-10.48,105,105,0,0,0-13.27-16.57,20.42,20.42,0,0,0-2.35-2.05L732,427l0,0a2.79,2.79,0,0,0,.15.35c.15.32.36.75.59,1.2.47.89,1,1.87,1.28,2.41.07.15.13.25.17.35h0v.05h0c2,4.11,3.63,10.48,4.92,16.59s2.19,11.92,2.51,14.82c.41,3.12.79,5.78,1.22,8A22.77,22.77,0,0,0,744.28,476Z" style="fill:#00abff"/><path d="M761.42,321.75c-.42,0-.9-.1-1.42-.17-1-.13-2.17-.29-3-.39-.38,0-.71-.08-.94-.09.1.13.26.31.47.56l0,0,4.42,6.18a5.35,5.35,0,0,0,.68.71.59.59,0,0,0,.42.14l.43,0,.81-.1,1.83-.27c.34,0,.61-.07.86-.08h0c7.36-.49,10.58-.74,26.55-.74A5.21,5.21,0,0,1,795,328a3.79,3.79,0,0,1,1.71,2,8.1,8.1,0,0,1,.54,2,25.58,25.58,0,0,1,.22,3.68c0,4.31,0,7.55-.13,10a14.82,14.82,0,0,1-1,5.49,4,4,0,0,1-1.9,1.93,8.74,8.74,0,0,1-3.84.61c-1.5,0-4.88-.24-8.8-.55s-8.32-.67-11.75-.91c-1.9-.13-3.51-.23-4.54-.26a4.4,4.4,0,0,1,.26.39h0l4.61,6.41c.24.28.42.52.54.65s.16.16.18.17a.55.55,0,0,0,.16,0c.11,0,.46,0,.88-.06l1.48-.16c1.07-.12,2.24-.28,2.88-.41l.37-.08.11,0h.11c8.45-.5,19-.5,24.86-.5h37.42c1.84,0,3.49,0,4.89-.09a12.57,12.57,0,0,0,3.36-.55,2.92,2.92,0,0,0,1.16-.71,2.24,2.24,0,0,0,.53-1.61,4.6,4.6,0,0,0-.86-2.1,20.39,20.39,0,0,0-2.45-3,45.31,45.31,0,0,0-6.82-5.76,15.09,15.09,0,0,0-3.47-1.91,1.28,1.28,0,0,0-.33-.07,2,2,0,0,0-.86.13,1.48,1.48,0,0,0-.56.54,39.84,39.84,0,0,0-2.31,4.46h0a12,12,0,0,1-2,3.18,7.56,7.56,0,0,1-2.82,1.88c-2.17.83-4.84.93-8.64.93-1.89,0-3.35,0-4.52-.09a6,6,0,0,1-2.91-.83,3.36,3.36,0,0,1-1.17-1.44,9,9,0,0,1-.59-2.74h0c-.06-.56-.1-1.48-.13-2.66s-.05-2.6-.06-4.07c0-2.95,0-6.1,0-7.95a11.31,11.31,0,0,1,.36-3.16,4.24,4.24,0,0,1,1.35-2.19,4.15,4.15,0,0,1,1.48-.79,8.45,8.45,0,0,1,2.44-.3h34.26c2.07,0,3.83,0,5.25-.1a9.72,9.72,0,0,0,3.21-.61,2.33,2.33,0,0,0,1-.75,3.4,3.4,0,0,0,.49-2,5.5,5.5,0,0,0-1-2.72,20.21,20.21,0,0,0-2.74-3.27,54.76,54.76,0,0,0-7.31-5.88c-1.49-1-2.73-1.79-3.33-2.12l-.13-.07a1.26,1.26,0,0,0-.37.16,4.86,4.86,0,0,0-1.09,1,34.41,34.41,0,0,0-3.82,5.76h0a15.13,15.13,0,0,1-2.72,3.66,7.48,7.48,0,0,1-3.53,1.8,19.52,19.52,0,0,1-3.17.4c-1.61.08-3.54.08-6,.08h-9.25a10,10,0,0,1-2.62-.25,3.26,3.26,0,0,1-1.95-1.35,5.06,5.06,0,0,1-.64-1.6,16.13,16.13,0,0,1-.34-3c-.08-1.59-.08-3.6-.08-6.2a15.82,15.82,0,0,1,.49-4.52,6.81,6.81,0,0,1,1.43-2.56c1.5-1.76,2.49-2.92,3.12-3.75a5.35,5.35,0,0,0,1-1.64,3.39,3.39,0,0,0,.09-.88,1.59,1.59,0,0,0-.46-.95,7.78,7.78,0,0,0-1.66-1.33,31.09,31.09,0,0,0-5.74-2.6,83.08,83.08,0,0,0-10.63-3l-.31-.06a2.32,2.32,0,0,0-.68.08c-.12.05-.13.06-.18.13a.9.9,0,0,0-.11.29,3.35,3.35,0,0,0-.09,1,5.74,5.74,0,0,0,.1.81c.07.42.17.95.29,1.53.23,1.15.51,2.49.74,3.54.15.7.26,1.27.32,1.62h0a45.09,45.09,0,0,1,.94,7.5c.13,2.53.13,4.9.13,6.51,0,2.43,0,4.27-.07,5.68a9.55,9.55,0,0,1-.54,3.23,2.65,2.65,0,0,1-1.15,1.32,4.38,4.38,0,0,1-2.18.41c-10.32,0-20.65-.25-31-1h0C762.11,321.81,761.8,321.79,761.42,321.75Z" style="fill:#00abff"/><path d="M705.72,323.9a63.37,63.37,0,0,1-4.8,8.71,10.93,10.93,0,0,1-2.51,2.76,2.74,2.74,0,0,1-1.56.54,1.44,1.44,0,0,1-.54-.1,3.83,3.83,0,0,1-.45-.18c-.31-.14-.69-.33-1.13-.56-.88-.47-2-1.11-3.3-1.85-2.57-1.46-5.74-3.3-8.57-4.79a43.13,43.13,0,0,0-4.89-2.28l-.3-.1.15.19c.61.73,1.46,1.71,2.38,2.75,1.83,2.09,3.93,4.43,5,5.73.3.35.51.62.66.83h0a68.7,68.7,0,0,1,4,5.89,96.41,96.41,0,0,1,6.4,12.61c1.54,3.61,2.69,6.24,3.61,8.13a17.18,17.18,0,0,0,2.2,3.67,2.64,2.64,0,0,0,1,.74,4.86,4.86,0,0,0,1.75.21,3.13,3.13,0,0,0,2.12-.93,8.44,8.44,0,0,0,1.82-2.59,14.14,14.14,0,0,0-1-14.68c-.34-.57-.62-1-.79-1.26l-.62-.81-1-1.28c-.77-1-1.65-2.07-2.36-3.1a11.64,11.64,0,0,1-1.14-1.93,2.79,2.79,0,0,1-.28-1.1,3.42,3.42,0,0,1,.41-1.68,6.32,6.32,0,0,1,.87-1.18c.3-.42.72-.93,1.23-1.52s1.14-1.27,1.75-1.93c1.2-1.29,2.38-2.49,3-3,.65-.71,1.86-2.22,3.37-4.14s3.37-4.3,5.28-6.76c3.84-4.92,8-10.22,10.68-13.29.77-.88,1.41-1.57,1.93-2.05h0a7.06,7.06,0,0,1,1-.7c.39-.24.86-.5,1.37-.79,1-.56,2.15-1.2,3.07-1.82a7.69,7.69,0,0,0,1.39-1.13.85.85,0,0,0,.2-.29,2.33,2.33,0,0,0-.42-1.2,7.76,7.76,0,0,0-1.37-1.6,26.22,26.22,0,0,0-4.87-3.38A53.35,53.35,0,0,0,719.53,288a6.57,6.57,0,0,0-1.44-.27h-.17l0,.05a3.22,3.22,0,0,0-.18.52c-.1.34-.2.81-.33,1.44-.16.83-.36,1.93-.62,3.35h0a96.87,96.87,0,0,1-4,13.57C710.73,312.32,708.2,318.62,705.72,323.9Z" style="fill:#00abff"/><path d="M681.39,486.91c3.71-8.18,7.7-18.12,10.11-25h0v0c.24-.63.69-2,1.23-3.66s1.18-3.72,1.82-5.79c1.29-4.14,2.6-8.4,3.24-10.29a3.25,3.25,0,0,1,.28-.56c.11-.18.23-.36.37-.55.29-.38.64-.81,1-1.28.77-.92,1.68-2,2.41-2.91A12.89,12.89,0,0,0,703,435.2a2.11,2.11,0,0,0,.19-.42,1.43,1.43,0,0,0-.29-.6,8.8,8.8,0,0,0-1.16-1.25,32.91,32.91,0,0,0-4.1-3,81.54,81.54,0,0,0-9.09-5c-.59-.27-1.06-.46-1.27-.53l-.06,0-.06,0a1.36,1.36,0,0,0-.48-.09,1.63,1.63,0,0,0-.64.14.68.68,0,0,0-.34.29.46.46,0,0,0-.06.24c0,.22,0,.68.08,1.26s.11,1.28.18,2c.15,1.5.33,3.21.45,4.54.08.9.13,1.6.13,2.05,0,8.53-1.64,20.11-3.59,30.72s-4.21,20.17-5.48,24.68c-.1.41-.29,1.07-.54,1.91S676.34,494,676,495c-.53,1.8-1.1,3.69-1.43,4.92a30.42,30.42,0,0,0,1.67-2.66C677.74,494.67,679.53,491,681.39,486.91Z" style="fill:#00abff"/><path d="M943.51,466.71c-.1-.58-.25-1.3-.42-2.06-.34-1.53-.76-3.26-1.07-4.63a39.8,39.8,0,0,1-1.29-10.11,44.35,44.35,0,0,1,.51-7.23c.4-2.67,1.09-6.07,2.24-11.76v-.08a5.16,5.16,0,0,0,.11-.54c0-.27.1-.6.15-.95.11-.71.21-1.53.27-2.19,0-.43.06-.8.06-1a2.57,2.57,0,0,0-.1-.7.68.68,0,0,0-.08-.19l0,0a4,4,0,0,0-.67.57,16.51,16.51,0,0,0-1.76,2.18,44.82,44.82,0,0,0-3,5c-1.78,3.47-3.12,6.08-4.23,8a23.16,23.16,0,0,1-2.84,4.24,5.56,5.56,0,0,1-1.84,1.38,6.41,6.41,0,0,1-5.83-.48,14.09,14.09,0,0,1-3.08-2.57,35.67,35.67,0,0,1-5.87-9.19c-3.61-7.78-6.37-18.67-6.37-31.3A102,102,0,0,1,913.44,371h0c1-3.59,1.69-5.58,2-6.88a8.86,8.86,0,0,0,.43-2.73,15.34,15.34,0,0,0-.68-3.93,39.56,39.56,0,0,0-2-5.3,44.71,44.71,0,0,0-6.72-10.89,17.84,17.84,0,0,0-5.59-4.56,7.42,7.42,0,0,0-3.18-.77l-.26.07a10,10,0,0,0,.27,2.16c.23,1.11.65,2.84,1.39,5.93h0a61.6,61.6,0,0,1,1,6.45,78.12,78.12,0,0,1,.51,8.11c0,2.5-.42,8.26-.94,14.92s-1.14,14.18-1.55,20.06c-.28,3.91-.46,7.11-.46,8.78,0,17.57,3.7,32.14,9,43.48S919,465.38,925.35,470c4.26,3.1,8.29,4.62,11.33,4.61a7.62,7.62,0,0,0,4.7-1.75,6.22,6.22,0,0,0,2.29-4.92A7.46,7.46,0,0,0,943.51,466.71Z" style="fill:#00abff"/><path d="M1037.22,414.31c0-19.26-7.9-36.59-18.4-46.5h0a33.62,33.62,0,0,0-13.24-7.59,34.74,34.74,0,0,0-7.51-1.53h0a1.76,1.76,0,0,0-.68.12.82.82,0,0,0-.18.11l0,.08a5.44,5.44,0,0,0,.49.72c.46.59,1.13,1.35,1.91,2.17,1.54,1.65,3.49,3.56,5,5.09,1,1,1.87,1.87,2.34,2.43,5.66,6.64,8.55,12.72,10,19.66s1.41,14.73,1.41,25a34.26,34.26,0,0,0,.52,6.46c.52,2.72,1.58,5.52,3.49,7.22a7.54,7.54,0,0,0,5.29,1.88A8.13,8.13,0,0,0,1033,428a9.54,9.54,0,0,0,2.83-4.09A27.28,27.28,0,0,0,1037.22,414.31Z" style="fill:#00abff"/><path d="M1198.86,374.06c-6.08-3-14.73-4.72-24.6-4.72-13.14,0-24.87,3.44-31.86,6.86a25.91,25.91,0,0,0-5.25,3.24,5,5,0,0,0-1.19,1.34l0,.09.12,0a5.82,5.82,0,0,0,.8.05l.39,0,.75-.09c.58-.07,1.29-.17,2-.28,1.46-.21,3-.46,3.58-.58h0a108.59,108.59,0,0,1,15.29-1,78.33,78.33,0,0,1,13.17,1.05,14.36,14.36,0,0,1,4.11,1.36,3.76,3.76,0,0,1,1.51,1.42,2.43,2.43,0,0,1,.29,1.13,3.24,3.24,0,0,1-.41,1.44,11.53,11.53,0,0,1-.9,1.45c-.74,1-1.7,2.13-2.76,3.29-2.1,2.31-4.54,4.76-5.9,6.39a11.6,11.6,0,0,0-.76,1,8.67,8.67,0,0,0,2.49-.69c1.32-.51,3.16-1.31,5.78-2.42a47.92,47.92,0,0,1,9.79-3.53,27.63,27.63,0,0,1,6.18-.51c.71,0,2.23.1,4,.23s3.82.29,5.4.39c1,.07,1.92.12,2.34.12A9.25,9.25,0,0,0,1205,391a4.13,4.13,0,0,0,1.83-.74,3.25,3.25,0,0,0,.93-1.11,6.25,6.25,0,0,0,.6-3,10.61,10.61,0,0,0-2.46-6.75A20.38,20.38,0,0,0,1198.86,374.06Z" style="fill:#00abff"/><path d="M1143.73,347.79a14.66,14.66,0,0,0,2.83-8.62,9.12,9.12,0,0,0-.75-4,4.35,4.35,0,0,0-1.62-1.87,6.57,6.57,0,0,0-3.57-.8c-.3,0-1.22.07-2.22.15l-3,.26c-.58.05-1,.08-1.31.08a6.22,6.22,0,0,1-.95-.09c-.37-.06-.82-.14-1.33-.25-1-.22-2.3-.53-3.7-.92a52.44,52.44,0,0,1-8.7-3.22,13.37,13.37,0,0,1-4.28-3,3.2,3.2,0,0,1-.85-3.12c.06-.25.13-.52.22-.81.19-.58.43-1.24.68-1.92.5-1.34,1-2.77,1.24-3.55a3.69,3.69,0,0,0,.07-.38,2.8,2.8,0,0,0-.14-.71,7.87,7.87,0,0,0-.5-1.15,17.17,17.17,0,0,0-2-3,21.63,21.63,0,0,0-7-5.76,14,14,0,0,0-6.18-1.53,11.84,11.84,0,0,0-5,1.06,7.41,7.41,0,0,0-3,2.28,2.43,2.43,0,0,0-.53,1.35h0v.05l.06.21a6.14,6.14,0,0,0,.29.66c.27.52.66,1.16,1.11,1.85.91,1.37,2,2.89,2.94,4.06.59.78,1.06,1.38,1.3,1.74l0,.06,0,0a27.71,27.71,0,0,1,2.31,9.13,63.11,63.11,0,0,1,.32,6.66c0,.39,0,1.37-.09,2.74s-.14,3.12-.26,5A87.16,87.16,0,0,1,1099.1,351a10.05,10.05,0,0,1-.57,1.92,2.36,2.36,0,0,1-.5.78,3.89,3.89,0,0,1-1.33.83,13,13,0,0,1-1.75.53,38.75,38.75,0,0,1-4.44.7c-3.17.35-6.5.47-8.12.47a76.44,76.44,0,0,1-15.66-1.8,24.92,24.92,0,0,1-3.41-1h0a4.87,4.87,0,0,1-.69-.29l-.9-.46c-.64-.34-1.36-.73-2-1a7.2,7.2,0,0,0-.76-.32,3.4,3.4,0,0,0,.15.76,9.12,9.12,0,0,0,.51,1.31,20.57,20.57,0,0,0,2.08,3.38,26.81,26.81,0,0,0,7.69,7h0c6.68,4.05,13.82,4.31,18.2,4.31,1.89,0,3.32,0,4.44.05a7.55,7.55,0,0,1,2.64.48,2.33,2.33,0,0,1,1.13,1,3.9,3.9,0,0,1,.35,1.9v.28c0,.09,0,.23-.06.4-.05.34-.13.84-.23,1.48-.21,1.29-.54,3.17-1,5.57-.92,4.79-2.36,11.65-4.48,20a393.77,393.77,0,0,1-22,63.64h0c-4.89,10.74-6.7,14.85-7.24,17.26a8.57,8.57,0,0,0-.24,2.1,23.13,23.13,0,0,0,.44,4.44,9.43,9.43,0,0,0,1.94,4.44,3,3,0,0,0,2.29,1,6.14,6.14,0,0,0,3.25-.68c1.29-.69,3-2.16,5-5.29,4.1-6.26,9.61-19.06,16.85-44.72h0c2.21-8.05,3.35-12.09,5.29-20.88s4.67-22.32,10-49.27h0a11.66,11.66,0,0,1,1-3.17,5.15,5.15,0,0,1,2.07-2.12,13.91,13.91,0,0,1,2.17-1c1.14-.42,2.54-.85,4.33-1.41h0a107.54,107.54,0,0,0,16-6.3C1136.6,354.79,1141.05,351.62,1143.73,347.79Zm-14.1-7.17a3.89,3.89,0,0,1-.5.79,8.87,8.87,0,0,1-1.52,1.46,34.84,34.84,0,0,1-4.54,2.86,85.3,85.3,0,0,1-9.49,4.34,13.92,13.92,0,0,1-1.41.45l-.35,0a2,2,0,0,1-.94-.22,1.81,1.81,0,0,1-.71-.66,3,3,0,0,1-.35-1.55,15.92,15.92,0,0,1,.17-1.91v-.05c1-5.91,1-6.64,1.89-11.61a9.77,9.77,0,0,1,.46-1.85,3.38,3.38,0,0,1,.83-1.29,2.47,2.47,0,0,1,.84-.49,3.44,3.44,0,0,1,1.16-.17,4.1,4.1,0,0,1,.9.11c.32.07.67.17,1,.29a26.54,26.54,0,0,1,2.57,1,46.81,46.81,0,0,1,5.8,3,19.41,19.41,0,0,1,3.07,2.25,4.82,4.82,0,0,1,1.06,1.37,2.13,2.13,0,0,1,.23.93A2.32,2.32,0,0,1,1129.63,340.62Z" style="fill:#00abff"/><path d="M1141.48,489.79c11.11,6.29,26.57,8.84,43.5,8.83,5,0,9.22-.1,12.65-.39a29.49,29.49,0,0,0,8-1.55,7.35,7.35,0,0,0,2.79-1.79,5.19,5.19,0,0,0,1.23-3.67,8.57,8.57,0,0,0-1.45-4.83,12.42,12.42,0,0,0-3.8-3.57,21,21,0,0,0-10.56-3c-.58,0-1.65.06-3,.16s-3,.24-4.71.39c-3.49.3-7.43.67-10.52.91-2.07.16-3.73.27-4.7.27a70.27,70.27,0,0,1-19.78-2.66c-6.68-2-13-5.33-17.72-10.72a29.5,29.5,0,0,1-6.56-13.58c-.06-.2-.13-.51-.23-1s-.25-1-.4-1.65a25.49,25.49,0,0,0-1-3.22.7.7,0,0,0-.06.09,8.17,8.17,0,0,0-.82,2.14,30.32,30.32,0,0,0-.81,7.31c0,7.64,1.74,13.92,4.83,19.08A34.91,34.91,0,0,0,1141.48,489.79Z" style="fill:#00abff"/><path d="M1289.69,498.74a2,2,0,0,0,.88.37,18.45,18.45,0,0,0,3.64.22,76.15,76.15,0,0,0,33.17-7.82c10.2-5,18.88-12.34,24.17-21.31a39,39,0,0,0,5.56-20.06,38.42,38.42,0,0,0-10.52-26.32,36.73,36.73,0,0,0-26.95-11.49,35.1,35.1,0,0,0-16.91,4.09c-5.17,2.66-10.33,6.58-16.74,11.52l0,0h0c-.78.55-2.15,1.54-3.77,2.56a31.1,31.1,0,0,1-5.35,2.77,10.41,10.41,0,0,1-3.65.78,5.11,5.11,0,0,1-3.78-1.55,8.35,8.35,0,0,1-1.88-3.46,26.8,26.8,0,0,1-.8-7.36c0-3.16.42-9.95,1-17.13s1.24-14.73,1.77-19.32h0c.18-1.53.69-5.17,1.2-9s1-7.77,1.23-9.9c0-.6.08-1.07.08-1.27,0-.35,0-1.05-.13-1.94s-.2-2-.33-3.11c-.25-2.31-.56-4.92-.77-6.95-.14-1.36-.24-2.43-.24-3.08a18.17,18.17,0,0,1,4.49-12.36,15.28,15.28,0,0,1,11.44-5,26,26,0,0,1,10.26,2.55h0c7.08,3,9.46,3.83,10.78,4a7.32,7.32,0,0,0,1.24.09,9.18,9.18,0,0,0,4.31-1,9.43,9.43,0,0,0,3-2.64,12.49,12.49,0,0,0,2.4-7.19,14,14,0,0,0-1.79-6.45,30,30,0,0,0-4.64-6.32,60.22,60.22,0,0,0-12.46-9.95,29.64,29.64,0,0,0-6-3l-.22-.06a3.32,3.32,0,0,0,.17.79,10,10,0,0,0,.41,1,36.45,36.45,0,0,1,2.61,5.29,17.78,17.78,0,0,1,1.06,6.28,11.14,11.14,0,0,1-1.08,5.06,11.69,11.69,0,0,1-3.29,3.93c-2.89,2.35-7.13,4.39-13,7.24h0c-8.66,4.13-13.07,9.19-15.48,14.26s-2.77,10.25-3.08,14.57h0c-.24,3.47-1.1,12-2.08,21.89s-2.08,21.1-2.8,29.89c-.48,5.85-.8,10.65-.8,13.17a54.21,54.21,0,0,0,2.67,17.81c1.68,4.75,4,8.19,6.68,10.14a9.36,9.36,0,0,0,5.63,1.95,9.55,9.55,0,0,0,4.22-.81,11.45,11.45,0,0,0,3.65-2.95c2.57-2.93,5.57-8,10.4-16h0c4.7-8,9.82-12.81,14.75-15.56a27.08,27.08,0,0,1,13.44-3.47,26.31,26.31,0,0,1,9.61,1.91A21.88,21.88,0,0,1,1338.51,430c1.93,3.95,3.15,9.07,3.15,15.68,0,11.91-5.07,22.86-13.44,31.66s-20,15.48-33.3,19c-.51.17-1.27.39-2.1.67a22.56,22.56,0,0,0-2.41.93,4,4,0,0,0-.87.55l0,.1Z" style="fill:#00abff"/><path d="M1677.7,399.32v10.91H1391.44V399.32Z" style="fill:#00abff"/></svg>