<svg id="レイヤー_1" data-name="レイヤー 1" xmlns="http://www.w3.org/2000/svg" viewBox="0 0 1194.63 652.73"><title>copy_base</title><rect x="1.63" y="307.73" width="1193" height="116" style="fill:#c8ff00"/><path d="M62.77,66.61c1.24.74,2.85,1.49,2.85,2.72,0,.75-.62.87-2.23,1.24-1.11.25-1.36.74-2.35,1.86C54.72,79.61,53.24,81,52,82A88.89,88.89,0,0,0,70.2,92l-5,9.66a95.66,95.66,0,0,1-11.76-8.17c.61,13.86-6.69,15-18.2,15l-3-8.92a32.22,32.22,0,0,0,4.21.37c5.2,0,7.19-2.47,7.19-6.19A18.9,18.9,0,0,0,42.84,88a83.34,83.34,0,0,1-20.93,14.73l-5.69-6.31C24.76,92.73,33.55,87.78,40,81.34a36.62,36.62,0,0,0-2.1-3.46A77.29,77.29,0,0,1,21.54,89.27l-4-4.09A171.22,171.22,0,0,1,12,108.71L0,104C4.46,93,7.92,80.85,7.92,55c0-21.29-.49-28.6-1-35.78H26V0L36.52.37c3.1.13,4.34.13,4.34,1a1.31,1.31,0,0,1-.62,1.12c-1.36.86-2,1.23-2,2.47h22v9.16H38.38v5.08H67.6V39.5h-11V27H37.64v5.45l14.61-2.11.37,5.33-15,2.6c0,2.72,0,4.21,3.34,4.21h2.85c2.72,0,5.32-2.73,6.81-6.19l7.06,5.94c-3.6,5.32-5,7.43-10.78,7.43H33.06c-3.84,0-6.07-2.35-6.07-6.07V39.87L19.93,41V52.87H67.6v8.91H44.82C43.21,63.14,42.1,64,39.37,66a52.74,52.74,0,0,1,7.68,8.79A81.71,81.71,0,0,0,56.33,63ZM19.31,71.93c-.37,4.34-.61,6.81-1.23,10.65a63,63,0,0,0,15.84-9.53c-.74-.75-1.23-1.24-2.22-2.11-2.85,1.61-4.59,2.6-9,4.71Zm.62-10.15c-.24,3.47-.37,5.7-.37,7.06a40.42,40.42,0,0,0,13.5-7.06ZM27,34.05V27H19.93v8.17ZM71.56,83V14l9.54.62c3.59.25,4.58.25,4.58,1.36a4.61,4.61,0,0,1-1.24,2.11c-1,1.23-1.24,1.61-1.24,2.6V83Zm7.31,13.13a59.38,59.38,0,0,0,6.06.74c6.44,0,6.44-3.72,6.44-6.93V.25L102,.87a32.06,32.06,0,0,1,4.21.37.67.67,0,0,1,.49.74,7.31,7.31,0,0,1-1.48,3,2.92,2.92,0,0,0-.62,2V95.21c0,12-5.7,12.88-21.05,13.87Z" style="fill:#1a1a1a"/><path d="M210.93,101.9H136.15v5.2H123.39V4.58H223.68V107.1H210.93Zm0-11.4V16H136.15V90.5ZM194.46,75.65c0,11.64-9.16,11.64-18.32,11.64L171.43,74.9c1.74.13,6.69.38,7.8.38,2.36,0,3.22-1.24,3.22-4.09V44.08H140.36V32.44h42.09V18.57l12.63,1c1,.13,2.23.25,2.23,1.36a1.43,1.43,0,0,1-.62,1.12c-1,.74-2.23,1.61-2.23,2.1v8.3h12.88V44.08H194.46ZM159.92,49.52a88.79,88.79,0,0,1,12.26,17.34l-10.4,6.68a77.65,77.65,0,0,0-11.89-17.7Z" style="fill:#1a1a1a"/><path d="M241.37,87.53c13.12-5.07,50.76-19.68,65.12-75.89l12.38,4.08c1.49.5,4.58,1.49,4.58,2.85,0,.62-.74.87-1.36,1.12-2.1,1-2.23,1.23-3.09,3.83-16.22,47.55-44.45,64.76-66.37,75.16Z" style="fill:#1a1a1a"/><path d="M426,47.42V61.16H337.12V47.42Z" style="fill:#1a1a1a"/><path d="M507.86,110.07A180.23,180.23,0,0,0,447.31,83L451,68.84c20.43,5.32,41.6,13.25,63.39,27.24Zm-7.18-78.25c-18.45-11.76-36.53-15.6-47.42-17.58L455.61.37c11.51,2.48,33.18,7.8,50.27,18.2Zm-.37,34.67C483.1,55.84,466.26,51.26,456.6,48.78l2.85-13.37a183,183,0,0,1,46.18,18.94Z" style="fill:#1a1a1a"/><path d="M622.4,47.42V61.16H533.51V47.42Z" style="fill:#1a1a1a"/><path d="M646.34,47.54a113.52,113.52,0,0,0-12-24.14l12.51-5.08c5.57,7.56,9.65,16.59,12.5,24.27Zm5.7,44.7C696.36,74.16,705.65,42.1,711.46,13l13,4.21c1.24.37,3.84,1.24,3.84,2.48s-1.11,1.48-1.73,1.61c-1.12.37-1.12.49-1.49,1.73-11,38.26-25,62-61.41,80Zm22.65-51.38a87.3,87.3,0,0,0-10.4-24.76l12.14-5c5.2,7.06,9.78,20.8,11.26,25.26Z" style="fill:#1a1a1a"/><path d="M754.79,82.21c13.5,5,20.68,12.63,24.39,17.46l-9.41,9.41C763.83,99.3,758.5,95.33,750,89.27Z" style="fill:#1a1a1a"/><path d="M63.89,158.3c.49.12,1.85.37,1.85,1.48,0,.87-.62,1-2.23,1.37-.86.12-1.23,1.11-1.48,1.73s-1.24,4-1.61,4.58h46.43v10.65H56.21a84.83,84.83,0,0,1-5.57,10.15H57.2v-7.55l9.66.25c3.22.12,3.59.12,3.59,1,0,.37-1.49,1.73-1.74,2a2.54,2.54,0,0,0-.37,1.36v3H83.57v-7.55l9.66.25c3.22.12,3.47.12,3.47,1,0,.37-.13.49-1.12,1.73a2.23,2.23,0,0,0-.62,1.61v3h11.89v10H95v31.08h12.88v9.9H88.52A97.33,97.33,0,0,0,107,255.37l-8.91,8.54a123.51,123.51,0,0,1-19.19-17.83l6.56-6.81H68.1L75,244.72a1.69,1.69,0,0,1,.74,1.24c0,.74-.62,1-2.23,1.36-1,.12-1.85.86-3.46,2.35a81.27,81.27,0,0,1-18.95,13.5l-9-8.3c11.88-5.32,17.95-10.77,22.4-15.6H45.81v-9.9H57.2V198.29H47.91v-10h.38l-7.43-4.09v1.49H26.12c0,1.86-.37,9.66-.37,11.27H42.84c-.62,17.83-1.61,43.83-4.83,54.84-2.72,9.54-8.17,10.53-17.95,10.78L18,250.91a24.48,24.48,0,0,0,3.84.37c2.72,0,4.95-1,6.07-5.2,1.61-5.57,3.22-28.72,3.71-37.39H25.38c-3.47,25.5-8.42,41.23-13.87,54.1L0,258.21c5.7-11.39,14-31.69,14.11-72.55H2.1V174.39H15.85V156.32l10.89.62c3.59.24,4,.24,4,1.36,0,.62-.25.87-1.49,2A2.13,2.13,0,0,0,28.6,162v12.38H40.86V181C49,170.43,51.26,159.17,52,155.7Zm19.68,45.31v-5.32H68.34v5.32ZM68.34,216.37H83.57v-5.45H68.34Zm0,13H83.57v-5.7H68.34Z" style="fill:#1a1a1a"/><path d="M158.27,211c-7.06,3.72-7.8,4.09-11.26,5.82v29.22c0,17-9.54,17.21-18.95,17.46l-7.43-15.48h9.54c3,0,4.45-.87,4.45-4.08V222.56c-1.6.74-8.91,3.46-10,4.21-.5.61-.87,1.36-1.37,2a1.31,1.31,0,0,1-1.11.86c-1.11,0-1.73-1.23-2.11-4.08l-1.23-11a164.65,164.65,0,0,0,15.84-5.08V187.64H119.4v-12h15.22V157.18l9.79.62c3.46.25,6.43.5,6.43,2.36,0,.86-1,1.48-2.84,2.47-.87.5-1,1.24-1,2.23v10.77h13.74v12H147v16.84c4.45-2,6.68-3.1,11.26-5.45ZM148,237.91A60.59,60.59,0,0,0,170.78,214h-8.17V203.74h63.51V214H182.54c-.87,1.86-1.36,2.73-2.6,5.08h44.69c-.37,7.68-2.22,29.09-5.07,35.41-3.72,8.54-11.89,8.79-19.81,8.91l-4.95-12.75c-6.44,8-9.78,10.65-11.64,12l-11.27-4.83c10.77-6.81,18.7-17.33,23.53-29.22h-5.08a85.7,85.7,0,0,1-26.87,31.82L154.06,254c2.85-1.73,17.09-10.52,24.76-25.38h-5.07a73.49,73.49,0,0,1-14.61,15.6Zm18.44-79h54.11v39.49H166.44Zm11.64,15.35h30.71V168.2H178.08Zm0,15.23h30.71v-6.69H178.08Zm25.51,60.17c3.22,0,6.06-.62,8.29-21h-4.83c-2.84,8.17-6.68,14.36-11.88,21Z" style="fill:#1a1a1a"/><path d="M251.76,256.23a125.42,125.42,0,0,1-9.54-46.92,185.67,185.67,0,0,1,4.09-35.54c1.61-7.67,1.85-8.66,2.35-11.51l12,3.1c1.61.37,3.47,1.23,3.47,2.22,0,.5-2.36,2-2.73,2.48-1.85,3.22-6.93,20.31-6.93,41.48a64.32,64.32,0,0,0,2.85,20.55,74.22,74.22,0,0,1,4.58-12l8.42,5.32c-2.85,7.68-5.7,15-6.69,28ZM275.9,190a76,76,0,0,0,12.87,1.12A92.79,92.79,0,0,0,304,189.62c-.37-4.21-1.61-18.45-3.46-27.85l13.62,1c2.1.12,4.33.49,4.33,1.73,0,.49-1.49,2.23-1.73,2.6s-.38.87-.38,5.94c0,3.22.13,6.56.5,13.74A139.26,139.26,0,0,0,333.59,181l.5,13.74c-1.24.12-2.85.49-16.72,4.21.13,2.1.5,9.53.5,14.61,0,27.61-8.42,39.12-18.45,51.63l-13.12-7.31c10.52-10.15,18.94-18.32,18.94-44.57,0-4.58-.25-8.91-.37-11.64a117.84,117.84,0,0,1-26.5,1.86Zm49.52-20.92A60.16,60.16,0,0,0,317,155.82l6.07-4a48.33,48.33,0,0,1,9,13Zm14.24-2.48a78.61,78.61,0,0,0-8.17-14l5.94-3.59a35.81,35.81,0,0,1,9.16,13.87Z" style="fill:#1a1a1a"/><path d="M387.46,171.3c1.85,1,2.84,1.73,2.84,2.85,0,1.36-.86,1.61-3.59,2.35-1.48.37-1.85,1-3.09,3.34-12.13,22-26,32.81-30.83,36.65l-11.14-9.41c10-6.93,24.39-18.7,32.68-42.71ZM434,263.54a71.57,71.57,0,0,0-6.19-11.39c-14.61,2.23-57.2,9-67,10a3.38,3.38,0,0,0-2.35,1.74,1.41,1.41,0,0,1-1,.37c-1.36,0-1.36-.87-2.1-3.59l-3.59-14c3.59,0,13.49-.5,17.58-.74,5.32-11.39,15.72-38.39,20.18-53.74l15.73,4.71c1.11.37,2.22.74,2.22,2,0,1.61-2,2-3.59,2.23-1,.12-1.11.49-2.23,3.09C395.75,218,388.32,234.94,383.37,245c28.85-2.6,32.07-2.85,37.39-3.47a149.75,149.75,0,0,0-15.72-22l11.39-7.8c8.29,9.91,23,31.32,29.71,44.08Zm-13.12-103c1.36,16,8.66,28.1,31.94,44.94l-10.4,9.66c-22.91-15.6-28.35-29.22-32.07-42h-17V160.53Z" style="fill:#1a1a1a"/><path d="M465.8,187a76.07,76.07,0,0,1,19.44,11.89l-6.69,10.77c-11-8.05-15.1-10.15-19.44-12Zm23.65,38.75c-3.72,10-4.46,11.64-14.12,32.32a4.29,4.29,0,0,0-.62,2.23c0,.49,0,2-1.11,2a9,9,0,0,1-2.48-.62l-11.64-6.56c10.9-14.24,16.84-28.73,19.57-35.66Zm-16.72-67.6a72.94,72.94,0,0,1,17.33,12.26l-7.67,9.66a80.15,80.15,0,0,0-16.59-11.52Zm72.8,83a89.52,89.52,0,0,0,25.26,11.14l-7.06,10.65a109.38,109.38,0,0,1-28.35-14l6.07-7.8H520.77l5.45,5.69c2.1,2.23,2.35,2.48,2.35,3,0,.87-1.24.87-1.61.87-2,0-2.23.12-3.34.74-10,6-14.37,8.3-25.14,11.89L489.2,254a82.54,82.54,0,0,0,26.74-12.87H498v-42h27.24v-5.7H508.14v-9.29h44.45v9.29H536.74v5.7h27.49v42Zm22.53-74v23.15H555.81v-12.5h-51v12.5H492.42V167.09h31.32V156.32l12.26.74c2.72.12,3.59.25,3.59,1.61,0,.74-.25.87-1.74,2a2.52,2.52,0,0,0-1.11,2.48v4Zm-58.19,48.53h15.36v-7.3H509.87Zm0,16.35h15.36v-7.8H509.87Zm26.87-23.65v7.3h15.48v-7.3ZM552.22,232v-7.8H536.74V232Z" style="fill:#1a1a1a"/><path d="M610,252a12.63,12.63,0,1,1-12.63-12.63A12.58,12.58,0,0,1,610,252Zm-21.54,0a8.92,8.92,0,1,0,17.83,0,8.92,8.92,0,0,0-17.83,0Z" style="fill:#1a1a1a"/><path d="M7.18,308.18h43v11.26H18.45V424.31H7.18Z" style="fill:#1a1a1a"/><path d="M113.65,315.24v44.07H81v59.8H68.22V315.24Zm-12,10.27H81v7.31h20.68Zm0,15.85H81v8.05h20.68Zm65.86,65.12c0,8.79-1.48,11.89-21.79,12.26l-6.44-14.11h10.9c4.58,0,4.58-2.73,4.58-4.59V359.31H121.83V315.24h45.68Zm-12.75-81H134.08v7.31h20.68Zm0,15.85H134.08v8.05h20.68Z" style="fill:#1a1a1a"/><path d="M181.89,411.68c14.74-11.51,22.54-19.93,30.58-34.79-4.7-5.2-8.91-8.17-15.23-12a93.54,93.54,0,0,1-5.69,8.92l-10.4-5.95c5.82-8.66,17.7-30.08,19.81-53.73l14.73,2.48c.62.12,2.11.37,2.11,1.61,0,.86-.25,1-2.36,2.35a2.65,2.65,0,0,0-1.23,1.86c-1.74,5.69-2.36,7.55-3.22,10.27h24.14c-.62,11.39-1.36,15.6-1.86,18.45l8.3-6.19c1.24,1.73,1.61,2.23,5.2,7.06V314.24l13.74.75c.74.12,3.22.12,3.22,1.73,0,.74-.37,1-3.34,2.72a1.63,1.63,0,0,0-.87,1.49v43.33c10,8.05,17.46,12.26,29.1,17.34l-7.68,12.13a159.85,159.85,0,0,1-21.42-13.62v40.12H246.77V369a133.34,133.34,0,0,1-13.87-15.85c-3,14.36-11.26,43.95-41,66.61Zm24.76-67.35c-.74,2.11-1.36,3.84-4.08,9.91a42.2,42.2,0,0,1,14.86,10.27,94.08,94.08,0,0,0,4.7-20.18Z" style="fill:#1a1a1a"/><path d="M368.67,329.72c-6.94,9.78-7.68,10.9-9.29,12.88,3,.24,3.34.24,3.34,1.36s-.74,1.73-2,2.6a3.28,3.28,0,0,0-1.61,2.85V420.1H345.39V358.57c-13.25,13.12-23.77,20.68-39.87,28.47l-8.66-11.39c35-15.84,47.66-35,54.6-45.93h-51V317.34H404.69v12.38Zm.49,14.49c17.21,12,27.49,22.16,36.52,33.05l-10.52,10.4c-12.26-15.35-22.53-24.63-33.68-33.05Z" style="fill:#1a1a1a"/><path d="M513.9,371.69c1.49,0,2.35.13,2.35,1.24,0,.62-.49,1.11-1.48,1.86-.75.49-.62,1-.62,1.73v43H501.27v-7.3h-69v7.3H419.43V371.57l11.64.62c1.49.12,3.59.12,3.59,1.48,0,.62-.62,1.24-1.73,2.11a1.78,1.78,0,0,0-.62,1.48V399.8h27.86V364.51H422.78v-43.7l13.37.49c.74,0,2.23.37,2.23,1.24,0,.62-.75,1.24-1.74,2-.74.5-.74.74-.74,1.49v26.12h24.27V313.87l13.37.5c1.61,0,2.72.37,2.72,1.48,0,.62-.74,1.24-2.23,2.11a2.07,2.07,0,0,0-.86,1.86v32.31h23.77V321.18l13.49.74c1.86.12,3.35.12,3.35,1.24,0,.87-.75,1.36-2.6,2.1-1.24.5-1.24,1-1.24,1.74v37.51H473.17V399.8h28.1V371.32Z" style="fill:#1a1a1a"/><path d="M619.68,413.66c-7.18.38-15.6.62-20.68.62-26.87,0-30.46-4-30.46-16.71V371.44H532.39V358.69h36.15V336.16H544.28V323.28h72.05v12.88H581.67v22.53h43.21v12.75H581.67v19.44c0,9.66,2.6,10,13.74,10a159.7,159.7,0,0,0,24.27-1.61Z" style="fill:#1a1a1a"/><path d="M644.3,359.93v-12.5H712c1.86,0,3.47,0,7.43-3.84l12.38,11.76c-5.57,3.71-6.68,5.69-8.54,10.52-11.64,29.47-28.6,44.45-53.86,54.36L657.54,410c30.83-10.65,44.58-24.27,52.62-50Zm70.82-39.49v12.5H656.06v-12.5Z" style="fill:#1a1a1a"/><path d="M780.57,349.65a123.12,123.12,0,0,1,40.36,27.24l-9,12.51c-14.73-16.84-26.12-21.79-35.78-26.13V417H762.49V316.84l11.15,1.86c3.71.62,5.07,1.12,5.07,2.11,0,.62-.62,1.23-1.11,1.61-1.49,1.23-1.49,1.36-1.49,2.1V357.7Z" style="fill:#1a1a1a"/><path d="M847.47,319.07l11.14.62c4,.25,5.45.5,5.45,1.61,0,.62-2.48,3-2.48,3.72v53H847.47Zm50-1.61,12.38.62c3.22.13,4.83.13,4.83,1.86,0,.5-.74,1.11-1.86,2.1-.87.87-.87,1-.87,3.22,0,10-.74,37-1.73,45.94-3.59,30.58-27.11,42.84-38.13,48.53L862.2,407.6c17.34-6.07,35.29-16.72,35.29-53.12Z" style="fill:#1a1a1a"/><path d="M935.12,339.38V326.75H1018c1.61,0,3,0,6.56-2.72l10.28,12.25c-4.09,2.6-4.58,3.35-9.41,10.28-12.38,18.08-19.19,24.51-25.38,30.09l-10.4-8.8c12.75-10.89,18.69-20.55,23.77-28.47Zm8.79,69.21c28.48-20.31,31-37.76,31.33-65.37l12.75.62c3.34.12,4.08.37,4.08,1.48,0,.62-.37,1.12-1.48,2s-1.49,1.36-1.49,3.72c0,7.18-2.6,23.52-5.94,31.57-7.18,17.58-16.59,25.87-26.37,34.54Z" style="fill:#1a1a1a"/><path d="M1081.9,322.29c5,1.49,5.58,1.49,5.58,2.73a1.83,1.83,0,0,1-.5,1.11c-.37.25-2.23,1.11-2.48,1.36-1.6,1.36-23.77,60.05-25.75,65.37,15.23-1.85,29.22-3.71,45.19-6.56-7.3-11.64-11.88-16.34-14.48-19.19l11.76-7.06c13.12,14.74,21.67,28.85,27.73,44.7l-13.24,7.06a110.7,110.7,0,0,0-6.07-14.74c-23.77,4.46-27.61,5.08-62.53,11-6.56,1.12-7.3,1.24-8.17,1.61-.49.25-2.6,2.85-3.34,2.85-1,0-1.73-2-2-3.1l-3.84-14.23c2.23,0,4.58,0,15.48-1,9.28-24.27,18.69-51.63,24.76-75.4Z" style="fill:#1a1a1a"/><path d="M1190.11,425.05h-43V413.79h31.69V308.92h11.27Z" style="fill:#1a1a1a"/><rect x="1.63" y="527.73" width="780" height="54" style="fill:#fff"/><rect x="1.63" y="598.73" width="438" height="54" style="fill:#fff"/><path d="M16,535.76l-.63,8.71h7.87l.57-8.71h3.28l-.62,8.71h6.62v5.94h-7l-.57,8.75h6.67v6H25.1l-.62,8.64H21.25l.57-8.64H14l-.62,8.64H10.15l.57-8.64H4.1v-6h7l.62-8.75H5.09v-5.94h7.09l.62-8.71Zm-1,14.65-.57,8.75h7.82l.62-8.75Z"/><path d="M74.6,559.94c-1,.06-2.71.21-4.64.21a34.93,34.93,0,0,1-5.26-.36,27.27,27.27,0,0,0-.63,4.84c0,4.54,3.13,6.46,7.09,6.46,6.51,0,10-4.53,10-8.7,0-2.71-.94-4.74-2.92-7.76L83,551.87c2.09,3.64,3.49,7.24,3.49,11.25,0,7.09-5.31,13.24-15.53,13.24-9.48,0-12.66-6.15-12.66-10.79a28.62,28.62,0,0,1,1-6.77,42.75,42.75,0,0,1-7-2l1-5.88a28.15,28.15,0,0,0,7.4,2.81c.68-2.4,1.77-5.73,2.29-7.29-3-.58-5-1.1-8.23-2l.83-5.93c1.51.83,3.49,1.82,9.12,3a94.24,94.24,0,0,0,3.34-10.53l5.52,2.6c.47.21,1.36.68,1.36,1.1,0,.26-.42.42-1.1.73-.47.21-3,5.78-3.44,6.88.58,0,2,.15,3.08.15a34.83,34.83,0,0,0,4.32-.36l-1.46,5.63a78.83,78.83,0,0,1-7.92-.47c-1.2,3.23-1.82,5.21-2.45,7.34.94.06,2.4.16,4.48.16a26.19,26.19,0,0,0,5.68-.57Z"/><path d="M129.61,560.05c-4,8.91-10.73,15.21-19.54,15.21-10.37,0-10.79-8.65-10.79-13.91,0-3.13.52-18.5.52-22,0-2.29-.1-5-.2-6.15l6.46,1.2c1.14.21,1.51.26,1.51.83a.57.57,0,0,1-.16.42c-.1.16-.57.37-.62.47-.68.62-2.24,15-2.24,23.87,0,5.1.41,9.58,6,9.58,8.54,0,12.56-8.91,14.38-12.92Z"/><path d="M159.92,559.94c-1,.06-2.71.21-4.64.21a35.17,35.17,0,0,1-5.26-.36,27.3,27.3,0,0,0-.62,4.84c0,4.54,3.12,6.46,7.08,6.46,6.52,0,10-4.53,10-8.7,0-2.71-.94-4.74-2.92-7.76l4.84-2.76c2.09,3.64,3.49,7.24,3.49,11.25,0,7.09-5.31,13.24-15.52,13.24-9.49,0-12.67-6.15-12.67-10.79a28.14,28.14,0,0,1,1.05-6.77,42.56,42.56,0,0,1-7-2l1-5.88a28.45,28.45,0,0,0,7.4,2.81c.68-2.4,1.77-5.73,2.3-7.29-3-.58-5.06-1.1-8.24-2l.84-5.93c1.51.83,3.49,1.82,9.12,3,.93-2.61,3-8.29,3.33-10.53l5.52,2.6c.47.21,1.36.68,1.36,1.1,0,.26-.42.42-1.1.73-.47.21-3,5.78-3.44,6.88.58,0,2,.15,3.08.15a34.83,34.83,0,0,0,4.32-.36l-1.45,5.63a78.87,78.87,0,0,1-7.93-.47c-1.19,3.23-1.82,5.21-2.44,7.34.93.06,2.39.16,4.48.16a26.29,26.29,0,0,0,5.68-.57Z"/><path d="M215.63,571.77c-4.43.42-10.32,1-16.63,1-10.73,0-16.78-1.82-16.78-8,0-4.28,3-7.45,5-9.49l4.06,3.7C189.1,560.88,188,562.5,188,564c0,1.82,1.46,3.28,11,3.28,9,0,13.4-1,16.1-1.72Zm-2.77-31.42a53.54,53.54,0,0,0-12.29,9.17l-3.86-4.11a24.93,24.93,0,0,0,4.27-3.5c-8.23,0-8.33,0-14.64-.15l-.83-6.2a81.42,81.42,0,0,0,13.28,1,61.08,61.08,0,0,0,11.57-1Z"/><path d="M245.27,569.69c3.28-.94,13.71-3.81,13.71-15.69s-9.91-13.23-13-13.7a86.2,86.2,0,0,1-6.46,24.75c-.52,1.2-3,6.88-6.1,6.88s-10.73-4.59-10.73-15c0-11.46,9.22-21.57,22.46-21.57,12,0,19.64,7.76,19.64,18.71,0,14.59-11.72,19-15.63,20.42Zm-17.4-12.77c0,4.64,2.65,8,4.48,8,1.14,0,2.08-2.14,2.76-3.7a64.33,64.33,0,0,0,5-20.38C229.17,544.62,227.87,553.33,227.87,556.92Z"/><path d="M291.64,541.6v-9.79l5.27.57c1,.1,1.61.26,1.61.83,0,.26-.1.47-.57.89s-.58.52-.58,1.61v5.89H314.1v5.06H297.37v8.85h11.78v4.9H297.37v10.16h19v4.95H271.58v-4.95h20.06V560.41h-12.3v-4.9h12.3v-8.85h-11a55.66,55.66,0,0,1-5.21,8.33l-5.53-3a43.86,43.86,0,0,0,9.54-19l5.16,1.46c1.09.32,1.56.63,1.56,1.15,0,.36-.1.36-1,.73-.37.15-.42.36-.73,1.2-.73,2.19-1,2.91-1.51,4.06Z"/><path d="M323.32,544.57a63.66,63.66,0,0,1,8.44,5.58l-3.23,4.22a62,62,0,0,0-8.18-5.47Zm9.8,16.73c-.89,2.71-1.2,3.59-4.33,11.67a9.17,9.17,0,0,0-.73,2.45c0,.21.05.57.05.78,0,.52-.2.78-.57.78a4.57,4.57,0,0,1-1.72-.73l-4.32-2.45a65.62,65.62,0,0,0,7.08-14.9Zm-7-30.07a49.53,49.53,0,0,1,7.87,4.59l-3,4.37a43.49,43.49,0,0,0-7.56-4.32ZM353,544.68h14.07v4.74H353v6.35H363.6v20.17h-5.31V573.6H342.44v2.34h-5.31V555.77h10.52v-6.35h-13v-4.74h13V539.1c-3.49.42-5,.63-9.64,1l-2.29-4.79c14.59-.84,21-2.82,24.34-3.86l3.38,3.65a9.12,9.12,0,0,1,1.2,1.46c0,.31-.26.47-.62.47-.21,0-1.25-.27-1.46-.27s-8.5,1.46-9.54,1.67Zm5.27,15.42H342.44v9.17h15.85Z"/><path d="M372.53,571.88a50.57,50.57,0,0,0,10.22-21.26,53.47,53.47,0,0,0-8.29,2.65l-1.93-6.2c3.6-.47,4.38-.62,11.21-2a62.06,62.06,0,0,0,.52-11.31l5.31.89c1.77.31,2,.31,2,.73a.69.69,0,0,1-.26.52c-.1.16-.78.63-.83.78-.37,2.4-.78,5.42-1.1,7.19a30.21,30.21,0,0,1,5.37-.67c6.15,0,7,5,7,10.37a45.48,45.48,0,0,1-2.08,13.49c-.68,2-2.29,7-9.22,7a11,11,0,0,1-4.17-.79l-.26-5.62a17.6,17.6,0,0,0,4.53.88c1.88,0,2.76-.94,3.59-2.86a31.83,31.83,0,0,0,2.25-11.62c0-3.13-.16-5.68-2.82-5.68a41.14,41.14,0,0,0-5.21.83c-1.82,9-4.79,17.77-10.21,25.17Zm31.63-17.41c2.45-.52,3.39-.73,3.39-1.87,0-.37-.21-3.44-6.67-11l3.85-2.92c8.45,9,9,14.7,9,15.84,0,3.29-3.39,4.22-7,5.22ZM411.4,543a32.61,32.61,0,0,0-4.32-5.53l2.81-2.08a38.51,38.51,0,0,1,4.64,5.52Zm5.06-3.18a30.3,30.3,0,0,0-3.91-5.21l2.76-2a21.42,21.42,0,0,1,4.12,5.37Z"/><path d="M436.94,572.76l-.57-1.77c-2.92,2-5.26,3.13-7.87,3.13-4.58,0-6.25-4.07-6.25-7.19,0-4.22,2.24-11.42,11.93-16.42.11-2.34.26-3.59.42-5-1,.05-2.24.11-3.91.11s-3.18-.11-4.06-.16l-1.31-5.73a33.86,33.86,0,0,0,6.93.73c1.46,0,2.4-.11,3.18-.16.89-4.32,1.31-6.15,2-9.17l5.32,1.72c1,.36,1.4.52,1.4.88s-.1.47-.93.79c-.58.21-1.72,4.06-2,5.16,5-.84,8.45-1.46,12.88-3.39v6A98.41,98.41,0,0,1,440,545c-.37,2.08-.42,2.29-.58,3.65a23.78,23.78,0,0,1,4-.26c.94,0,1.46,0,2,.05.16-.42.73-2.19.84-2.55l5.62,1.4c-.26.73-.36.94-.83,2.19,2.29.89,9.28,3.49,9.28,12,0,4.74-2.82,12.56-14.85,15.63L442,572.45c2.55-.52,12.4-2.61,12.4-10.79,0-5.16-3-6.51-5.16-7.55-2.5,5.31-4.43,8.86-8.13,12.76.63,1.93.89,2.56,1.1,3.18ZM434.08,556c-4.8,3.28-6.41,7.86-6.41,10.26,0,1.67.83,2.5,1.93,2.5,1.72,0,4-2,5.47-3.28A52.7,52.7,0,0,1,434.08,556Zm9.59-3a9.39,9.39,0,0,0-4.69.73,61.46,61.46,0,0,0,.52,7.19A38.68,38.68,0,0,0,443.67,553Z"/><path d="M501.29,574.48c-5.36.37-10.78.73-16.15.73-4.12,0-15.27,0-15.27-10.58,0-5.16,2.82-8.86,10.79-13.55a5.56,5.56,0,0,1-2.45-3.28c-.73-2.24-1.56-11.62-1.88-14.95l6.72-.89c-.1,2.66-.15,5.21-.15,8.29,0,5.83.57,7.14,3,8.13,2-.89,11.88-5.11,14.07-6.1l1.67,6.25c-10.84,3.18-26.27,8.18-26.27,16.1,0,5,5.73,5.27,10,5.27a84.06,84.06,0,0,0,16-2Z"/><path d="M538,560h7v5.41h-7v8.39h-6.25v-8.39H511.27V560l19.44-24.24H538Zm-6.25,0V541.91L517.21,560Z"/><path d="M590.62,547.85v5.06H579.47v7.55h17.87v5.22H579.47v10.68H574V565.68h-20.9v-5.22h7.77V547.85H574v-6.51H563.42a54.47,54.47,0,0,1-5.94,8.34l-5.1-3.23a35.57,35.57,0,0,0,9.43-14.8l5,1c1.56.31,1.72.37,1.72.89,0,.36-.11.41-1.2.78-.52.21-.84,1.14-1.15,2.08h28.45v4.9H579.47v6.51ZM574,552.91H566.6v7.55H574Z"/><path d="M619.19,540.51c.21.67-.26.78-1.25.88-.46.06-.62.21-1.19,1-3.7,5.27-5.63,7.72-6.67,9a37.13,37.13,0,0,0,4.22-.21c-.26-1.09-.52-1.93-.89-3.07l4.17-.84a34.84,34.84,0,0,1,2,8.71l-4.22.57c0-.57-.16-1.15-.26-1.77-.36,0-1.35.21-1.67.21v21.36h-4.63V555.57c-.63.1-4.75.47-5,.62s-.88,1.15-1.09,1.15c-.47,0-.47-.52-.52-1.2l-.37-4.59h3.29c1.2-1.4,2.76-3.64,3.33-4.48a30.83,30.83,0,0,0-7.08-5.31l2.81-3.91c.83.52,1.67,1,2.45,1.61a51.23,51.23,0,0,0,4-7.92l3.75,1.83c.68.31.89.47.89.78s-.16.26-1.1.78a2.2,2.2,0,0,0-.93,1.15,64.93,64.93,0,0,1-3.65,5.83c.05.06,1.35,1.25,1.51,1.41,1.2-1.93,2-3.18,3.39-5.47l4,2.24a5.69,5.69,0,0,1,.57.31v-4.48H629.3v-4.11l4.9.15c.42,0,1.51,0,1.51.63,0,.36-.21.52-.52.78a1.19,1.19,0,0,0-.62,1v1.56h12v4.59h-12V543H643v4.58H622.17V543h7.13v-2.45Zm-11.72,18.23c.42.06.83.11.83.53,0,.2-.73,1-.78,1.19s-.1,1.41-.1,1.62a47.17,47.17,0,0,1-1.25,8.91l-4.33-.57a51.86,51.86,0,0,0,1.25-12.25Zm11.31-1a44.16,44.16,0,0,0,1.77,9.85l-4.59.94a54.42,54.42,0,0,1-1.4-10.11Zm12.19-1c.21,0,1.2,0,1.2.63,0,.31-.78,1.4-.83,1.67a21.55,21.55,0,0,0-.21,2.34c-.21,3-.84,10.47-10,14.85l-4.06-3.75c8.7-3.39,9.28-7.66,9.28-16.05Zm15.11,3.44H641v-6.46H625v6.62h-4.64V549.52h25.69Zm-8.65-4.06c.89,0,1.36,0,1.36.57,0,.31-.11.42-.63.89a1.07,1.07,0,0,0-.26.78v11.2c0,1.56.78,1.56,2,1.56a1.73,1.73,0,0,0,1.57-1.4,34.19,34.19,0,0,0,.78-4.74l4.43,1.82c-.73,8.13-2.4,8.75-5.37,8.75h-5.06c-.73,0-3.12-.15-3.12-2.55V556Z"/><path d="M672.89,561.25c-4.11,8.7-7,11.3-10.16,11.3-5.16,0-9.06-8.33-9.06-18.76a47.5,47.5,0,0,1,1-9.48c.21-1,1.26-5.94,1.46-7.09l5.58,2.56c.52.26,1.41.67,1.41,1.14s-.37.58-1.05,1.1c-.41.31-2.6,6.25-2.6,12.92,0,7,2.19,10.47,3.85,10.47,1.83,0,4-4.84,5.27-7.86Zm15.74,3c-.31-11.2-4.33-18-6.83-21.63l5.58-2.34c5,7,7,16.15,7.66,23.13Z"/><path d="M718.55,533.11c.41.1,1.61.47,1.61.83a.72.72,0,0,1-.16.52c-.15.16-.88.58-1,.73s-1.35,5.26-1.56,6c5.37-1.31,7.09-2.35,8.39-3.13l.21,5.78a44,44,0,0,1-10.16,2.92,161.9,161.9,0,0,1-10.68,27.88l-5.94-2.24c6.3-9.43,9.48-20.38,10.73-24.86-3,.26-4.64.37-8,.42l-.26-5.89a27.91,27.91,0,0,0,5.05.42,42.71,42.71,0,0,0,4.53-.26c1.36-5.79,1.67-7.92,1.67-10.53Zm20,40.8a46.89,46.89,0,0,1-8.44.57c-9.69,0-13.81-1.56-13.81-7.19a20.86,20.86,0,0,1,.58-4.79l5.36,1.3a4.31,4.31,0,0,0-.47,1.93c0,2,1.1,3.23,6.88,3.23a31.34,31.34,0,0,0,9.64-1.25ZM738,554.32a44.79,44.79,0,0,0-8.44-1.05,34.21,34.21,0,0,0-7.14.79v-5.68c1.36-.06,7.4-.26,8.6-.26,4.74,0,6.1.36,7,.57Z"/><path d="M748,560.62c1.3-10.26,2.34-14.9,4.74-20.27L758,542.7a39.82,39.82,0,0,0-3.49,11.93c2.35-1.56,6.83-4.64,12.87-4.64,7.25,0,11.73,4.74,11.73,11.52,0,13.86-17.62,14.38-24.34,14.54l-2.24-5.79c1,0,2.61.16,4.33.16,2.6,0,16.41-.26,16.41-9.12,0-4.95-4.12-6.2-6.25-6.2a17.06,17.06,0,0,0-8.5,2.92,22.86,22.86,0,0,0-5.83,5.52Zm19.54-17.14A37.85,37.85,0,0,0,755,537.07l2.19-5.21a46.82,46.82,0,0,1,13.34,6.35Z"/><path d="M16,608l-.63,8.7h7.87l.57-8.7h3.28l-.62,8.7h6.62v5.94h-7l-.57,8.75h6.67v6H25.1L24.48,646H21.25l.57-8.65H14L13.38,646H10.15l.57-8.65H4.1v-6h7l.62-8.75H5.09v-5.94h7.09l.62-8.7Zm-1,14.64-.57,8.75h7.82l.62-8.75Z"/><path d="M75.27,643.52c-4.75,1.25-7.35,1.83-19.18,4.28-1.2.26-1.67.41-1.82.73-.37.57-.42.67-.63.67-.52,0-.78-.94-.88-1.4l-1.25-5c1.35,0,5-.52,6.56-.73V630.18H49.58V625.7h9.64v-21h31v4.33H64.43v2.81H87.72v4H64.43v2.86H87.72v4H64.43v2.92H94.76v4.48H87.67l2.4,2.09c.62.52,1,.83,1,1.09s-.11.26-1.1.37a20.42,20.42,0,0,0-2.5,1.77c-1,.78-2.61,2.08-4.22,3.28a31.74,31.74,0,0,0,11.57,5.16l-4.12,5.11a36.16,36.16,0,0,1-15.42-10.11Zm-11.73-2.29a95.6,95.6,0,0,0,11.26-2.87,37.94,37.94,0,0,1-5.53-8.18H63.54Zm11.78-11.05a21.41,21.41,0,0,0,3.85,5.06,33.43,33.43,0,0,0,6-5.06Z"/><path d="M106.89,631.8c-.21.15-1,.68-1.15.83a4.77,4.77,0,0,0-.31,2.09,36,36,0,0,1-1.36,9.17L99.59,643a56,56,0,0,0,1.72-12.56L106,631a3.7,3.7,0,0,1,.89.31v-3.39c-.63,0-4.43.42-4.59.52s-.68.68-.83.78a.61.61,0,0,1-.32.06c-.52,0-.62-.68-.67-1l-.37-4.32h2.66c1.62-1.88,2.55-3.13,3.86-4.9-1-.88-4.07-3.75-6.57-4.9l2.81-4.22c.37.26,1,.68,2,1.46a38.7,38.7,0,0,0,3.85-7.76l4,1.87c.47.21.73.37.73.68s-.26.47-.83.68-.57.31-1,1c-.89,1.51-1.41,2.4-3.81,6,.68.73.89.94,1.36,1.41.73-1.09,2.4-3.65,3.86-6.36l3.8,1.67c.21.1.83.52.83.89s-.1.36-1.14.73c-.37.15-.52.36-1.72,2.13-2.3,3.34-4.38,6.1-7.14,9.49,3.39-.06,3.8-.11,5.1-.21a32.88,32.88,0,0,0-.78-3.39l4-.94a37.9,37.9,0,0,1,1.83,9l-3.91.93c-.05-.36-.21-1-.37-1.87a17.94,17.94,0,0,1-2,.16v21.52h-4.58ZM137,647.64H134v-7.82h-2.25v7.82h-3v-7.82h-2.24v9.07h-4.16V637a44.21,44.21,0,0,1-4.85,11.41l-4.95-2.08a40,40,0,0,0,4.12-7.77l-2.77.78a86.19,86.19,0,0,1-1.4-8.54l4-.63a43.62,43.62,0,0,0,.93,5.73,35.66,35.66,0,0,0,1.26-9.9V612.1h23.91V625h-19v2.87h20.53V644.3c0,4.38-2.39,4.54-5.83,4.59L137,644.51Zm-20.27-42.73h27.88v4.74H116.68Zm20.95,15.63v-4.11h-14v4.11Zm-8.81,15.53V631.9h-2.24v4.17Zm5.22,0V631.9h-2.25v4.17Zm5.41,0V631.9H137v4.17Zm-1.4,7.77c.94,0,1.4-.16,1.4-1.26v-2.76H137v4Z"/><path d="M193.59,608v5.47L170.4,640.6H194V646H162V640.6l23.19-27.14H162.79V608Z"/><path d="M233.63,627c0,13.45-8.86,20.27-19,20.27s-19-6.82-19-20.27,8.86-20.27,19-20.27S233.63,613.61,233.63,627Zm-31,0c0,10.32,6.31,14.54,12,14.54s12-4.22,12-14.54-6.25-14.48-12-14.48S202.62,616.79,202.62,627Z"/><path d="M275.45,627c0,13.45-8.86,20.27-19,20.27s-19-6.82-19-20.27,8.86-20.27,19-20.27S275.45,613.61,275.45,627Zm-31,0c0,10.32,6.31,14.54,12,14.54s12-4.22,12-14.54-6.25-14.48-12-14.48S244.44,616.79,244.44,627Z"/><path d="M292.15,608l7.45,31,7.51-31h10.94v38h-6.57V612.36L303.35,646h-7.5l-8.13-33.66V646h-6.51V608Z"/><path d="M338.89,616.37a32,32,0,0,1,8.18,5l-2.81,4.53c-4.64-3.39-6.36-4.27-8.18-5Zm9.95,16.31c-1.56,4.23-1.87,4.9-5.94,13.6a1.91,1.91,0,0,0-.26.94c0,.21,0,.84-.47.84a4,4,0,0,1-1-.26l-4.9-2.77a61.06,61.06,0,0,0,8.23-15Zm-7-28.45a30.51,30.51,0,0,1,7.29,5.16l-3.23,4.07a33.91,33.91,0,0,0-7-4.85Zm30.64,34.92a37.85,37.85,0,0,0,10.63,4.69l-3,4.48a46.35,46.35,0,0,1-11.94-5.89l2.56-3.28H362l2.29,2.39c.88.94,1,1,1,1.25,0,.37-.52.37-.68.37a2.11,2.11,0,0,0-1.41.31,44.54,44.54,0,0,1-10.57,5l-3.91-3.9A35,35,0,0,0,360,639.15h-7.55V621.48H363.9v-2.4h-7.19v-3.9h18.71v3.9h-6.67v2.4h11.57v17.67ZM381.93,608v9.74h-5.16v-5.26H355.3v5.26h-5.21V608h13.19v-4.54l5.15.31c1.15.06,1.52.11,1.52.68,0,.31-.11.37-.73.84-.26.15-.47.41-.47,1V608Zm-24.49,20.42h6.46v-3.07h-6.46Zm0,6.88h6.46V632h-6.46Zm11.31-9.95v3.07h6.51v-3.07Zm6.51,9.95V632h-6.51v3.28Z"/><path d="M413.2,631.43c.52.32,1.2.63,1.2,1.15,0,.31-.26.37-.94.52-.47.11-.57.31-1,.78a34,34,0,0,1-3.8,4,38,38,0,0,0,7.66,4.22l-2.09,4.06a40.5,40.5,0,0,1-4.95-3.44c.26,5.84-2.81,6.31-7.66,6.31l-1.25-3.76a12.69,12.69,0,0,0,1.78.16c2.18,0,3-1,3-2.6a7.79,7.79,0,0,0-.37-2.4,35,35,0,0,1-8.8,6.2l-2.4-2.66a32.72,32.72,0,0,0,10-6.36,15.36,15.36,0,0,0-.88-1.45,32.78,32.78,0,0,1-6.88,4.79l-1.67-1.72a71.47,71.47,0,0,1-2.34,9.9l-5.06-2c1.88-4.64,3.34-9.74,3.34-20.63,0-9-.21-12-.42-15.06h8V603.4l4.43.16c1.3.05,1.82.05,1.82.41a.56.56,0,0,1-.26.47c-.57.37-.84.52-.84,1h9.28v3.86h-9.22v2.14h12.29V620H410.6v-5.26h-8v2.29l6.15-.88.16,2.24-6.31,1.09c0,1.15,0,1.77,1.41,1.77h1.2c1.15,0,2.24-1.14,2.87-2.6l3,2.5c-1.52,2.24-2.09,3.12-4.54,3.12H400.7a2.35,2.35,0,0,1-2.56-2.55v-1.56l-3,.47v5h20.06v3.75h-9.58c-.68.58-1.15.94-2.3,1.77a22,22,0,0,1,3.23,3.7,33.29,33.29,0,0,0,3.91-5Zm-18.29,2.24c-.15,1.83-.26,2.87-.52,4.49a26.45,26.45,0,0,0,6.67-4c-.31-.31-.52-.52-.94-.88-1.2.67-1.93,1.09-3.8,2Zm.26-4.27c-.1,1.46-.15,2.4-.15,3a17.12,17.12,0,0,0,5.68-3Zm3-11.67v-3h-3v3.44Zm18.76,20.58v-29l4,.26c1.52.1,1.93.1,1.93.57a1.91,1.91,0,0,1-.52.89c-.42.52-.52.67-.52,1.09v26.21Zm3.08,5.53a25.21,25.21,0,0,0,2.55.31c2.71,0,2.71-1.57,2.71-2.92V603.5l4.48.26a16.47,16.47,0,0,1,1.77.16.28.28,0,0,1,.21.31,3.05,3.05,0,0,1-.62,1.25,1.22,1.22,0,0,0-.27.84v37.15c0,5.06-2.39,5.42-8.85,5.84Z"/></svg>