<svg id="レイヤー_1" data-name="レイヤー 1" xmlns="http://www.w3.org/2000/svg" viewBox="0 0 430.43 430.43"><title>SNSs</title><rect width="430.43" height="430.43" rx="215.21" ry="215.21" style="fill:#662d89"/><path d="M217.51,75h61.95c37.75,0,68.74,25.1,76.44,62.09a69.64,69.64,0,0,1,1.45,14q.16,64,0,127.92c-.06,36.54-27.73,69-63.81,74.8a89.8,89.8,0,0,1-14,1.14q-62.45.13-124.9.05A77,77,0,0,1,78.83,292.4a74.2,74.2,0,0,1-1.32-13.78Q77.36,215,77.46,151.3c0-36.83,27.52-69.15,63.91-75.11A88.47,88.47,0,0,1,155,75.06C175.81,75,196.66,75,217.51,75Zm119,139.93q0-30.87,0-61.75a65.1,65.1,0,0,0-.43-8A56.07,56.07,0,0,0,280.19,96q-62.76-.09-125.51,0a55.73,55.73,0,0,0-12.35,1.38c-26.34,6.09-43.92,28.33-43.94,55.41q0,62.25,0,124.5a65.51,65.51,0,0,0,.42,7.42A56,56,0,0,0,154.18,334c42.17.12,84.34,0,126.51,0a53.68,53.68,0,0,0,19.83-3.75,56,56,0,0,0,36-52.58C336.52,256.78,336.48,235.86,336.48,214.94Z" style="fill:#fff"/><path d="M292.11,215a74.68,74.68,0,0,1-149.35,0c0-41.15,33.68-74.8,74.76-74.68A74.82,74.82,0,0,1,292.11,215Zm-21,.07a53.64,53.64,0,1,0-53.59,53.59A53.6,53.6,0,0,0,271.07,215.05Z" style="fill:#fff"/><path d="M295,151.93a14.54,14.54,0,1,1,14.59-14.48A14.42,14.42,0,0,1,295,151.93Z" style="fill:#fff"/></svg>