<svg width="450" height="450" viewBox="0 0 450 450" fill="none" xmlns="http://www.w3.org/2000/svg">
<circle cx="225" cy="225" r="225" fill="url(#paint0_linear)"/>
<path d="M224.97 163.428C190.897 163.428 163.398 190.927 163.398 225C163.398 259.073 190.897 286.572 224.97 286.572C259.043 286.572 286.542 259.073 286.542 225C286.542 190.927 259.043 163.428 224.97 163.428ZM224.97 265.017C202.935 265.017 184.953 247.035 184.953 225C184.953 202.965 202.935 184.983 224.97 184.983C247.005 184.983 264.987 202.965 264.987 225C264.987 247.035 247.005 265.017 224.97 265.017ZM289.063 146.557C281.108 146.557 274.684 152.981 274.684 160.937C274.684 168.892 281.108 175.316 289.063 175.316C297.019 175.316 303.443 168.922 303.443 160.937C303.445 159.048 303.075 157.177 302.353 155.431C301.631 153.685 300.572 152.099 299.237 150.763C297.901 149.428 296.315 148.369 294.569 147.647C292.823 146.925 290.952 146.555 289.063 146.557V146.557ZM344.991 225C344.991 208.429 345.141 192.008 344.211 175.467C343.28 156.254 338.897 139.202 324.847 125.153C310.768 111.073 293.746 106.72 274.533 105.789C257.962 104.859 241.541 105.009 225 105.009C208.429 105.009 192.008 104.859 175.467 105.789C156.254 106.72 139.202 111.103 125.153 125.153C111.073 139.232 106.72 156.254 105.789 175.467C104.859 192.038 105.009 208.459 105.009 225C105.009 241.541 104.859 257.992 105.789 274.533C106.72 293.746 111.103 310.798 125.153 324.847C139.232 338.927 156.254 343.28 175.467 344.211C192.038 345.141 208.459 344.991 225 344.991C241.571 344.991 257.992 345.141 274.533 344.211C293.746 343.28 310.798 338.897 324.847 324.847C338.927 310.768 343.28 293.746 344.211 274.533C345.171 257.992 344.991 241.571 344.991 225V225ZM318.573 295.788C316.382 301.252 313.74 305.334 309.507 309.537C305.274 313.77 301.222 316.412 295.758 318.603C279.967 324.877 242.472 323.467 224.97 323.467C207.468 323.467 169.943 324.877 154.152 318.633C148.688 316.442 144.606 313.8 140.403 309.567C136.17 305.334 133.528 301.282 131.337 295.818C125.093 279.997 126.503 242.502 126.503 225C126.503 207.498 125.093 169.973 131.337 154.182C133.528 148.718 136.17 144.636 140.403 140.433C144.636 136.23 148.688 133.558 154.152 131.367C169.943 125.123 207.468 126.533 224.97 126.533C242.472 126.533 279.997 125.123 295.788 131.367C301.252 133.558 305.334 136.2 309.537 140.433C313.77 144.666 316.412 148.718 318.603 154.182C324.847 169.973 323.437 207.498 323.437 225C323.437 242.502 324.847 279.997 318.573 295.788Z" fill="white"/>
<defs>
<linearGradient id="paint0_linear" x1="30.2138" y1="420.683" x2="447.169" y2="59.7414" gradientUnits="userSpaceOnUse">
<stop stop-color="#FFDD55"/>
<stop offset="0.5" stop-color="#FF543E"/>
<stop offset="1" stop-color="#C837AB"/>
</linearGradient>
</defs>
</svg>
