<svg id="レイヤー_1" data-name="レイヤー 1" xmlns="http://www.w3.org/2000/svg" xmlns:xlink="http://www.w3.org/1999/xlink" viewBox="0 0 786 184"><defs><clipPath id="clip-path"><rect width="786" height="184" style="fill:none"/></clipPath></defs><title>head_logo</title><g style="clip-path:url(#clip-path)"><path d="M768.74,35.47a5.6,5.6,0,0,0-2,.38,24.07,24.07,0,0,0-2.61,1.26c-2.17,1.14-3.72.62-4.65-1.65-.45-1.09-.8-2.21-1.22-3.31a8.32,8.32,0,0,0-.81-1.67,2.61,2.61,0,0,0-3.15-.81,2.33,2.33,0,0,0-1.46,2.67,15.5,15.5,0,0,0,.62,2.41c.47,1.44,1,2.87,1.46,4.32a3.53,3.53,0,0,1-1.45,4.17q-.6.42-1.23.78c-7.15,4.22-14.26,8.51-21.47,12.62-8.29,4.74-16.65,9.36-25,14a27.08,27.08,0,0,1-6.58,2.83c-1.9.43-4.55-.66-5.19-2.26a6.42,6.42,0,0,1-.44-3.9,25.24,25.24,0,0,1,1.25-4.81c1.3-4,3.46-7.54,5.4-11.2,5.61-10.57,11.29-21.11,16.91-31.67a13.06,13.06,0,0,0,1-2.6,2.53,2.53,0,0,0-.77-2.59,2.79,2.79,0,0,0-2.9-.41c-1,.39-1.5,1.49-2,2.33-1.85,3.4-3.64,6.84-5.47,10.26-3,5.73-6.14,11.46-9.18,17.21-2.23,4.22-4.49,8.43-6.58,12.72a28.53,28.53,0,0,0-3.06,12.17c0,.49,0,1.41.09,1.89.53,5,4.12,8.53,9.47,8.41a15.66,15.66,0,0,0,6.41-1.55c3.57-1.68,7.15-3.35,10.58-5.28,10-5.65,19.93-11.43,29.88-17.17,3.23-1.87,6.44-3.79,9.65-5.69a3,3,0,0,1,2.33-.56A3.06,3.06,0,0,1,759,51.1c.46,1.38.85,2.78,1.31,4.15a11.53,11.53,0,0,0,.81,1.91,2.62,2.62,0,0,0,2.86,1.15,2.16,2.16,0,0,0,1.81-2.23,7.78,7.78,0,0,0-.32-2.24c-.59-2.06-1.26-4.1-1.89-6.14-.7-2.24-.16-3.68,1.89-4.89q2-1.17,4-2.29a3.21,3.21,0,0,0,1.54-1.87A2.48,2.48,0,0,0,768.74,35.47Z" style="fill:#baff00"/><path d="M477.23,86.34a12.45,12.45,0,0,0-7-.29,42.82,42.82,0,0,0-6.5,2.09A126.34,126.34,0,0,0,446.3,97.7a6.4,6.4,0,0,0-.83.62,3,3,0,0,0-.64,3.54,2.43,2.43,0,0,0,2.91,1,9.83,9.83,0,0,0,2.46-1c3.79-2.15,7.51-4.44,11.35-6.5A36,36,0,0,1,471.9,91.2a6,6,0,0,1,2.24,0A5.61,5.61,0,0,1,478.6,98a31.9,31.9,0,0,1-2,6.33c-3.06,7.34-6.15,14.68-9.46,21.91-5.43,11.88-11,23.69-16.6,35.53-1.38,2.94-2.82,5.86-4.27,8.77q-3.27,6.6-6.58,13.19c-1.43,2.84-3,5.64-4.33,8.5a6.67,6.67,0,0,0-.89,2.71,2.54,2.54,0,0,0,2.34,2.5,2.91,2.91,0,0,0,2.89-1.64c.82-1.52,1.65-3,2.41-4.59,6.4-13,12.89-25.9,19.13-38.95,5.1-10.67,9.93-21.47,14.8-32.25a144,144,0,0,0,6.31-15.57,26.39,26.39,0,0,0,1.4-7.93c-.05-.83,0-1.67-.15-2.48C483,90.25,481,87.56,477.23,86.34Z" style="fill:#baff00"/><path d="M601.6,31.42a2.36,2.36,0,0,0-2.49,1.66,5.54,5.54,0,0,0-.25,1.21c-.29,2.82-.54,5.64-.84,8.45-.86,8.1-1.87,16.18-3.21,24.22a111.16,111.16,0,0,1-10.27,31.85A129.63,129.63,0,0,1,569.64,122c-3.08,3.82-6.33,7.51-9.65,11.12-2.66,2.9-5.5,5.65-8.35,8.37-2.7,2.57-5.53,5-8.3,7.51a4,4,0,0,0-1.48,2.65,2.34,2.34,0,0,0,3,2.65,5.58,5.58,0,0,0,2.71-1.44c3.65-3.29,7.42-6.45,10.89-9.91,4-4,7.91-8.15,11.59-12.46a138.71,138.71,0,0,0,20.33-31,111.09,111.09,0,0,0,7.79-22.28,164.31,164.31,0,0,0,3-16.93c1-8.21,2-16.43,3-24.65a8.66,8.66,0,0,0,0-2.44C604,32,602.91,31.48,601.6,31.42Z" style="fill:#baff00"/><path d="M406.52,175.83a5.63,5.63,0,0,0-2.73,1.4A118.87,118.87,0,0,1,391,186.82a25.43,25.43,0,0,1-5.18,2.55,5.19,5.19,0,0,1-6.16-2.78,8.23,8.23,0,0,1-.63-4.43c.2-2.75.46-6.23.75-9,.51-4.87,1.12-9.73,1.65-14.61a5.91,5.91,0,0,1,3.39-4.85c5.73-3.07,11.41-6.24,17.11-9.38a9.48,9.48,0,0,0,1.71-1.15,3.62,3.62,0,0,0,.56-3.68,2.71,2.71,0,0,0-3-.81,14.12,14.12,0,0,0-2.49,1c-3.52,1.92-7,3.88-10.54,5.82a5.25,5.25,0,0,1-1.12.54c-1.86.53-3.23-.22-2.95-2.25.14-1,.41-2.17.61-3.11a21.47,21.47,0,0,0,.55-3.27,2.17,2.17,0,0,0-1.71-2.47,2.46,2.46,0,0,0-3,1.16,8.68,8.68,0,0,0-.82,2.34c-.72,3.23-1.41,6.48-2.05,9.73a6.34,6.34,0,0,1-3.53,5c-1.43.87-2.55,1.39-3.82,2.09-2.61,1.44-5.2,2.89-7.82,4.31a3.34,3.34,0,0,0-1.83,2.37,2.4,2.4,0,0,0,2.44,2.8,6.93,6.93,0,0,0,3.51-1.05c1.64-.9,3.25-1.85,4.89-2.73,2.31-1.23,4-.16,3.94,2.44q0,.32,0,.63c-.59,6-1.13,11.7-1.72,17.72a14.9,14.9,0,0,0,.43,5.82c1.28,5.09,6.37,7.74,11.4,7.27a17.5,17.5,0,0,0,7.54-2.74,142.87,142.87,0,0,0,15-11.14,3.55,3.55,0,0,0,1.3-2.29A2.54,2.54,0,0,0,406.52,175.83Z" style="fill:#baff00"/><path d="M675.41,19.93a9.62,9.62,0,0,0-1.43-.15,19.71,19.71,0,0,0-8.32,1.44,132.42,132.42,0,0,0-15.36,7.31c-6.5,3.39-12.94,6.9-19.4,10.36l-9.15,4.9a3.05,3.05,0,0,0-1.83,2.07,2.55,2.55,0,0,0,2,3.15,4.76,4.76,0,0,0,3-.59c1.14-.66,2.31-1.25,3.47-1.87,5.5-2.93,11-5.87,16.49-8.77,6.18-3.25,12.36-6.52,18.6-9.66a26.78,26.78,0,0,1,8.57-3,4,4,0,0,1,4.65,5.07,24.32,24.32,0,0,1-1.58,4.48c-3,6.18-7.21,11.46-11.87,16.42-1.51,1.61-3.18,3.08-4.79,4.6a4.78,4.78,0,0,0-1.7,2.36,2.54,2.54,0,0,0,.71,2.67,3.25,3.25,0,0,0,3.13.41,7.81,7.81,0,0,0,2.31-1.83c2.52-2.47,5.05-4.93,7.37-7.58A60.31,60.31,0,0,0,680,37.31a20,20,0,0,0,2.17-8.58C682.14,23.31,679.72,20.93,675.41,19.93Z" style="fill:#baff00"/><path d="M417.78,100.35a14.45,14.45,0,0,0-2.17.87c-1.63.76-3.22,1.6-4.84,2.38l-31.55,15.27q-6.92,3.34-13.82,6.69l-23.91,11.56a7.47,7.47,0,0,0-1.43.82,3.08,3.08,0,0,0-.91,3.21,2.45,2.45,0,0,0,3,1.46,21.28,21.28,0,0,0,2.86-1.07c4.25-2,8.47-4.08,12.71-6.13q12.8-6.18,25.58-12.37c7.84-3.8,15.66-7.64,23.5-11.45,2.8-1.36,5.63-2.65,8.43-4,1.49-.72,3-1.46,4.44-2.25a2.82,2.82,0,0,0,1.43-3.66C420.57,100.46,419.43,99.9,417.78,100.35Z" style="fill:#baff00"/><path d="M513.37,65.11a2.49,2.49,0,0,0-2.67,2.09,9.87,9.87,0,0,0-.31,1.41q-.87,7.2-1.72,14.4-.74,6.08-1.45,12.14c-.62,5.14-1.26,10.28-1.85,15.42-.5,4.26-.95,8.52-1.41,12.77q-1,9.48-2,18.95c-.2,1.85-.24,3.73-.53,5.56a8.14,8.14,0,0,0,0,2.83,2.25,2.25,0,0,0,2.23,1.71,2.49,2.49,0,0,0,2.55-1.7,13.41,13.41,0,0,0,.43-2.44c.35-3.65.62-7.3,1-10.94.64-6,1.35-11.93,2-17.9.57-5,1.13-10,1.72-15q1-8.43,2-16.86c.47-3.84,1-7.67,1.45-11.51.32-2.53.6-5.07.91-7.7a3,3,0,0,0,0-1A2.45,2.45,0,0,0,513.37,65.11Z" style="fill:#baff00"/><path d="M642.61,56.84a2.46,2.46,0,0,0-2.67,1.76,9,9,0,0,0-.35,1.62c-.26,2.47-.51,4.94-.73,7.41-.56,6.4-1.14,12.8-1.66,19.2-.49,5.91-.91,11.84-1.37,17.76,0,1,0,2.08,0,3.11a2.37,2.37,0,0,0,3.32,2,2.72,2.72,0,0,0,1.74-2.59c.19-1.71.31-3.44.44-5.16.2-2.89.35-5.79.59-8.68.47-5.71,1-11.42,1.5-17.12.38-4.2.82-8.39,1.18-12.58a33.12,33.12,0,0,0,.12-4.56A2.21,2.21,0,0,0,642.61,56.84Z" style="fill:#baff00"/><path d="M569.84,75.52a2.47,2.47,0,0,0,3.45-1.79,13.4,13.4,0,0,0,.26-1.78c.29-3.22.51-6.46.85-9.67.49-4.59,1.07-9.17,1.6-13.76l.66-5.54a7.88,7.88,0,0,0,0-1.46,2.16,2.16,0,0,0-2-2.24,2.31,2.31,0,0,0-2.75,1.63,9.25,9.25,0,0,0-.43,1.8c-.41,2.8-.86,5.59-1.16,8.4q-1.11,10.26-2.07,20.56a4.59,4.59,0,0,0,.17,2.62A2.77,2.77,0,0,0,569.84,75.52Z" style="fill:#baff00"/><path d="M451.37,81.42a25.13,25.13,0,0,0,2.43-.76q9.9-4.25,19.78-8.54a10.08,10.08,0,0,0,2.14-1.23,2.94,2.94,0,0,0,.69-3.23,2.64,2.64,0,0,0-2.84-1.24,14.25,14.25,0,0,0-2.57.82q-9.79,4.2-19.58,8.46a11.42,11.42,0,0,0-2,1.06,2.64,2.64,0,0,0-.91,3C448.89,80.91,449.68,81.44,451.37,81.42Z" style="fill:#baff00"/><path d="M551.53,92A2.24,2.24,0,0,0,553,89.36c-.15-1.33-.64-1.76-1.91-2.06a4.9,4.9,0,0,0-1.83,0c-6.23,1.24-12.46,2.52-18.69,3.79-1.69.34-3.39.65-5.06,1.1a2.63,2.63,0,0,0-2.11,2.91c.19,1.46,1.09,2.28,3.14,2.14.42-.06,1.17-.14,1.92-.3q9.94-2,19.9-4.07A19.25,19.25,0,0,0,551.53,92Z" style="fill:#baff00"/><path d="M51.93,95.55a17.44,17.44,0,0,0-2.51,1.11c-.8.4-1.77,1-2.69,1.43-1.73.91-3.1.47-4.32-1.08A27.23,27.23,0,0,0,37,91.41a17.11,17.11,0,0,0-11.54-3.23,10.51,10.51,0,0,0-2.24.31,2.44,2.44,0,0,0,.15,4.71,12.81,12.81,0,0,0,1.65.12,30.1,30.1,0,0,1,3.7.36,12.84,12.84,0,0,1,8.45,5.89,2.88,2.88,0,0,1-1,4.28c-.29.19-.6.34-.91.51-2.85,1.56-5.71,3.11-8.55,4.69a11.54,11.54,0,0,0-1.9,1.25,2.84,2.84,0,0,0-.64,3.34A2.38,2.38,0,0,0,27,114.85a7.9,7.9,0,0,0,2.14-.75c1.53-.79,3-1.66,4.54-2.5,1.1-.59,2.17-1.24,3.3-1.76a2.26,2.26,0,0,1,3.35,1.62,5.77,5.77,0,0,1,0,2,25.13,25.13,0,0,1-4.09,10.11,35.92,35.92,0,0,1-11.48,10.94c-4.2,2.75-8,4.92-11.94,7.15a2.68,2.68,0,0,1-2.94.17,3,3,0,0,1-1-2.87c.07-1,.14-2,.24-3q.64-6.9,1.26-13.82c.19-2.13.31-4.27.51-6.4q.72-7.83,1.48-15.67c.26-2.74.53-5,.74-7.7a15.6,15.6,0,0,0,0-3.54A2.14,2.14,0,0,0,10.91,87,2.33,2.33,0,0,0,8.4,88.41,5.84,5.84,0,0,0,8,90c-.39,3.77-.73,7-1.08,10.79Q6.1,110,5.28,119.16c-.62,7.08-1.21,14.17-1.82,21.26-.12,1.44-.24,2.89-.43,4.33a5.33,5.33,0,0,1-2.84,4.31c-1.94,1.07-3.82,2.24-5.71,3.39A8.18,8.18,0,0,0-7,153.54,2.75,2.75,0,0,0-7.64,157a2.87,2.87,0,0,0,2.83,1.15,6.18,6.18,0,0,0,1.59-.57c.33-.16.87-.52,1.31-.72C0,156,1.7,156.5,1.8,158.49a10.81,10.81,0,0,1-.07,1.27c-.2,2-.43,4-.61,6q-.63,6.81-1.24,13.61Q-1,189.66-1.92,200c-.29,3.23-.58,6.47-.88,9.7a19.35,19.35,0,0,0-.09,3.07,2.1,2.1,0,0,0,1.33,1.84,2.45,2.45,0,0,0,3.62-1.85,37.44,37.44,0,0,0,.46-4.11q.76-8.15,1.51-16.29c.34-3.85.64-7.71,1-11.56q.74-8.15,1.51-16.29c.31-3.44.62-6.88,1-10.31a5.72,5.72,0,0,1,3-4.69c5-2.9,10-5.88,15.05-8.81a48.65,48.65,0,0,0,11.85-9.33,33.2,33.2,0,0,0,7.08-12.08,30.74,30.74,0,0,0,1.26-11.07,4.64,4.64,0,0,1,2.55-4.58c1.1-.55,4.91-2.62,6-3.39a2.8,2.8,0,0,0,1-3.7A2.55,2.55,0,0,0,51.93,95.55Z" style="fill:#baff00"/><path d="M115.15,110.83a7.3,7.3,0,0,0-3.51,1.12c-1.83.9-3.53,0-3.63-1.76a14.26,14.26,0,0,1,.06-1.46q.62-6.92,1.22-13.83t1.27-14c.23-2.48.5-4.95.7-7.42.11-1.45.19-2.75.19-4.2a2.51,2.51,0,0,0-1.16-2.34,2.47,2.47,0,0,0-3.64,1.43,32.44,32.44,0,0,0-.74,5.11c-.37,4.12-.65,8.26-1,12.39-.47,5.22-1,10.44-1.48,15.66-.36,4-.65,8-1,12a5.35,5.35,0,0,1-3.75,5,27.72,27.72,0,0,1-10,1.33,15.1,15.1,0,0,1-10.53-4.69c-1.56-1.62-1.32-3.47.58-4.69a18.43,18.43,0,0,1,1.64-.89l10.44-5.11a9.77,9.77,0,0,0,1.46-.79,2.69,2.69,0,0,0,1-3.26,2.33,2.33,0,0,0-2.71-1.45,5.53,5.53,0,0,0-1.4.35c-.91.35-1.8.71-2.67,1.14-2.55,1.25-5.07,2.56-7.63,3.79a6,6,0,0,1-2.15.61,2,2,0,0,1-2.33-2.24,10.91,10.91,0,0,1,.36-2.46,22.68,22.68,0,0,1,8-12.3,56.58,56.58,0,0,1,11.69-7.08A14.39,14.39,0,0,0,97,79.12,2.71,2.71,0,0,0,97.73,76a2.51,2.51,0,0,0-2.6-1.33,5.46,5.46,0,0,0-1.95.55c-4.69,2.23-9.41,4.4-13.5,7.69a28.31,28.31,0,0,0-9,11.72,27,27,0,0,0-1.85,10.76A4.89,4.89,0,0,1,66,110.5a60.7,60.7,0,0,0-5.92,3A3,3,0,0,0,59,117.16c.49,1.08,1.71,1.53,3.19,1.11a13.79,13.79,0,0,0,2-.78c1.13-.53,2.2-1.08,3.32-1.61,2.17-1,3.79-.58,5,1.28a17.8,17.8,0,0,0,11.45,7.29,31.94,31.94,0,0,0,8.93.52c2.68-.26,3.33-.41,4.84-.55a2.83,2.83,0,0,1,3.34,3.36c-.49,5.29-1,10.59-1.46,15.88q-.81,8.55-1.67,17.11c-.33,3.29-.75,6.58-1.06,9.88a6.13,6.13,0,0,0,.09,2.82,2.39,2.39,0,0,0,2.35,1.33,2.22,2.22,0,0,0,2.36-1.47,9.38,9.38,0,0,0,.51-2.57q.9-8.55,1.75-17.1c.57-5.78,1.1-11.55,1.65-17.32.38-4,.9-8,1.11-12,.19-3,1.56-4.24,3.93-5.57,1.92-1.12,3.44-1.78,5.12-2.75a3.45,3.45,0,0,0,1.69-2A2.51,2.51,0,0,0,115.15,110.83Z" style="fill:#baff00"/><path d="M369.59,40.94a17.18,17.18,0,0,0,7.26-1.5c2.86-1.23,5.65-2.61,8.48-3.93a10.18,10.18,0,0,1,1.7-.74,2.37,2.37,0,0,1,3.2,2.41,8.19,8.19,0,0,1,0,.85c-.26,3.79-.52,7.58-.8,11.71a13.2,13.2,0,0,0,0,2.35,2.3,2.3,0,0,0,2.39,2.37,2.46,2.46,0,0,0,2.55-2,6.44,6.44,0,0,0,.2-1.23c.26-3.37.52-6.75.76-10.12.2-2.76.37-5.52.56-8.27a5.15,5.15,0,0,1,2.74-4.38c5.18-2.93,10.38-5.82,15.57-8.73a4.61,4.61,0,0,1,2.44-.72,1.66,1.66,0,0,1,1.56,1.15,17.37,17.37,0,0,1,.53,1.91c.35,1.44,1,2.05,2.46,2.06a2.39,2.39,0,0,0,2.49-2,39.51,39.51,0,0,0,.84-4.72,6.57,6.57,0,0,1,4.11-5.76,11.4,11.4,0,0,0,2.5-1.47,2.83,2.83,0,0,0,1.09-2.94,2.22,2.22,0,0,0-2-1.79,6.17,6.17,0,0,1-.62-.11c-2-.28-2.8-.89-2.71-2.92,0-.9.22-2.54.18-3.43-.06-1.46-.64-2.38-1.86-2.59a2.49,2.49,0,0,0-2.93,1.88,7.82,7.82,0,0,0-.34,1.41c-.31,2.05-.66,4.1-.87,6.16-.27,2.61-.95,4.27-3.33,5.55-4,2.16-8.42,4.71-12.4,7-1.5.85-3,1.73-4.55,2.49-2.23,1.09-3.71.18-3.77-2.23,0-.76,0-1.53.07-2.28.24-3.24.5-6.47.75-9.71.28-3.51.56-7,.8-10.53a8.86,8.86,0,0,0-.15-2.47,2.23,2.23,0,0,0-2.73-1.92c-1.16.11-1.9,1.08-2.09,2.48-.28,2-.41,3.66-.57,5.66-.36,4.33-.74,8.66-1.06,13-.23,3.1-.41,6.21-.57,9.31a6.43,6.43,0,0,1-4,6c-2.89,1.33-5.65,2.95-8.53,4.28a55.79,55.79,0,0,1-7.31,2.89,6,6,0,0,1-7-2.71,8.59,8.59,0,0,1-.68-6.12,27.44,27.44,0,0,1,1.44-4.46c.39-1,1.1-2.29,1.44-3.42.42-2.08-.69-3-2.31-3a3.46,3.46,0,0,0-2.9,1.89,20.83,20.83,0,0,0-3,12.68C359,36.55,363.3,40.79,369.59,40.94Z" style="fill:#baff00"/><path d="M189.16,79a8,8,0,0,0-1.81-.36c-1.11-.09-2.22,0-3.32-.18-2-.23-3.62-1.38-2.69-4.23.17-.53.37-1,.55-1.57a26.48,26.48,0,0,0,1.5-10.78,10.48,10.48,0,0,0-8-9.52c-5.21-1.13-9.84.42-14,3.6a4.52,4.52,0,0,0-1.16,1.44,2.83,2.83,0,0,0,.15,3.13,2.66,2.66,0,0,0,3.08.51c.81-.36,1.52-.95,2.32-1.35a29.93,29.93,0,0,1,4.48-2.11,5.91,5.91,0,0,1,7.09,3.2,8.29,8.29,0,0,1,.66,5.45,36.72,36.72,0,0,1-2.33,7.3c-1.64,4.11-3.55,4.37-7.13,4-.14,0-1-.09-1.1-.09a17.43,17.43,0,0,0-3.24,0,2.19,2.19,0,0,0-2.22,2.06,2.36,2.36,0,0,0,2.19,2.93c1.15.18,2.33.22,3.49.42a2.54,2.54,0,0,1,2.06,3.41,19.81,19.81,0,0,1-1,2.27q-2.13,4.62-4.28,9.22l-11.87,25.38c-1.88,4-3.76,8-5.7,12-2.62,5.35-5.29,10.66-8,16-1.65,3.28-3.35,6.53-5,9.8a5.43,5.43,0,0,0-.92,3.16,2.78,2.78,0,0,0,2.25,2,2.85,2.85,0,0,0,3.19-1.84c1.16-2.28,2.38-4.53,3.52-6.83q4.49-9,8.91-18.05c3.19-6.53,6.4-13,9.49-19.62,4.73-10.08,9.36-20.2,14.05-30.31.61-1.31,1.22-2.63,1.91-3.91a4.15,4.15,0,0,1,3.82-2.09,36.34,36.34,0,0,1,3.95.1c1.56.06,3.22.28,4.53.18a2.11,2.11,0,0,0,2.12-2.14A2.31,2.31,0,0,0,189.16,79Z" style="fill:#baff00"/><path d="M304.88,48a15.63,15.63,0,0,0-12.46-.78,16.58,16.58,0,0,0-7.87,5.87c-5.94,7.57-12,15-17.8,22.7-6.15,8.11-12.09,16.37-18.08,24.6-2.44,3.35-4.75,6.81-7.11,10.22a5,5,0,0,0-1.08,2.86c0,2.24,1.46,3.26,3.56,2.45a4.67,4.67,0,0,0,2.06-2c8.31-12.1,16.85-24,25.8-35.66,5.69-7.41,11.57-14.67,17.36-22a13.69,13.69,0,0,1,5-3.94,8.61,8.61,0,0,1,12,7.84c0,2.07-.23,4.14-.4,6.2-.39,4.89-.82,9.77-1.23,14.66Q304,89.52,303.29,98c-.28,3.51-.58,7-.87,10.52a22.47,22.47,0,0,0-.14,3,2.17,2.17,0,0,0,1.35,1.92,2.52,2.52,0,0,0,3.53-1.26,7,7,0,0,0,.37-1.82c.19-1.92.35-4.06.51-6q.63-7.42,1.25-14.85c.2-2.35.34-4.69.54-7,.34-3.92.73-7.83,1.06-11.75.22-2.62.37-5.21.63-7.85a21.3,21.3,0,0,0-.2-6A12.11,12.11,0,0,0,304.88,48Z" style="fill:#baff00"/><path d="M437.08,56.87a31.09,31.09,0,0,0,3.32-1.71,5.56,5.56,0,0,0,1.32-1,3.1,3.1,0,0,0,.42-3.31c-.43-.85-1.35-1.18-2.72-1-.27,0-.54.13-.81.18-2.52.47-3.59-.41-3.53-2.94,0-.41,0-.93,0-1.34a14.64,14.64,0,0,0-.18-2.65,2.18,2.18,0,0,0-2.34-1.89,2.4,2.4,0,0,0-2.39,1.9,14.15,14.15,0,0,0-.37,2.24c-.19,2-.37,4-.5,6a5.87,5.87,0,0,1-3.51,5.22c-2.79,1.38-5.51,2.89-8.27,4.33-5.65,2.94-11.32,5.84-17,8.8-9.87,5.18-19.79,10.25-30,14.75a33.81,33.81,0,0,1-4.67,1.69,5.36,5.36,0,0,1-2.61,0c-3.26-.92-5-4.38-4.35-7.9a18.75,18.75,0,0,1,2.36-6.17,5.46,5.46,0,0,0,1-3.41,2.2,2.2,0,0,0-2.07-1.89A3.15,3.15,0,0,0,357,68.53,21.66,21.66,0,0,0,353.55,80c0,.55,0,1.06.07,1.61A11.12,11.12,0,0,0,364.51,91.7a13.75,13.75,0,0,0,5.65-1.1c4.06-1.78,8.17-3.46,12.12-5.45,13.64-6.91,27.23-14,40.85-20.9a6.16,6.16,0,0,1,2.32-.76,1.73,1.73,0,0,1,1.78,1.62,9,9,0,0,1,.09,1.65c0,.62,0,1.26,0,1.87a2.29,2.29,0,0,0,2,2.08,2.44,2.44,0,0,0,2.73-1.4,5.45,5.45,0,0,0,.39-1.38c.29-1.85.58-3.69.8-5.54A6.39,6.39,0,0,1,437.08,56.87Z" style="fill:#baff00"/><path d="M208.62,36.26a2.53,2.53,0,0,0-2.21,1.55A6.74,6.74,0,0,0,206,40c-.14,2.07-.21,4.14-.31,6.2-.05,1.25-.07,2.49-.15,3.73-.21,3.31-.47,6.61-.66,9.91-.21,3.52-.34,7-.53,10.56-.23,4.13-.5,8.26-.72,12.4-.17,3.31-.29,6.62-.44,9.93-.05,1.17-.07,2.35-.14,3.52-.21,3.31-.49,6.61-.66,9.91-.23,4.21-.36,8.42-.59,12.63s-.53,8.4-.8,12.6c-.09,1.24-.22,2.48-.26,3.71a33.71,33.71,0,0,0-.13,3.91,2.59,2.59,0,0,0,3.36,2.24c1.39-.39,1.75-1.47,1.84-2.69q.39-5.26.71-10.53c.3-4.83.57-9.65.84-14.47q.42-7.65.83-15.31c.28-5.09.55-10.2.83-15.3l.84-15.51c.27-5.17.56-10.33.82-15.5.17-3.38.32-6.78.46-10.16a16.5,16.5,0,0,0-.17-3.9A2.23,2.23,0,0,0,208.62,36.26Z" style="fill:#baff00"/><path d="M267,40.1c.67-.2,1.88-.48,3-.92,5-1.89,9.92-3.85,14.89-5.74l44.4-16.82c1.29-.49,2.58-1,3.82-1.61a3.09,3.09,0,0,0,1.3-1.23,2.54,2.54,0,0,0-2.81-3.68,34.85,34.85,0,0,0-3.95,1.26q-13.57,5.1-27.15,10.25-16.95,6.48-33.87,13a9,9,0,0,0-1.67.83,2.71,2.71,0,0,0-1,3.13A2.36,2.36,0,0,0,267,40.1Z" style="fill:#baff00"/><path d="M139.78,84a2.61,2.61,0,0,0,3.09-.25A5.13,5.13,0,0,0,144,82.06c.68-1.51,1.23-3.07,1.92-4.58,2.68-5.9,5.42-11.78,8.09-17.69a11.79,11.79,0,0,0,1-3.33A2.14,2.14,0,0,0,152.67,54a3,3,0,0,0-2.9,1.92c-1.34,2.88-2.77,5.72-4.07,8.61-2.1,4.65-4.14,9.33-6.16,14a30,30,0,0,0-1,3.14C138.75,82.63,138.83,83.55,139.78,84Z" style="fill:#baff00"/><path d="M342.45,49.88a2.59,2.59,0,0,0-1-3.38c-.44-.19-1-.49-1.48-.66-4.94-2-9.87-3.93-14.84-5.81a8.93,8.93,0,0,0-3.31-.59,2.62,2.62,0,0,0-2.05,3.32c.31,1.14,1.2,1.5,2.21,1.89,5.14,2,10.27,4.05,15.41,6.05a12.06,12.06,0,0,0,2,.61C341,51.66,342,51,342.45,49.88Z" style="fill:#baff00"/><path d="M243.79,75a2.79,2.79,0,0,0-1.08-3.09,8.19,8.19,0,0,0-1.47-.76q-7.41-2.91-14.84-5.76a12,12,0,0,0-2.26-.65,2.58,2.58,0,0,0-3,1.74,2.61,2.61,0,0,0,1.22,3,7.43,7.43,0,0,0,1.29.65q7.6,3,15.22,6a8.25,8.25,0,0,0,2.11.57A2.5,2.5,0,0,0,243.79,75Z" style="fill:#baff00"/><path d="M778.74,35.47a5.6,5.6,0,0,0-2,.38,24.07,24.07,0,0,0-2.61,1.26c-2.17,1.14-3.72.62-4.65-1.65-.45-1.09-.8-2.21-1.22-3.31a8.32,8.32,0,0,0-.81-1.67,2.61,2.61,0,0,0-3.15-.81,2.33,2.33,0,0,0-1.46,2.67,15.5,15.5,0,0,0,.62,2.41c.47,1.44,1,2.87,1.46,4.32a3.53,3.53,0,0,1-1.45,4.17q-.6.42-1.23.78c-7.15,4.22-14.26,8.51-21.47,12.62-8.29,4.74-16.65,9.36-25,14a27.08,27.08,0,0,1-6.58,2.83c-1.9.43-4.55-.66-5.19-2.26a6.42,6.42,0,0,1-.44-3.9,25.24,25.24,0,0,1,1.25-4.81c1.3-4,3.46-7.54,5.4-11.2,5.61-10.57,11.29-21.11,16.91-31.67a13.06,13.06,0,0,0,1-2.6,2.53,2.53,0,0,0-.77-2.59,2.79,2.79,0,0,0-2.9-.41c-1,.39-1.5,1.49-2,2.33-1.85,3.4-3.64,6.84-5.47,10.26-3,5.73-6.14,11.46-9.18,17.21-2.23,4.22-4.49,8.43-6.58,12.72a28.53,28.53,0,0,0-3.06,12.17c0,.49,0,1.41.09,1.89.53,5,4.12,8.53,9.47,8.41a15.66,15.66,0,0,0,6.41-1.55c3.57-1.68,7.15-3.35,10.58-5.28,10-5.65,19.93-11.43,29.88-17.17,3.23-1.87,6.44-3.79,9.65-5.69a3,3,0,0,1,2.33-.56A3.06,3.06,0,0,1,769,51.1c.46,1.38.85,2.78,1.31,4.15a11.53,11.53,0,0,0,.81,1.91,2.62,2.62,0,0,0,2.86,1.15,2.16,2.16,0,0,0,1.81-2.23,7.78,7.78,0,0,0-.32-2.24c-.59-2.06-1.26-4.1-1.89-6.14-.7-2.24-.16-3.68,1.89-4.89q2-1.17,4-2.29a3.21,3.21,0,0,0,1.54-1.87A2.48,2.48,0,0,0,778.74,35.47Z" style="fill:#edff00"/><path d="M487.23,86.34a12.45,12.45,0,0,0-7-.29,42.82,42.82,0,0,0-6.5,2.09A126.34,126.34,0,0,0,456.3,97.7a6.4,6.4,0,0,0-.83.62,3,3,0,0,0-.64,3.54,2.43,2.43,0,0,0,2.91,1,9.83,9.83,0,0,0,2.46-1c3.79-2.15,7.51-4.44,11.35-6.5A36,36,0,0,1,481.9,91.2a6,6,0,0,1,2.24,0A5.61,5.61,0,0,1,488.6,98a31.9,31.9,0,0,1-2,6.33c-3.06,7.34-6.15,14.68-9.46,21.91-5.43,11.88-11,23.69-16.6,35.53-1.38,2.94-2.82,5.86-4.27,8.77q-3.27,6.6-6.58,13.19c-1.43,2.84-3,5.64-4.33,8.5a6.67,6.67,0,0,0-.89,2.71,2.54,2.54,0,0,0,2.34,2.5,2.91,2.91,0,0,0,2.89-1.64c.82-1.52,1.65-3,2.41-4.59,6.4-13,12.89-25.9,19.13-38.95,5.1-10.67,9.93-21.47,14.8-32.25a144,144,0,0,0,6.31-15.57,26.39,26.39,0,0,0,1.4-7.93c-.05-.83,0-1.67-.15-2.48C493,90.25,491,87.56,487.23,86.34Z" style="fill:#edff00"/><path d="M611.6,31.42a2.36,2.36,0,0,0-2.49,1.66,5.54,5.54,0,0,0-.25,1.21c-.29,2.82-.54,5.64-.84,8.45-.86,8.1-1.87,16.18-3.21,24.22a111.16,111.16,0,0,1-10.27,31.85A129.63,129.63,0,0,1,579.64,122c-3.08,3.82-6.33,7.51-9.65,11.12-2.66,2.9-5.5,5.65-8.35,8.37-2.7,2.57-5.53,5-8.3,7.51a4,4,0,0,0-1.48,2.65,2.34,2.34,0,0,0,3,2.65,5.58,5.58,0,0,0,2.71-1.44c3.65-3.29,7.42-6.45,10.89-9.91,4-4,7.91-8.15,11.59-12.46a138.71,138.71,0,0,0,20.33-31,111.09,111.09,0,0,0,7.79-22.28,164.31,164.31,0,0,0,3-16.93c1-8.21,2-16.43,3-24.65a8.66,8.66,0,0,0,0-2.44C614,32,612.91,31.48,611.6,31.42Z" style="fill:#edff00"/><path d="M416.52,175.83a5.63,5.63,0,0,0-2.73,1.4A118.87,118.87,0,0,1,401,186.82a25.43,25.43,0,0,1-5.18,2.55,5.19,5.19,0,0,1-6.16-2.78,8.23,8.23,0,0,1-.63-4.43c.2-2.75.46-6.23.75-9,.51-4.87,1.12-9.73,1.65-14.61a5.91,5.91,0,0,1,3.39-4.85c5.73-3.07,11.41-6.24,17.11-9.38a9.48,9.48,0,0,0,1.71-1.15,3.62,3.62,0,0,0,.56-3.68,2.71,2.71,0,0,0-3-.81,14.12,14.12,0,0,0-2.49,1c-3.52,1.92-7,3.88-10.54,5.82a5.25,5.25,0,0,1-1.12.54c-1.86.53-3.23-.22-2.95-2.25.14-1,.41-2.17.61-3.11a21.47,21.47,0,0,0,.55-3.27,2.17,2.17,0,0,0-1.71-2.47,2.46,2.46,0,0,0-3,1.16,8.68,8.68,0,0,0-.82,2.34c-.72,3.23-1.41,6.48-2.05,9.73a6.34,6.34,0,0,1-3.53,5c-1.43.87-2.55,1.39-3.82,2.09-2.61,1.44-5.2,2.89-7.82,4.31a3.34,3.34,0,0,0-1.83,2.37,2.4,2.4,0,0,0,2.44,2.8,6.93,6.93,0,0,0,3.51-1.05c1.64-.9,3.25-1.85,4.89-2.73,2.31-1.23,4-.16,3.94,2.44q0,.32,0,.63c-.59,6-1.13,11.7-1.72,17.72a14.9,14.9,0,0,0,.43,5.82c1.28,5.09,6.37,7.74,11.4,7.27a17.5,17.5,0,0,0,7.54-2.74,142.87,142.87,0,0,0,15-11.14,3.55,3.55,0,0,0,1.3-2.29A2.54,2.54,0,0,0,416.52,175.83Z" style="fill:#edff00"/><path d="M685.41,19.93a9.62,9.62,0,0,0-1.43-.15,19.71,19.71,0,0,0-8.32,1.44,132.42,132.42,0,0,0-15.36,7.31c-6.5,3.39-12.94,6.9-19.4,10.36l-9.15,4.9a3.05,3.05,0,0,0-1.83,2.07,2.55,2.55,0,0,0,2,3.15,4.76,4.76,0,0,0,3-.59c1.14-.66,2.31-1.25,3.47-1.87,5.5-2.93,11-5.87,16.49-8.77,6.18-3.25,12.36-6.52,18.6-9.66a26.78,26.78,0,0,1,8.57-3,4,4,0,0,1,4.65,5.07,24.32,24.32,0,0,1-1.58,4.48c-3,6.18-7.21,11.46-11.87,16.42-1.51,1.61-3.18,3.08-4.79,4.6a4.78,4.78,0,0,0-1.7,2.36,2.54,2.54,0,0,0,.71,2.67,3.25,3.25,0,0,0,3.13.41,7.81,7.81,0,0,0,2.31-1.83c2.52-2.47,5.05-4.93,7.37-7.58A60.31,60.31,0,0,0,690,37.31a20,20,0,0,0,2.17-8.58C692.14,23.31,689.72,20.93,685.41,19.93Z" style="fill:#edff00"/><path d="M427.78,100.35a14.45,14.45,0,0,0-2.17.87c-1.63.76-3.22,1.6-4.84,2.38l-31.55,15.27q-6.92,3.34-13.82,6.69l-23.91,11.56a7.47,7.47,0,0,0-1.43.82,3.08,3.08,0,0,0-.91,3.21,2.45,2.45,0,0,0,3,1.46,21.28,21.28,0,0,0,2.86-1.07c4.25-2,8.47-4.08,12.71-6.13q12.8-6.18,25.58-12.37c7.84-3.8,15.66-7.64,23.5-11.45,2.8-1.36,5.63-2.65,8.43-4,1.49-.72,3-1.46,4.44-2.25a2.82,2.82,0,0,0,1.43-3.66C430.57,100.46,429.43,99.9,427.78,100.35Z" style="fill:#edff00"/><path d="M523.37,65.11a2.49,2.49,0,0,0-2.67,2.09,9.87,9.87,0,0,0-.31,1.41q-.87,7.2-1.72,14.4-.74,6.08-1.45,12.14c-.62,5.14-1.26,10.28-1.85,15.42-.5,4.26-1,8.52-1.41,12.77q-1,9.48-2.05,18.95c-.2,1.85-.24,3.73-.53,5.56a8.14,8.14,0,0,0,0,2.83,2.25,2.25,0,0,0,2.23,1.71,2.49,2.49,0,0,0,2.55-1.7,13.41,13.41,0,0,0,.43-2.44c.35-3.65.62-7.3,1-10.94.64-6,1.35-11.93,2-17.9.57-5,1.13-10,1.72-15q1-8.43,2-16.86c.47-3.84,1-7.67,1.45-11.51.32-2.53.6-5.07.91-7.7a3,3,0,0,0,0-1A2.45,2.45,0,0,0,523.37,65.11Z" style="fill:#edff00"/><path d="M652.61,56.84a2.46,2.46,0,0,0-2.67,1.76,9,9,0,0,0-.35,1.62c-.26,2.47-.51,4.94-.73,7.41-.56,6.4-1.14,12.8-1.66,19.2-.49,5.91-.91,11.84-1.37,17.76,0,1,0,2.08,0,3.11a2.37,2.37,0,0,0,3.32,2,2.72,2.72,0,0,0,1.74-2.59c.19-1.71.31-3.44.44-5.16.2-2.89.35-5.79.59-8.68.47-5.71,1-11.42,1.5-17.12.38-4.2.82-8.39,1.18-12.58a33.12,33.12,0,0,0,.12-4.56A2.21,2.21,0,0,0,652.61,56.84Z" style="fill:#edff00"/><path d="M579.84,75.52a2.47,2.47,0,0,0,3.45-1.79,13.4,13.4,0,0,0,.26-1.78c.29-3.22.51-6.46.85-9.67.49-4.59,1.07-9.17,1.6-13.76l.66-5.54a7.88,7.88,0,0,0,0-1.46,2.16,2.16,0,0,0-2-2.24,2.31,2.31,0,0,0-2.75,1.63,9.25,9.25,0,0,0-.43,1.8c-.41,2.8-.86,5.59-1.16,8.4q-1.11,10.26-2.07,20.56a4.59,4.59,0,0,0,.17,2.62A2.77,2.77,0,0,0,579.84,75.52Z" style="fill:#edff00"/><path d="M461.37,81.42a25.13,25.13,0,0,0,2.43-.76q9.9-4.25,19.78-8.54a10.08,10.08,0,0,0,2.14-1.23,2.94,2.94,0,0,0,.69-3.23,2.64,2.64,0,0,0-2.84-1.24,14.25,14.25,0,0,0-2.57.82q-9.79,4.2-19.58,8.46a11.42,11.42,0,0,0-2,1.06,2.64,2.64,0,0,0-.91,3C458.89,80.91,459.68,81.44,461.37,81.42Z" style="fill:#edff00"/><path d="M561.53,92A2.24,2.24,0,0,0,563,89.36c-.15-1.33-.64-1.76-1.91-2.06a4.9,4.9,0,0,0-1.83,0c-6.23,1.24-12.46,2.52-18.69,3.79-1.69.34-3.39.65-5.06,1.1a2.63,2.63,0,0,0-2.11,2.91c.19,1.46,1.09,2.28,3.14,2.14.42-.06,1.17-.14,1.92-.3q9.94-2,19.9-4.07A19.25,19.25,0,0,0,561.53,92Z" style="fill:#edff00"/><path d="M61.93,95.55a17.44,17.44,0,0,0-2.51,1.11c-.8.4-1.77,1-2.69,1.43-1.73.91-3.1.47-4.32-1.08A27.23,27.23,0,0,0,47,91.41a17.11,17.11,0,0,0-11.54-3.23,10.51,10.51,0,0,0-2.24.31,2.44,2.44,0,0,0,.15,4.71,12.81,12.81,0,0,0,1.65.12,30.1,30.1,0,0,1,3.7.36,12.84,12.84,0,0,1,8.45,5.89,2.88,2.88,0,0,1-1,4.28c-.29.19-.6.34-.91.51-2.85,1.56-5.71,3.11-8.55,4.69a11.54,11.54,0,0,0-1.9,1.25,2.84,2.84,0,0,0-.64,3.34A2.38,2.38,0,0,0,37,114.85a7.9,7.9,0,0,0,2.14-.75c1.53-.79,3-1.66,4.54-2.5,1.1-.59,2.17-1.24,3.3-1.76a2.26,2.26,0,0,1,3.35,1.62,5.77,5.77,0,0,1,0,2,25.13,25.13,0,0,1-4.09,10.11,35.92,35.92,0,0,1-11.48,10.94c-4.2,2.75-8,4.92-11.94,7.15a2.68,2.68,0,0,1-2.94.17,3,3,0,0,1-1-2.87c.07-1,.14-2,.24-3q.64-6.9,1.26-13.82c.19-2.13.31-4.27.51-6.4q.72-7.83,1.48-15.67c.26-2.74.53-5,.74-7.7a15.6,15.6,0,0,0,0-3.54A2.14,2.14,0,0,0,20.91,87a2.33,2.33,0,0,0-2.51,1.43A5.84,5.84,0,0,0,18,90c-.39,3.77-.73,7-1.08,10.79q-.84,9.18-1.66,18.36c-.62,7.08-1.21,14.17-1.82,21.26-.12,1.44-.24,2.89-.43,4.33a5.33,5.33,0,0,1-2.84,4.31c-1.94,1.07-3.82,2.24-5.71,3.39A8.18,8.18,0,0,0,3,153.54,2.75,2.75,0,0,0,2.36,157a2.87,2.87,0,0,0,2.83,1.15,6.18,6.18,0,0,0,1.59-.57c.33-.16.87-.52,1.31-.72,1.88-.85,3.61-.32,3.71,1.67a10.81,10.81,0,0,1-.07,1.27c-.2,2-.43,4-.61,6q-.63,6.81-1.24,13.61Q9,189.66,8.08,200c-.29,3.23-.58,6.47-.88,9.7a19.35,19.35,0,0,0-.09,3.07,2.1,2.1,0,0,0,1.33,1.84,2.45,2.45,0,0,0,3.62-1.85,37.44,37.44,0,0,0,.46-4.11q.77-8.15,1.51-16.29c.34-3.85.64-7.71,1-11.56q.73-8.15,1.51-16.29c.31-3.44.62-6.88.95-10.31a5.72,5.72,0,0,1,3-4.69c5-2.9,10-5.88,15.05-8.81a48.65,48.65,0,0,0,11.85-9.33,33.2,33.2,0,0,0,7.08-12.08,30.74,30.74,0,0,0,1.26-11.07,4.64,4.64,0,0,1,2.55-4.58c1.1-.55,4.91-2.62,5.95-3.39a2.8,2.8,0,0,0,1-3.7A2.55,2.55,0,0,0,61.93,95.55Z" style="fill:#edff00"/><path d="M125.15,110.83a7.3,7.3,0,0,0-3.51,1.12c-1.83.9-3.53,0-3.63-1.76a14.26,14.26,0,0,1,.06-1.46q.62-6.92,1.22-13.83t1.27-14c.23-2.48.5-4.95.7-7.42.11-1.45.19-2.75.19-4.2a2.51,2.51,0,0,0-1.16-2.34,2.47,2.47,0,0,0-3.64,1.43,32.44,32.44,0,0,0-.74,5.11c-.37,4.12-.65,8.26-1,12.39-.47,5.22-1,10.44-1.48,15.66-.36,4-.65,8-1,12a5.35,5.35,0,0,1-3.75,5,27.72,27.72,0,0,1-10,1.33,15.1,15.1,0,0,1-10.53-4.69c-1.56-1.62-1.32-3.47.58-4.69a18.43,18.43,0,0,1,1.64-.89l10.44-5.11a9.77,9.77,0,0,0,1.46-.79,2.69,2.69,0,0,0,1-3.26,2.33,2.33,0,0,0-2.71-1.45,5.53,5.53,0,0,0-1.4.35c-.91.35-1.8.71-2.67,1.14-2.55,1.25-5.07,2.56-7.63,3.79a6,6,0,0,1-2.15.61,2,2,0,0,1-2.33-2.24,10.91,10.91,0,0,1,.36-2.46,22.68,22.68,0,0,1,8-12.3,56.58,56.58,0,0,1,11.69-7.08,14.39,14.39,0,0,0,2.64-1.6,2.71,2.71,0,0,0,.71-3.09,2.51,2.51,0,0,0-2.6-1.33,5.46,5.46,0,0,0-1.95.55c-4.69,2.23-9.41,4.4-13.5,7.69a28.31,28.31,0,0,0-9,11.72,27,27,0,0,0-1.85,10.76A4.89,4.89,0,0,1,76,110.5a60.7,60.7,0,0,0-5.92,3A3,3,0,0,0,69,117.16c.49,1.08,1.71,1.53,3.19,1.11a13.79,13.79,0,0,0,2-.78c1.13-.53,2.2-1.08,3.32-1.61,2.17-1,3.79-.58,5,1.28a17.8,17.8,0,0,0,11.45,7.29,31.94,31.94,0,0,0,8.93.52c2.68-.26,3.33-.41,4.84-.55a2.83,2.83,0,0,1,3.34,3.36c-.49,5.29-1,10.59-1.46,15.88q-.81,8.55-1.67,17.11c-.33,3.29-.75,6.58-1.06,9.88a6.13,6.13,0,0,0,.09,2.82,2.39,2.39,0,0,0,2.35,1.33,2.22,2.22,0,0,0,2.36-1.47,9.38,9.38,0,0,0,.51-2.57q.9-8.55,1.75-17.1c.57-5.78,1.1-11.55,1.65-17.32.38-4,.9-8,1.11-12,.19-3,1.56-4.24,3.93-5.57,1.92-1.12,3.44-1.78,5.12-2.75a3.45,3.45,0,0,0,1.69-2A2.51,2.51,0,0,0,125.15,110.83Z" style="fill:#edff00"/><path d="M379.59,40.94a17.18,17.18,0,0,0,7.26-1.5c2.86-1.23,5.65-2.61,8.48-3.93a10.18,10.18,0,0,1,1.7-.74,2.37,2.37,0,0,1,3.2,2.41,8.19,8.19,0,0,1,0,.85c-.26,3.79-.52,7.58-.8,11.71a13.2,13.2,0,0,0,0,2.35,2.3,2.3,0,0,0,2.39,2.37,2.46,2.46,0,0,0,2.55-2,6.44,6.44,0,0,0,.2-1.23c.26-3.37.52-6.75.76-10.12.2-2.76.37-5.52.56-8.27a5.15,5.15,0,0,1,2.74-4.38c5.18-2.93,10.38-5.82,15.57-8.73a4.61,4.61,0,0,1,2.44-.72,1.66,1.66,0,0,1,1.56,1.15,17.37,17.37,0,0,1,.53,1.91c.35,1.44,1,2.05,2.46,2.06a2.39,2.39,0,0,0,2.49-2,39.51,39.51,0,0,0,.84-4.72,6.57,6.57,0,0,1,4.11-5.76,11.4,11.4,0,0,0,2.5-1.47,2.83,2.83,0,0,0,1.09-2.94,2.22,2.22,0,0,0-2-1.79,6.17,6.17,0,0,1-.62-.11c-2-.28-2.8-.89-2.71-2.92,0-.9.22-2.54.18-3.43-.06-1.46-.64-2.38-1.86-2.59a2.49,2.49,0,0,0-2.93,1.88,7.82,7.82,0,0,0-.34,1.41c-.31,2.05-.66,4.1-.87,6.16-.27,2.61-.95,4.27-3.33,5.55-4,2.16-8.42,4.71-12.4,7-1.5.85-3,1.73-4.55,2.49-2.23,1.09-3.71.18-3.77-2.23,0-.76,0-1.53.07-2.28.24-3.24.5-6.47.75-9.71.28-3.51.56-7,.8-10.53a8.86,8.86,0,0,0-.15-2.47,2.23,2.23,0,0,0-2.73-1.92c-1.16.11-1.9,1.08-2.09,2.48-.28,2-.41,3.66-.57,5.66-.36,4.33-.74,8.66-1.06,13-.23,3.1-.41,6.21-.57,9.31a6.43,6.43,0,0,1-4,6c-2.89,1.33-5.65,2.95-8.53,4.28a55.79,55.79,0,0,1-7.31,2.89,6,6,0,0,1-7-2.71,8.59,8.59,0,0,1-.68-6.12,27.44,27.44,0,0,1,1.44-4.46c.39-1,1.1-2.29,1.44-3.42.42-2.08-.69-3-2.31-3a3.46,3.46,0,0,0-2.9,1.89,20.83,20.83,0,0,0-3,12.68C369,36.55,373.3,40.79,379.59,40.94Z" style="fill:#edff00"/><path d="M199.16,79a8,8,0,0,0-1.81-.36c-1.11-.09-2.22,0-3.32-.18-2-.23-3.62-1.38-2.69-4.23.17-.53.37-1,.55-1.57a26.48,26.48,0,0,0,1.5-10.78,10.48,10.48,0,0,0-8-9.52c-5.21-1.13-9.84.42-14,3.6a4.52,4.52,0,0,0-1.16,1.44,2.83,2.83,0,0,0,.15,3.13,2.66,2.66,0,0,0,3.08.51c.81-.36,1.52-.95,2.32-1.35a29.93,29.93,0,0,1,4.48-2.11,5.91,5.91,0,0,1,7.09,3.2,8.29,8.29,0,0,1,.66,5.45,36.72,36.72,0,0,1-2.33,7.3c-1.64,4.11-3.55,4.37-7.13,4-.14,0-1-.09-1.1-.09a17.43,17.43,0,0,0-3.24,0,2.19,2.19,0,0,0-2.22,2.06,2.36,2.36,0,0,0,2.19,2.93c1.15.18,2.33.22,3.49.42a2.54,2.54,0,0,1,2.06,3.41,19.81,19.81,0,0,1-1,2.27q-2.13,4.62-4.28,9.22l-11.87,25.38c-1.88,4-3.76,8-5.7,12-2.62,5.35-5.29,10.66-8,16-1.65,3.28-3.35,6.53-5,9.8a5.43,5.43,0,0,0-.92,3.16,2.78,2.78,0,0,0,2.25,2,2.85,2.85,0,0,0,3.19-1.84c1.16-2.28,2.38-4.53,3.52-6.83q4.49-9,8.91-18.05c3.19-6.53,6.4-13,9.49-19.62,4.73-10.08,9.36-20.2,14.05-30.31.61-1.31,1.22-2.63,1.91-3.91a4.15,4.15,0,0,1,3.82-2.09,36.34,36.34,0,0,1,3.95.1c1.56.06,3.22.28,4.53.18a2.11,2.11,0,0,0,2.12-2.14A2.31,2.31,0,0,0,199.16,79Z" style="fill:#edff00"/><path d="M314.88,48a15.63,15.63,0,0,0-12.46-.78,16.58,16.58,0,0,0-7.87,5.87c-5.94,7.57-12,15-17.8,22.7-6.15,8.11-12.09,16.37-18.08,24.6-2.44,3.35-4.75,6.81-7.11,10.22a5,5,0,0,0-1.08,2.86c0,2.24,1.46,3.26,3.56,2.45a4.67,4.67,0,0,0,2.06-2c8.31-12.1,16.85-24,25.8-35.66,5.69-7.41,11.57-14.67,17.36-22a13.69,13.69,0,0,1,5-3.94,8.61,8.61,0,0,1,12,7.84c0,2.07-.23,4.14-.4,6.2-.39,4.89-.82,9.77-1.23,14.66Q314,89.52,313.29,98c-.28,3.51-.58,7-.87,10.52a22.47,22.47,0,0,0-.14,3,2.17,2.17,0,0,0,1.35,1.92,2.52,2.52,0,0,0,3.53-1.26,7,7,0,0,0,.37-1.82c.19-1.92.35-4.06.51-6q.63-7.42,1.25-14.85c.2-2.35.34-4.69.54-7,.34-3.92.73-7.83,1.06-11.75.22-2.62.37-5.21.63-7.85a21.3,21.3,0,0,0-.2-6A12.11,12.11,0,0,0,314.88,48Z" style="fill:#edff00"/><path d="M447.08,56.87a31.09,31.09,0,0,0,3.32-1.71,5.56,5.56,0,0,0,1.32-1,3.1,3.1,0,0,0,.42-3.31c-.43-.85-1.35-1.18-2.72-1-.27,0-.54.13-.81.18-2.52.47-3.59-.41-3.53-2.94,0-.41,0-.93,0-1.34a14.64,14.64,0,0,0-.18-2.65,2.18,2.18,0,0,0-2.34-1.89,2.4,2.4,0,0,0-2.39,1.9,14.15,14.15,0,0,0-.37,2.24c-.19,2-.37,4-.5,6a5.87,5.87,0,0,1-3.51,5.22c-2.79,1.38-5.51,2.89-8.27,4.33-5.65,2.94-11.32,5.84-17,8.8-9.87,5.18-19.79,10.25-30,14.75a33.81,33.81,0,0,1-4.67,1.69,5.36,5.36,0,0,1-2.61,0c-3.26-.92-5-4.38-4.35-7.9a18.75,18.75,0,0,1,2.36-6.17,5.46,5.46,0,0,0,1-3.41,2.2,2.2,0,0,0-2.07-1.89A3.15,3.15,0,0,0,367,68.53,21.66,21.66,0,0,0,363.55,80c0,.55,0,1.06.07,1.61A11.12,11.12,0,0,0,374.51,91.7a13.75,13.75,0,0,0,5.65-1.1c4.06-1.78,8.17-3.46,12.12-5.45,13.64-6.91,27.23-14,40.85-20.9a6.16,6.16,0,0,1,2.32-.76,1.73,1.73,0,0,1,1.78,1.62,9,9,0,0,1,.09,1.65c0,.62,0,1.26,0,1.87a2.29,2.29,0,0,0,2,2.08,2.44,2.44,0,0,0,2.73-1.4,5.45,5.45,0,0,0,.39-1.38c.29-1.85.58-3.69.8-5.54A6.39,6.39,0,0,1,447.08,56.87Z" style="fill:#edff00"/><path d="M218.62,36.26a2.53,2.53,0,0,0-2.21,1.55A6.74,6.74,0,0,0,216,40c-.14,2.07-.21,4.14-.31,6.2-.05,1.25-.07,2.49-.15,3.73-.21,3.31-.47,6.61-.66,9.91-.21,3.52-.34,7-.53,10.56-.23,4.13-.5,8.26-.72,12.4-.17,3.31-.29,6.62-.44,9.93-.05,1.17-.07,2.35-.14,3.52-.21,3.31-.49,6.61-.66,9.91-.23,4.21-.36,8.42-.59,12.63s-.53,8.4-.8,12.6c-.09,1.24-.22,2.48-.26,3.71a33.71,33.71,0,0,0-.13,3.91,2.59,2.59,0,0,0,3.36,2.24c1.39-.39,1.75-1.47,1.84-2.69q.39-5.26.71-10.53c.3-4.83.57-9.65.84-14.47q.42-7.65.83-15.31c.28-5.09.55-10.2.83-15.3l.84-15.51c.27-5.17.56-10.33.82-15.5.17-3.38.32-6.78.46-10.16a16.5,16.5,0,0,0-.17-3.9A2.23,2.23,0,0,0,218.62,36.26Z" style="fill:#edff00"/><path d="M277,40.1c.67-.2,1.88-.48,3-.92,5-1.89,9.92-3.85,14.89-5.74l44.4-16.82c1.29-.49,2.58-1,3.82-1.61a3.09,3.09,0,0,0,1.3-1.23,2.54,2.54,0,0,0-2.81-3.68,34.85,34.85,0,0,0-3.95,1.26q-13.57,5.1-27.15,10.25-16.95,6.48-33.87,13a9,9,0,0,0-1.67.83,2.71,2.71,0,0,0-1,3.13A2.36,2.36,0,0,0,277,40.1Z" style="fill:#edff00"/><path d="M149.78,84a2.61,2.61,0,0,0,3.09-.25A5.13,5.13,0,0,0,154,82.06c.68-1.51,1.23-3.07,1.92-4.58,2.68-5.9,5.42-11.78,8.09-17.69a11.79,11.79,0,0,0,1-3.33A2.14,2.14,0,0,0,162.67,54a3,3,0,0,0-2.9,1.92c-1.34,2.88-2.77,5.72-4.07,8.61-2.1,4.65-4.14,9.33-6.16,14a30,30,0,0,0-1,3.14C148.75,82.63,148.83,83.55,149.78,84Z" style="fill:#edff00"/><path d="M352.45,49.88a2.59,2.59,0,0,0-1-3.38c-.44-.19-1-.49-1.48-.66-4.94-2-9.87-3.93-14.84-5.81a8.93,8.93,0,0,0-3.31-.59,2.62,2.62,0,0,0-2.05,3.32c.31,1.14,1.2,1.5,2.21,1.89,5.14,2,10.27,4.05,15.41,6.05a12.06,12.06,0,0,0,2,.61C351,51.66,352,51,352.45,49.88Z" style="fill:#edff00"/><path d="M253.79,75a2.79,2.79,0,0,0-1.08-3.09,8.19,8.19,0,0,0-1.47-.76q-7.41-2.91-14.84-5.76a12,12,0,0,0-2.26-.65,2.58,2.58,0,0,0-3,1.74,2.61,2.61,0,0,0,1.22,3,7.43,7.43,0,0,0,1.29.65q7.6,3,15.22,6a8.25,8.25,0,0,0,2.11.57A2.5,2.5,0,0,0,253.79,75Z" style="fill:#edff00"/><path d="M773.74,34.47a5.6,5.6,0,0,0-2,.38,24.07,24.07,0,0,0-2.61,1.26c-2.17,1.14-3.72.62-4.65-1.65-.45-1.09-.8-2.21-1.22-3.31a8.32,8.32,0,0,0-.81-1.67,2.61,2.61,0,0,0-3.15-.81,2.33,2.33,0,0,0-1.46,2.67,15.5,15.5,0,0,0,.62,2.41c.47,1.44,1,2.87,1.46,4.32a3.53,3.53,0,0,1-1.45,4.17q-.6.42-1.23.78c-7.15,4.22-14.26,8.51-21.47,12.62-8.29,4.74-16.65,9.36-25,14a27.08,27.08,0,0,1-6.58,2.83c-1.9.43-4.55-.66-5.19-2.26a6.42,6.42,0,0,1-.44-3.9,25.24,25.24,0,0,1,1.25-4.81c1.3-4,3.46-7.54,5.4-11.2,5.61-10.57,11.29-21.11,16.91-31.67a13.06,13.06,0,0,0,1-2.6,2.53,2.53,0,0,0-.77-2.59,2.79,2.79,0,0,0-2.9-.41c-1,.39-1.5,1.49-2,2.33-1.85,3.4-3.64,6.84-5.47,10.26-3,5.73-6.14,11.46-9.18,17.21-2.23,4.22-4.49,8.43-6.58,12.72a28.53,28.53,0,0,0-3.06,12.17c0,.49,0,1.41.09,1.89.53,5,4.12,8.53,9.47,8.41a15.66,15.66,0,0,0,6.41-1.55c3.57-1.68,7.15-3.35,10.58-5.28,10-5.65,19.93-11.43,29.88-17.17,3.23-1.87,6.44-3.79,9.65-5.69a3,3,0,0,1,2.33-.56A3.06,3.06,0,0,1,764,50.1c.46,1.38.85,2.78,1.31,4.15a11.53,11.53,0,0,0,.81,1.91,2.62,2.62,0,0,0,2.86,1.15,2.16,2.16,0,0,0,1.81-2.23,7.78,7.78,0,0,0-.32-2.24c-.59-2.06-1.26-4.1-1.89-6.14-.7-2.24-.16-3.68,1.89-4.89q2-1.17,4-2.29a3.21,3.21,0,0,0,1.54-1.87A2.48,2.48,0,0,0,773.74,34.47Z" style="fill:#1a1a1a"/><path d="M482.23,85.34a12.45,12.45,0,0,0-7-.29,42.82,42.82,0,0,0-6.5,2.09A126.34,126.34,0,0,0,451.3,96.7a6.4,6.4,0,0,0-.83.62,3,3,0,0,0-.64,3.54,2.43,2.43,0,0,0,2.91,1,9.83,9.83,0,0,0,2.46-1c3.79-2.15,7.51-4.44,11.35-6.5A36,36,0,0,1,476.9,90.2a6,6,0,0,1,2.24,0A5.61,5.61,0,0,1,483.6,97a31.9,31.9,0,0,1-2,6.33c-3.06,7.34-6.15,14.68-9.46,21.91-5.43,11.88-11,23.69-16.6,35.53-1.38,2.94-2.82,5.86-4.27,8.77q-3.27,6.6-6.58,13.19c-1.43,2.84-3,5.64-4.33,8.5a6.67,6.67,0,0,0-.89,2.71,2.54,2.54,0,0,0,2.34,2.5,2.91,2.91,0,0,0,2.89-1.64c.82-1.52,1.65-3,2.41-4.59,6.4-13,12.89-25.9,19.13-38.95,5.1-10.67,9.93-21.47,14.8-32.25a144,144,0,0,0,6.31-15.57,26.39,26.39,0,0,0,1.4-7.93c-.05-.83,0-1.67-.15-2.48C488,89.25,486,86.56,482.23,85.34Z" style="fill:#1a1a1a"/><path d="M606.6,30.42a2.36,2.36,0,0,0-2.49,1.66,5.54,5.54,0,0,0-.25,1.21c-.29,2.82-.54,5.64-.84,8.45-.86,8.1-1.87,16.18-3.21,24.22a111.16,111.16,0,0,1-10.27,31.85A129.63,129.63,0,0,1,574.64,121c-3.08,3.82-6.33,7.51-9.65,11.12-2.66,2.9-5.5,5.65-8.35,8.37-2.7,2.57-5.53,5-8.3,7.51a4,4,0,0,0-1.48,2.65,2.34,2.34,0,0,0,3,2.65,5.58,5.58,0,0,0,2.71-1.44c3.65-3.29,7.42-6.45,10.89-9.91,4-4,7.91-8.15,11.59-12.46a138.71,138.71,0,0,0,20.33-31,111.09,111.09,0,0,0,7.79-22.28,164.31,164.31,0,0,0,3-16.93c1-8.21,2-16.43,3-24.65a8.66,8.66,0,0,0,0-2.44C609,31,607.91,30.48,606.6,30.42Z" style="fill:#1a1a1a"/><path d="M411.52,174.83a5.63,5.63,0,0,0-2.73,1.4A118.87,118.87,0,0,1,396,185.82a25.43,25.43,0,0,1-5.18,2.55,5.19,5.19,0,0,1-6.16-2.78,8.23,8.23,0,0,1-.63-4.43c.2-2.75.46-6.23.75-9,.51-4.87,1.12-9.73,1.65-14.61a5.91,5.91,0,0,1,3.39-4.85c5.73-3.07,11.41-6.24,17.11-9.38a9.48,9.48,0,0,0,1.71-1.15,3.62,3.62,0,0,0,.56-3.68,2.71,2.71,0,0,0-3-.81,14.12,14.12,0,0,0-2.49,1c-3.52,1.92-7,3.88-10.54,5.82a5.25,5.25,0,0,1-1.12.54c-1.86.53-3.23-.22-2.95-2.25.14-1,.41-2.17.61-3.11a21.47,21.47,0,0,0,.55-3.27,2.17,2.17,0,0,0-1.71-2.47,2.46,2.46,0,0,0-3,1.16,8.68,8.68,0,0,0-.82,2.34c-.72,3.23-1.41,6.48-2.05,9.73a6.34,6.34,0,0,1-3.53,5c-1.43.87-2.55,1.39-3.82,2.09-2.61,1.44-5.2,2.89-7.82,4.31a3.34,3.34,0,0,0-1.83,2.37,2.4,2.4,0,0,0,2.44,2.8,6.93,6.93,0,0,0,3.51-1.05c1.64-.9,3.25-1.85,4.89-2.73,2.31-1.23,4-.16,3.94,2.44q0,.32,0,.63c-.59,6-1.13,11.7-1.72,17.72a14.9,14.9,0,0,0,.43,5.82c1.28,5.09,6.37,7.74,11.4,7.27a17.5,17.5,0,0,0,7.54-2.74,142.87,142.87,0,0,0,15-11.14,3.55,3.55,0,0,0,1.3-2.29A2.54,2.54,0,0,0,411.52,174.83Z" style="fill:#1a1a1a"/><path d="M680.41,18.93a9.62,9.62,0,0,0-1.43-.15,19.71,19.71,0,0,0-8.32,1.44,132.42,132.42,0,0,0-15.36,7.31c-6.5,3.39-12.94,6.9-19.4,10.36l-9.15,4.9a3.05,3.05,0,0,0-1.83,2.07,2.55,2.55,0,0,0,2,3.15,4.76,4.76,0,0,0,3-.59c1.14-.66,2.31-1.25,3.47-1.87,5.5-2.93,11-5.87,16.49-8.77,6.18-3.25,12.36-6.52,18.6-9.66a26.78,26.78,0,0,1,8.57-3,4,4,0,0,1,4.65,5.07,24.32,24.32,0,0,1-1.58,4.48c-3,6.18-7.21,11.46-11.87,16.42-1.51,1.61-3.18,3.08-4.79,4.6a4.78,4.78,0,0,0-1.7,2.36,2.54,2.54,0,0,0,.71,2.67,3.25,3.25,0,0,0,3.13.41,7.81,7.81,0,0,0,2.31-1.83c2.52-2.47,5.05-4.93,7.37-7.58A60.31,60.31,0,0,0,685,36.31a20,20,0,0,0,2.17-8.58C687.14,22.31,684.72,19.93,680.41,18.93Z" style="fill:#1a1a1a"/><path d="M422.78,99.35a14.45,14.45,0,0,0-2.17.87c-1.63.76-3.22,1.6-4.84,2.38l-31.55,15.27q-6.92,3.34-13.82,6.69l-23.91,11.56a7.47,7.47,0,0,0-1.43.82,3.08,3.08,0,0,0-.91,3.21,2.45,2.45,0,0,0,3,1.46,21.28,21.28,0,0,0,2.86-1.07c4.25-2,8.47-4.08,12.71-6.13q12.8-6.18,25.58-12.37c7.84-3.8,15.66-7.64,23.5-11.45,2.8-1.36,5.63-2.65,8.43-4,1.49-.72,3-1.46,4.44-2.25a2.82,2.82,0,0,0,1.43-3.66C425.57,99.46,424.43,98.9,422.78,99.35Z" style="fill:#1a1a1a"/><path d="M518.37,64.11a2.49,2.49,0,0,0-2.67,2.09,9.87,9.87,0,0,0-.31,1.41q-.87,7.2-1.72,14.4-.74,6.08-1.45,12.14c-.62,5.14-1.26,10.28-1.85,15.42-.5,4.26-.95,8.52-1.41,12.77q-1,9.48-2,18.95c-.2,1.85-.24,3.73-.53,5.56a8.14,8.14,0,0,0,0,2.83,2.25,2.25,0,0,0,2.23,1.71,2.49,2.49,0,0,0,2.55-1.7,13.41,13.41,0,0,0,.43-2.44c.35-3.65.62-7.3,1-10.94.64-6,1.35-11.93,2-17.9.57-5,1.13-10,1.72-15q1-8.43,2-16.86c.47-3.84,1-7.67,1.45-11.51.32-2.53.6-5.07.91-7.7a3,3,0,0,0,0-1A2.45,2.45,0,0,0,518.37,64.11Z" style="fill:#1a1a1a"/><path d="M647.61,55.84a2.46,2.46,0,0,0-2.67,1.76,9,9,0,0,0-.35,1.62c-.26,2.47-.51,4.94-.73,7.41-.56,6.4-1.14,12.8-1.66,19.2-.49,5.91-.91,11.84-1.37,17.76,0,1,0,2.08,0,3.11a2.37,2.37,0,0,0,3.32,2,2.72,2.72,0,0,0,1.74-2.59c.19-1.71.31-3.44.44-5.16.2-2.89.35-5.79.59-8.68.47-5.71,1-11.42,1.5-17.12.38-4.2.82-8.39,1.18-12.58a33.12,33.12,0,0,0,.12-4.56A2.21,2.21,0,0,0,647.61,55.84Z" style="fill:#1a1a1a"/><path d="M574.84,74.52a2.47,2.47,0,0,0,3.45-1.79,13.4,13.4,0,0,0,.26-1.78c.29-3.22.51-6.46.85-9.67.49-4.59,1.07-9.17,1.6-13.76l.66-5.54a7.88,7.88,0,0,0,0-1.46,2.16,2.16,0,0,0-2-2.24,2.31,2.31,0,0,0-2.75,1.63,9.25,9.25,0,0,0-.43,1.8c-.41,2.8-.86,5.59-1.16,8.4q-1.11,10.26-2.07,20.56a4.59,4.59,0,0,0,.17,2.62A2.77,2.77,0,0,0,574.84,74.52Z" style="fill:#1a1a1a"/><path d="M456.37,80.42a25.13,25.13,0,0,0,2.43-.76q9.9-4.25,19.78-8.54a10.08,10.08,0,0,0,2.14-1.23,2.94,2.94,0,0,0,.69-3.23,2.64,2.64,0,0,0-2.84-1.24,14.25,14.25,0,0,0-2.57.82q-9.79,4.2-19.58,8.46a11.42,11.42,0,0,0-2,1.06,2.64,2.64,0,0,0-.91,3C453.89,79.91,454.68,80.44,456.37,80.42Z" style="fill:#1a1a1a"/><path d="M556.53,91A2.24,2.24,0,0,0,558,88.36c-.15-1.33-.64-1.76-1.91-2.06a4.9,4.9,0,0,0-1.83,0c-6.23,1.24-12.46,2.52-18.69,3.79-1.69.34-3.39.65-5.06,1.1a2.63,2.63,0,0,0-2.11,2.91c.19,1.46,1.09,2.28,3.14,2.14.42-.06,1.17-.14,1.92-.3q9.94-2,19.9-4.07A19.25,19.25,0,0,0,556.53,91Z" style="fill:#1a1a1a"/><path d="M56.93,94.55a17.44,17.44,0,0,0-2.51,1.11c-.8.4-1.77,1-2.69,1.43-1.73.91-3.1.47-4.32-1.08A27.23,27.23,0,0,0,42,90.41a17.11,17.11,0,0,0-11.54-3.23,10.51,10.51,0,0,0-2.24.31,2.44,2.44,0,0,0,.15,4.71,12.81,12.81,0,0,0,1.65.12,30.1,30.1,0,0,1,3.7.36,12.84,12.84,0,0,1,8.45,5.89,2.88,2.88,0,0,1-1,4.28c-.29.19-.6.34-.91.51-2.85,1.56-5.71,3.11-8.55,4.69a11.54,11.54,0,0,0-1.9,1.25,2.84,2.84,0,0,0-.64,3.34A2.38,2.38,0,0,0,32,113.85a7.9,7.9,0,0,0,2.14-.75c1.53-.79,3-1.66,4.54-2.5,1.1-.59,2.17-1.24,3.3-1.76a2.26,2.26,0,0,1,3.35,1.62,5.77,5.77,0,0,1,0,2,25.13,25.13,0,0,1-4.09,10.11,35.92,35.92,0,0,1-11.48,10.94c-4.2,2.75-8,4.92-11.94,7.15a2.68,2.68,0,0,1-2.94.17,3,3,0,0,1-1-2.87c.07-1,.14-2,.24-3q.64-6.9,1.26-13.82c.19-2.13.31-4.27.51-6.4q.72-7.83,1.48-15.67c.26-2.74.53-5,.74-7.7a15.6,15.6,0,0,0,0-3.54A2.14,2.14,0,0,0,15.91,86a2.33,2.33,0,0,0-2.51,1.43A5.84,5.84,0,0,0,13,89c-.39,3.77-.73,7-1.08,10.79q-.84,9.18-1.66,18.36c-.62,7.08-1.21,14.17-1.82,21.26-.12,1.44-.24,2.89-.43,4.33a5.33,5.33,0,0,1-2.84,4.31c-1.94,1.07-3.82,2.24-5.71,3.39A8.18,8.18,0,0,0-2,152.54,2.75,2.75,0,0,0-2.64,156a2.87,2.87,0,0,0,2.83,1.15,6.18,6.18,0,0,0,1.59-.57c.33-.16.87-.52,1.31-.72C5,155,6.7,155.5,6.8,157.49a10.81,10.81,0,0,1-.07,1.27c-.2,2-.43,4-.61,6q-.63,6.81-1.24,13.61Q4,188.66,3.08,199c-.29,3.23-.58,6.47-.88,9.7a19.35,19.35,0,0,0-.09,3.07,2.1,2.1,0,0,0,1.33,1.84,2.45,2.45,0,0,0,3.62-1.85,37.44,37.44,0,0,0,.46-4.11q.77-8.15,1.51-16.29c.34-3.85.64-7.71,1-11.56q.73-8.15,1.51-16.29c.31-3.44.62-6.88,1-10.31a5.72,5.72,0,0,1,3-4.69c5-2.9,10-5.88,15.05-8.81a48.65,48.65,0,0,0,11.85-9.33,33.2,33.2,0,0,0,7.08-12.08,30.74,30.74,0,0,0,1.26-11.07,4.64,4.64,0,0,1,2.55-4.58c1.1-.55,4.91-2.62,6-3.39a2.8,2.8,0,0,0,1-3.7A2.55,2.55,0,0,0,56.93,94.55Z" style="fill:#1a1a1a"/><path d="M120.15,109.83a7.3,7.3,0,0,0-3.51,1.12c-1.83.9-3.53,0-3.63-1.76a14.26,14.26,0,0,1,.06-1.46q.62-6.92,1.22-13.83t1.27-14c.23-2.48.5-4.95.7-7.42.11-1.45.19-2.75.19-4.2a2.51,2.51,0,0,0-1.16-2.34,2.47,2.47,0,0,0-3.64,1.43,32.44,32.44,0,0,0-.74,5.11c-.37,4.12-.65,8.26-1,12.39-.47,5.22-1,10.44-1.48,15.66-.36,4-.65,8-1,12a5.35,5.35,0,0,1-3.75,5,27.72,27.72,0,0,1-10,1.33,15.1,15.1,0,0,1-10.53-4.69c-1.56-1.62-1.32-3.47.58-4.69a18.43,18.43,0,0,1,1.64-.89l10.44-5.11a9.77,9.77,0,0,0,1.46-.79,2.69,2.69,0,0,0,1-3.26,2.33,2.33,0,0,0-2.71-1.45,5.53,5.53,0,0,0-1.4.35c-.91.35-1.8.71-2.67,1.14-2.55,1.25-5.07,2.56-7.63,3.79a6,6,0,0,1-2.15.61,2,2,0,0,1-2.33-2.24,10.91,10.91,0,0,1,.36-2.46,22.68,22.68,0,0,1,8-12.3,56.58,56.58,0,0,1,11.69-7.08,14.39,14.39,0,0,0,2.64-1.6,2.71,2.71,0,0,0,.71-3.09,2.51,2.51,0,0,0-2.6-1.33,5.46,5.46,0,0,0-1.95.55c-4.69,2.23-9.41,4.4-13.5,7.69a28.31,28.31,0,0,0-9,11.72,27,27,0,0,0-1.85,10.76A4.89,4.89,0,0,1,71,109.5a60.7,60.7,0,0,0-5.92,3A3,3,0,0,0,64,116.16c.49,1.08,1.71,1.53,3.19,1.11a13.79,13.79,0,0,0,2-.78c1.13-.53,2.2-1.08,3.32-1.61,2.17-1,3.79-.58,5,1.28a17.8,17.8,0,0,0,11.45,7.29,31.94,31.94,0,0,0,8.93.52c2.68-.26,3.33-.41,4.84-.55a2.83,2.83,0,0,1,3.34,3.36c-.49,5.29-1,10.59-1.46,15.88q-.81,8.55-1.67,17.11c-.33,3.29-.75,6.58-1.06,9.88a6.13,6.13,0,0,0,.09,2.82,2.39,2.39,0,0,0,2.35,1.33,2.22,2.22,0,0,0,2.36-1.47,9.38,9.38,0,0,0,.51-2.57q.9-8.55,1.75-17.1c.57-5.78,1.1-11.55,1.65-17.32.38-4,.9-8,1.11-12,.19-3,1.56-4.24,3.93-5.57,1.92-1.12,3.44-1.78,5.12-2.75a3.45,3.45,0,0,0,1.69-2A2.51,2.51,0,0,0,120.15,109.83Z" style="fill:#1a1a1a"/><path d="M374.59,39.94a17.18,17.18,0,0,0,7.26-1.5c2.86-1.23,5.65-2.61,8.48-3.93a10.18,10.18,0,0,1,1.7-.74,2.37,2.37,0,0,1,3.2,2.41,8.19,8.19,0,0,1,0,.85c-.26,3.79-.52,7.58-.8,11.71a13.2,13.2,0,0,0,0,2.35,2.3,2.3,0,0,0,2.39,2.37,2.46,2.46,0,0,0,2.55-2,6.44,6.44,0,0,0,.2-1.23c.26-3.37.52-6.75.76-10.12.2-2.76.37-5.52.56-8.27a5.15,5.15,0,0,1,2.74-4.38c5.18-2.93,10.38-5.82,15.57-8.73a4.61,4.61,0,0,1,2.44-.72,1.66,1.66,0,0,1,1.56,1.15,17.37,17.37,0,0,1,.53,1.91c.35,1.44,1,2.05,2.46,2.06a2.39,2.39,0,0,0,2.49-2,39.51,39.51,0,0,0,.84-4.72,6.57,6.57,0,0,1,4.11-5.76,11.4,11.4,0,0,0,2.5-1.47,2.83,2.83,0,0,0,1.09-2.94,2.22,2.22,0,0,0-2-1.79,6.17,6.17,0,0,1-.62-.11c-2-.28-2.8-.89-2.71-2.92,0-.9.22-2.54.18-3.43-.06-1.46-.64-2.38-1.86-2.59a2.49,2.49,0,0,0-2.93,1.88,7.82,7.82,0,0,0-.34,1.41c-.31,2.05-.66,4.1-.87,6.16-.27,2.61-.95,4.27-3.33,5.55-4,2.16-8.42,4.71-12.4,7-1.5.85-3,1.73-4.55,2.49-2.23,1.09-3.71.18-3.77-2.23,0-.76,0-1.53.07-2.28.24-3.24.5-6.47.75-9.71.28-3.51.56-7,.8-10.53a8.86,8.86,0,0,0-.15-2.47,2.23,2.23,0,0,0-2.73-1.92c-1.16.11-1.9,1.08-2.09,2.48-.28,2-.41,3.66-.57,5.66-.36,4.33-.74,8.66-1.06,13-.23,3.1-.41,6.21-.57,9.31a6.43,6.43,0,0,1-4,6c-2.89,1.33-5.65,2.95-8.53,4.28a55.79,55.79,0,0,1-7.31,2.89,6,6,0,0,1-7-2.71,8.59,8.59,0,0,1-.68-6.12,27.44,27.44,0,0,1,1.44-4.46c.39-1,1.1-2.29,1.44-3.42.42-2.08-.69-3-2.31-3a3.46,3.46,0,0,0-2.9,1.89,20.83,20.83,0,0,0-3,12.68C364,35.55,368.3,39.79,374.59,39.94Z" style="fill:#1a1a1a"/><path d="M194.16,78a8,8,0,0,0-1.81-.36c-1.11-.09-2.22,0-3.32-.18-2-.23-3.62-1.38-2.69-4.23.17-.53.37-1,.55-1.57a26.48,26.48,0,0,0,1.5-10.78,10.48,10.48,0,0,0-8-9.52c-5.21-1.13-9.84.42-14,3.6a4.52,4.52,0,0,0-1.16,1.44,2.83,2.83,0,0,0,.15,3.13,2.66,2.66,0,0,0,3.08.51c.81-.36,1.52-.95,2.32-1.35a29.93,29.93,0,0,1,4.48-2.11,5.91,5.91,0,0,1,7.09,3.2,8.29,8.29,0,0,1,.66,5.45,36.72,36.72,0,0,1-2.33,7.3c-1.64,4.11-3.55,4.37-7.13,4-.14,0-1-.09-1.1-.09a17.43,17.43,0,0,0-3.24,0,2.19,2.19,0,0,0-2.22,2.06,2.36,2.36,0,0,0,2.19,2.93c1.15.18,2.33.22,3.49.42a2.54,2.54,0,0,1,2.06,3.41,19.81,19.81,0,0,1-1,2.27q-2.13,4.62-4.28,9.22l-11.87,25.38c-1.88,4-3.76,8-5.7,12-2.62,5.35-5.29,10.66-8,16-1.65,3.28-3.35,6.53-5,9.8a5.43,5.43,0,0,0-.92,3.16,2.78,2.78,0,0,0,2.25,2,2.85,2.85,0,0,0,3.19-1.84c1.16-2.28,2.38-4.53,3.52-6.83q4.49-9,8.91-18.05c3.19-6.53,6.4-13,9.49-19.62,4.73-10.08,9.36-20.2,14.05-30.31.61-1.31,1.22-2.63,1.91-3.91a4.15,4.15,0,0,1,3.82-2.09,36.34,36.34,0,0,1,3.95.1c1.56.06,3.22.28,4.53.18a2.11,2.11,0,0,0,2.12-2.14A2.31,2.31,0,0,0,194.16,78Z" style="fill:#1a1a1a"/><path d="M309.88,47a15.63,15.63,0,0,0-12.46-.78,16.58,16.58,0,0,0-7.87,5.87c-5.94,7.57-12,15-17.8,22.7-6.15,8.11-12.09,16.37-18.08,24.6-2.44,3.35-4.75,6.81-7.11,10.22a5,5,0,0,0-1.08,2.86c0,2.24,1.46,3.26,3.56,2.45a4.67,4.67,0,0,0,2.06-2c8.31-12.1,16.85-24,25.8-35.66,5.69-7.41,11.57-14.67,17.36-22a13.69,13.69,0,0,1,5-3.94,8.61,8.61,0,0,1,12,7.84c0,2.07-.23,4.14-.4,6.2-.39,4.89-.82,9.77-1.23,14.66Q309,88.52,308.29,97c-.28,3.51-.58,7-.87,10.52a22.47,22.47,0,0,0-.14,3,2.17,2.17,0,0,0,1.35,1.92,2.52,2.52,0,0,0,3.53-1.26,7,7,0,0,0,.37-1.82c.19-1.92.35-4.06.51-6q.63-7.42,1.25-14.85c.2-2.35.34-4.69.54-7,.34-3.92.73-7.83,1.06-11.75.22-2.62.37-5.21.63-7.85a21.3,21.3,0,0,0-.2-6A12.11,12.11,0,0,0,309.88,47Z" style="fill:#1a1a1a"/><path d="M442.08,55.87a31.09,31.09,0,0,0,3.32-1.71,5.56,5.56,0,0,0,1.32-1,3.1,3.1,0,0,0,.42-3.31c-.43-.85-1.35-1.18-2.72-1-.27,0-.54.13-.81.18-2.52.47-3.59-.41-3.53-2.94,0-.41,0-.93,0-1.34a14.64,14.64,0,0,0-.18-2.65,2.18,2.18,0,0,0-2.34-1.89,2.4,2.4,0,0,0-2.39,1.9,14.15,14.15,0,0,0-.37,2.24c-.19,2-.37,4-.5,6a5.87,5.87,0,0,1-3.51,5.22c-2.79,1.38-5.51,2.89-8.27,4.33-5.65,2.94-11.32,5.84-17,8.8-9.87,5.18-19.79,10.25-30,14.75a33.81,33.81,0,0,1-4.67,1.69,5.36,5.36,0,0,1-2.61,0c-3.26-.92-5-4.38-4.35-7.9a18.75,18.75,0,0,1,2.36-6.17,5.46,5.46,0,0,0,1-3.41,2.2,2.2,0,0,0-2.07-1.89A3.15,3.15,0,0,0,362,67.53,21.66,21.66,0,0,0,358.55,79c0,.55,0,1.06.07,1.61A11.12,11.12,0,0,0,369.51,90.7a13.75,13.75,0,0,0,5.65-1.1c4.06-1.78,8.17-3.46,12.12-5.45,13.64-6.91,27.23-14,40.85-20.9a6.16,6.16,0,0,1,2.32-.76,1.73,1.73,0,0,1,1.78,1.62,9,9,0,0,1,.09,1.65c0,.62,0,1.26,0,1.87a2.29,2.29,0,0,0,2,2.08,2.44,2.44,0,0,0,2.73-1.4,5.45,5.45,0,0,0,.39-1.38c.29-1.85.58-3.69.8-5.54A6.39,6.39,0,0,1,442.08,55.87Z" style="fill:#1a1a1a"/><path d="M213.62,35.26a2.53,2.53,0,0,0-2.21,1.55A6.74,6.74,0,0,0,211,39c-.14,2.07-.21,4.14-.31,6.2-.05,1.25-.07,2.49-.15,3.73-.21,3.31-.47,6.61-.66,9.91-.21,3.52-.34,7-.53,10.56-.23,4.13-.5,8.26-.72,12.4-.17,3.31-.29,6.62-.44,9.93-.05,1.17-.07,2.35-.14,3.52-.21,3.31-.49,6.61-.66,9.91-.23,4.21-.36,8.42-.59,12.63s-.53,8.4-.8,12.6c-.09,1.24-.22,2.48-.26,3.71a33.71,33.71,0,0,0-.13,3.91,2.59,2.59,0,0,0,3.36,2.24c1.39-.39,1.75-1.47,1.84-2.69q.39-5.26.71-10.53c.3-4.83.57-9.65.84-14.47q.42-7.65.83-15.31c.28-5.09.55-10.2.83-15.3l.84-15.51c.27-5.17.56-10.33.82-15.5.17-3.38.32-6.78.46-10.16a16.5,16.5,0,0,0-.17-3.9A2.23,2.23,0,0,0,213.62,35.26Z" style="fill:#1a1a1a"/><path d="M272,39.1c.67-.2,1.88-.48,3-.92,5-1.89,9.92-3.85,14.89-5.74l44.4-16.82c1.29-.49,2.58-1,3.82-1.61a3.09,3.09,0,0,0,1.3-1.23,2.45,2.45,0,0,0-.22-2.75,2.43,2.43,0,0,0-2.59-.93,34.85,34.85,0,0,0-3.95,1.26q-13.57,5.1-27.15,10.25-16.95,6.48-33.87,13a9,9,0,0,0-1.67.83,2.71,2.71,0,0,0-1,3.13A2.36,2.36,0,0,0,272,39.1Z" style="fill:#1a1a1a"/><path d="M144.78,83a2.61,2.61,0,0,0,3.09-.25A5.13,5.13,0,0,0,149,81.06c.68-1.51,1.23-3.07,1.92-4.58,2.68-5.9,5.42-11.78,8.09-17.69a11.79,11.79,0,0,0,1-3.33A2.14,2.14,0,0,0,157.67,53a3,3,0,0,0-2.9,1.92c-1.34,2.88-2.77,5.72-4.07,8.61-2.1,4.65-4.14,9.33-6.16,14a30,30,0,0,0-1,3.14C143.75,81.63,143.83,82.55,144.78,83Z" style="fill:#1a1a1a"/><path d="M347.45,48.88a2.59,2.59,0,0,0-1-3.38c-.44-.19-1-.49-1.48-.66-4.94-2-9.87-3.93-14.84-5.81a8.93,8.93,0,0,0-3.31-.59,2.62,2.62,0,0,0-2.05,3.32c.31,1.14,1.2,1.5,2.21,1.89,5.14,2,10.27,4.05,15.41,6.05a12.06,12.06,0,0,0,2,.61C346,50.66,347,50,347.45,48.88Z" style="fill:#1a1a1a"/><path d="M248.79,74a2.79,2.79,0,0,0-1.08-3.09,8.19,8.19,0,0,0-1.47-.76q-7.41-2.91-14.84-5.76a12,12,0,0,0-2.26-.65,2.58,2.58,0,0,0-3,1.74,2.61,2.61,0,0,0,1.22,3,7.43,7.43,0,0,0,1.29.65q7.6,3,15.22,6a8.25,8.25,0,0,0,2.11.57A2.5,2.5,0,0,0,248.79,74Z" style="fill:#1a1a1a"/></g></svg>