<svg width="450" height="450" viewBox="0 0 450 450" fill="none" xmlns="http://www.w3.org/2000/svg">
<circle cx="225" cy="225" r="225" fill="black"/>
<path d="M228.623 113.877C241.04 113.687 253.362 113.782 265.684 113.687C266.443 128.189 271.656 142.976 282.272 153.213C292.888 163.734 307.864 168.568 322.461 170.179V208.378C308.812 207.904 295.068 205.061 282.651 199.184C277.248 196.719 272.225 193.591 267.296 190.369C267.201 218.046 267.39 245.724 267.106 273.306C266.348 286.576 261.988 299.751 254.31 310.652C241.893 328.85 220.377 340.699 198.292 341.078C184.737 341.836 171.183 338.139 159.619 331.315C140.473 320.035 127.013 299.372 125.023 277.192C124.833 272.453 124.738 267.714 124.928 263.069C126.634 245.06 135.544 227.809 149.382 216.056C165.117 202.407 187.107 195.866 207.676 199.753C207.865 213.781 207.296 227.809 207.296 241.837C197.913 238.804 186.918 239.657 178.671 245.344C172.7 249.231 168.15 255.202 165.78 261.932C163.79 266.766 164.359 272.074 164.453 277.192C166.728 292.737 181.704 305.818 197.628 304.396C208.244 304.301 218.386 298.14 223.884 289.135C225.685 286.007 227.675 282.785 227.77 279.088C228.718 262.121 228.339 245.25 228.434 228.283C228.528 190.084 228.339 151.981 228.623 113.877V113.877Z" fill="white"/>
<g style="mix-blend-mode:screen">
<path d="M221.799 108.19C234.216 108 246.538 108.095 258.86 108C259.618 122.502 264.831 137.289 275.447 147.526C286.063 158.047 301.039 162.881 315.636 164.492V202.691C301.987 202.217 288.243 199.373 275.826 193.497C270.424 191.032 265.4 187.904 260.471 184.682C260.376 212.359 260.566 240.036 260.282 267.619C259.523 280.889 255.163 294.064 247.486 304.964C235.069 323.163 213.552 335.011 191.467 335.391C177.913 336.149 164.359 332.452 152.795 325.628C133.648 314.348 120.189 293.685 118.198 271.505C118.009 266.766 117.914 262.027 118.103 257.382C119.809 239.373 128.719 222.122 142.558 210.368C158.292 196.719 180.283 190.179 200.851 194.065C201.041 208.094 200.472 222.122 200.472 236.15C191.088 233.117 180.093 233.97 171.847 239.657C165.875 243.543 161.326 249.515 158.956 256.245C156.965 261.079 157.534 266.387 157.629 271.505C159.904 287.05 174.88 300.13 190.804 298.709C201.42 298.614 211.562 292.453 217.059 283.448C218.86 280.32 220.851 277.097 220.946 273.401C221.893 256.434 221.514 239.562 221.609 222.596C221.704 184.397 221.514 146.293 221.799 108.19V108.19Z" fill="#25F4EE"/>
</g>
<g style="mix-blend-mode:screen">
<path d="M236.585 120.702C249.002 120.512 261.324 120.607 273.646 120.512C274.405 135.014 279.618 149.801 290.234 160.038C300.85 170.559 315.826 175.393 330.423 177.004V215.203C316.774 214.729 303.03 211.885 290.613 206.009C285.21 203.544 280.187 200.416 275.258 197.193C275.163 224.871 275.353 252.548 275.068 280.131C274.31 293.401 269.95 306.576 262.272 317.476C249.855 335.675 228.339 347.523 206.254 347.902C192.7 348.661 179.145 344.964 167.581 338.14C148.435 326.86 134.975 306.197 132.985 284.017C132.795 279.278 132.7 274.538 132.89 269.894C134.596 251.885 143.506 234.634 157.345 222.88C173.079 209.231 195.069 202.691 215.638 206.577C215.827 220.606 215.259 234.634 215.259 248.662C205.875 245.629 194.88 246.482 186.633 252.169C180.662 256.055 176.112 262.027 173.743 268.757C171.752 273.591 172.321 278.899 172.416 284.017C174.69 299.562 189.666 312.642 205.59 311.22C216.206 311.126 226.348 304.965 231.846 295.96C233.647 292.832 235.637 289.609 235.732 285.913C236.68 268.946 236.301 252.074 236.396 235.108C236.491 196.909 236.301 158.805 236.585 120.702V120.702Z" fill="#FE2C55"/>
</g>
</svg>
