<svg width="450" height="450" viewBox="0 0 450 450" fill="none" xmlns="http://www.w3.org/2000/svg">
<circle cx="225" cy="225" r="225" fill="#49ABF8"/>
<path d="M351.183 158.758C342.13 162.663 332.278 165.473 322.13 166.568C332.666 160.309 340.556 150.42 344.319 138.758C334.433 144.639 323.602 148.763 312.308 150.947C307.587 145.9 301.878 141.88 295.535 139.136C289.193 136.393 282.354 134.985 275.444 135C247.485 135 225 157.663 225 185.473C225 189.379 225.473 193.284 226.243 197.042C184.379 194.852 147.041 174.852 122.219 144.231C117.696 151.956 115.326 160.752 115.355 169.704C115.355 187.219 124.26 202.663 137.84 211.746C129.837 211.43 122.022 209.231 115.03 205.326V205.947C115.03 230.473 132.367 250.799 155.473 255.473C151.135 256.6 146.672 257.177 142.189 257.189C138.905 257.189 135.799 256.864 132.663 256.42C139.053 276.42 157.663 290.947 179.822 291.42C162.485 305 140.769 312.988 117.189 312.988C112.959 312.988 109.053 312.84 105 312.367C127.367 326.716 153.905 335 182.485 335C275.266 335 326.035 258.136 326.035 191.42C326.035 189.231 326.035 187.042 325.887 184.852C335.71 177.663 344.319 168.757 351.183 158.758Z" fill="white"/>
</svg>
