<svg id="レイヤー_1" data-name="レイヤー 1" xmlns="http://www.w3.org/2000/svg" viewBox="0 0 430.43 430.43"><title>SNSs</title><rect width="430.43" height="430.43" rx="215.21" ry="215.21" style="fill:#00abff"/><path d="M79.67,311.93c30,2.5,56.8-5.15,81-23.86-25.79-2.39-42.53-15.64-51.84-39.78,8.57.7,16.32,1.21,24.13-1.14C105.36,238.4,91,219.73,89.61,191c7.76,3.11,15.38,6,24.6,6.11-12.29-9.22-19.95-20.69-23-35S90.14,134.3,97.37,121c30,36,67.87,56.3,114.81,59.71-.33-3.89-.82-7.36-.88-10.85-.41-23.3,9.17-41.39,29.57-52.69,21.83-12.1,47-8.07,64.91,9.35a4.55,4.55,0,0,0,4.77,1.24,109.85,109.85,0,0,0,29.61-11.54c.75-.43,1.54-.79,3-1.51-4.34,13.37-12.2,23.21-23.76,31.22,11-1.15,20.69-4.26,30.15-8.18l.49.58c-1.67,2.32-3.09,4.88-5,6.92-6.11,6.4-12.28,12.74-18.72,18.79-2.18,2-3.29,3.84-3.26,6.93.31,40.47-12,76.79-37.08,108.48S228,329.89,187.84,335.59A157,157,0,0,1,108.66,327,131.37,131.37,0,0,1,79.67,311.93Z" style="fill:#fff"/></svg>