<svg id="レイヤー_1" data-name="レイヤー 1" xmlns="http://www.w3.org/2000/svg" viewBox="0 0 430.43 430.43"><title>SNSs</title><rect width="430.43" height="430.43" rx="215.21" ry="215.21" style="fill:#ff1d25"/><path d="M340.29,157.2a32.57,32.57,0,0,0-22.89-22.93c-20.34-5.57-101.71-5.62-101.71-5.62s-81.36-.05-101.71,5.29a33.24,33.24,0,0,0-22.92,23.11c-5.36,20.34-5.39,62.52-5.39,62.52s0,42.4,5.32,62.53A32.55,32.55,0,0,0,113.89,305c20.55,5.58,101.7,5.63,101.7,5.63s81.36.05,101.71-5.3a32.56,32.56,0,0,0,22.92-22.89c5.37-20.34,5.39-62.52,5.39-62.52S345.85,177.54,340.29,157.2ZM189.71,258.6l0-77.94,67.63,39Z" style="fill:#fff"/></svg>