<svg width="450" height="450" viewBox="0 0 450 450" fill="none" xmlns="http://www.w3.org/2000/svg">
<circle cx="225" cy="225" r="225" fill="#F22D25"/>
<path d="M348.455 166.118C346.993 160.673 344.127 155.708 340.143 151.719C336.159 147.73 331.198 144.857 325.755 143.389C305.72 138 225.408 138 225.408 138C225.408 138 145.096 138 125.061 143.36C119.615 144.824 114.651 147.695 110.666 151.685C106.682 155.674 103.817 160.642 102.36 166.089C97 186.153 97 228 97 228C97 228 97 269.847 102.36 289.882C105.312 300.946 114.025 309.659 125.061 312.611C145.096 318 225.408 318 225.408 318C225.408 318 305.72 318 325.755 312.611C336.818 309.659 345.503 300.946 348.455 289.882C353.815 269.847 353.815 228 353.815 228C353.815 228 353.815 186.153 348.455 166.118ZM199.898 266.408V189.592L266.395 227.713L199.898 266.408Z" fill="white"/>
</svg>
