<svg width="201" height="200" viewBox="0 0 201 200" fill="none" xmlns="http://www.w3.org/2000/svg">
<path d="M99.975 48.6903C71.5808 48.6903 48.6653 71.6058 48.6653 100C48.6653 128.394 71.5808 151.31 99.975 151.31C128.369 151.31 151.285 128.394 151.285 100C151.285 71.6058 128.369 48.6903 99.975 48.6903ZM99.975 133.348C81.6126 133.348 66.6275 118.362 66.6275 100C66.6275 81.6376 81.6126 66.6525 99.975 66.6525C118.337 66.6525 133.323 81.6376 133.323 100C133.323 118.362 118.337 133.348 99.975 133.348ZM153.386 34.6308C146.757 34.6308 141.403 39.9845 141.403 46.6139C141.403 53.2434 146.757 58.597 153.386 58.597C160.016 58.597 165.369 53.2684 165.369 46.6139C165.371 45.0397 165.063 43.4806 164.461 42.0259C163.86 40.5711 162.977 39.2493 161.864 38.1362C160.751 37.0231 159.429 36.1405 157.974 35.539C156.519 34.9375 154.96 34.6289 153.386 34.6308V34.6308ZM199.993 100C199.993 86.1907 200.118 72.5064 199.342 58.7221C198.567 42.7113 194.914 28.5017 183.206 16.7938C171.473 5.06085 157.289 1.4334 141.278 0.65788C127.469 -0.117644 113.784 0.00744113 100 0.00744113C86.1907 0.00744113 72.5064 -0.117644 58.7221 0.65788C42.7113 1.4334 28.5017 5.08587 16.7938 16.7938C5.06086 28.5267 1.4334 42.7113 0.65788 58.7221C-0.117644 72.5314 0.00744113 86.2157 0.00744113 100C0.00744113 113.784 -0.117644 127.494 0.65788 141.278C1.4334 157.289 5.08587 171.498 16.7938 183.206C28.5267 194.939 42.7113 198.567 58.7221 199.342C72.5314 200.118 86.2157 199.993 100 199.993C113.809 199.993 127.494 200.118 141.278 199.342C157.289 198.567 171.498 194.914 183.206 183.206C194.939 171.473 198.567 157.289 199.342 141.278C200.143 127.494 199.993 113.809 199.993 100V100ZM177.978 158.99C176.151 163.543 173.95 166.945 170.423 170.448C166.895 173.975 163.518 176.176 158.965 178.003C145.806 183.231 114.56 182.055 99.975 182.055C85.3901 182.055 54.119 183.231 40.9601 178.028C36.407 176.201 33.0047 174 29.5024 170.473C25.975 166.945 23.7735 163.568 21.9473 159.015C16.7438 145.831 17.9195 114.585 17.9195 100C17.9195 85.4151 16.7438 54.144 21.9473 40.9851C23.7735 36.4321 25.975 33.0298 29.5024 29.5274C33.0298 26.025 36.407 23.7985 40.9601 21.9723C54.119 16.7688 85.3901 17.9446 99.975 17.9446C114.56 17.9446 145.831 16.7688 158.99 21.9723C163.543 23.7985 166.945 26 170.448 29.5274C173.975 33.0548 176.176 36.4321 178.003 40.9851C183.206 54.144 182.03 85.4151 182.03 100C182.03 114.585 183.206 145.831 177.978 158.99Z" fill="white"/>
</svg>
