<svg width="174" height="200" viewBox="0 0 174 200" fill="none" xmlns="http://www.w3.org/2000/svg">
<path d="M91.2564 0.166665C102.173 0 113.006 0.0833323 123.839 0C124.506 12.7498 129.089 25.7497 138.422 34.7496C147.756 43.9995 160.922 48.2494 173.755 49.666V83.249C161.755 82.8323 149.672 80.3323 138.756 75.1657C134.006 72.9991 129.589 70.2491 125.256 67.4158C125.173 91.7489 125.339 116.082 125.089 140.332C124.423 151.998 120.589 163.581 113.839 173.165C102.923 189.164 84.0065 199.581 64.59 199.914C52.6735 200.581 40.757 197.331 30.5905 191.331C13.7573 181.414 1.92416 163.248 0.174179 143.748C0.00751402 139.582 -0.0758182 135.415 0.0908464 131.332C1.59083 115.499 9.42406 100.332 21.5906 89.9989C35.4237 77.999 54.7568 72.2491 72.8399 75.6657C73.0066 87.9989 72.5066 100.332 72.5066 112.665C64.2567 109.999 54.5902 110.749 47.3403 115.749C42.0903 119.165 38.0904 124.415 36.0071 130.332C34.2571 134.582 34.7571 139.248 34.8404 143.748C36.8404 157.415 50.0069 168.915 64.0067 167.665C73.3399 167.581 82.2565 162.165 87.0898 154.248C88.6731 151.498 90.423 148.665 90.5064 145.415C91.3397 130.498 91.0064 115.665 91.0897 100.749C91.173 67.1658 91.0064 33.6662 91.2564 0.166665V0.166665Z" fill="white"/>
</svg>
