<svg width="247" height="200" viewBox="0 0 247 200" fill="none" xmlns="http://www.w3.org/2000/svg">
<path d="M246.183 23.7575C237.13 27.6628 227.278 30.4735 217.13 31.5682C227.666 25.3089 235.556 15.4202 239.319 3.75752C229.433 9.63885 218.602 13.7629 207.308 15.9469C202.587 10.9003 196.878 6.87999 190.535 4.13643C184.193 1.39287 177.354 -0.0151415 170.444 0.000122793C142.485 0.000122793 120 22.6628 120 50.4735C120 54.3788 120.473 58.2841 121.243 62.0415C79.3787 59.8522 42.0414 39.8522 17.2189 9.23089C12.696 16.9562 10.3258 25.7524 10.355 34.7042C10.355 52.219 19.2603 67.6628 32.8402 76.7456C24.8374 76.4305 17.022 74.2308 10.0296 70.3255V70.9468C10.0296 95.4734 27.3669 115.799 50.4733 120.473C46.1348 121.6 41.6718 122.177 37.1893 122.189C33.9053 122.189 30.7988 121.864 27.6627 121.42C34.0532 141.42 52.6627 155.947 74.8224 156.42C57.4852 170 35.7692 177.988 12.1893 177.988C7.95858 177.988 4.05325 177.84 0 177.367C22.3669 191.716 48.9053 200 77.4852 200C170.266 200 221.035 123.136 221.035 56.4202C221.035 54.2309 221.035 52.0415 220.887 49.8522C230.71 42.6628 239.319 33.7575 246.183 23.7575Z" fill="white"/>
</svg>
