<svg width="286" height="200" viewBox="0 0 286 200" fill="none" xmlns="http://www.w3.org/2000/svg">
<path d="M279.395 31.242C277.771 25.1923 274.586 19.6753 270.159 15.2432C265.733 10.8111 260.22 7.61928 254.172 5.98726C231.911 1.21487e-06 142.675 0 142.675 0C142.675 0 53.4395 -1.21487e-06 31.1783 5.95541C25.128 7.58213 19.6122 10.7721 15.1849 15.2051C10.7575 19.638 7.5745 25.1578 5.95541 31.2102C-1.21487e-06 53.5032 0 100 0 100C0 100 -1.21487e-06 146.497 5.95541 168.758C9.23567 181.051 18.9172 190.732 31.1783 194.013C53.4395 200 142.675 200 142.675 200C142.675 200 231.911 200 254.172 194.013C266.465 190.732 276.115 181.051 279.395 168.758C285.35 146.497 285.35 100 285.35 100C285.35 100 285.35 53.5032 279.395 31.242ZM114.331 142.675V57.3248L188.217 99.6815L114.331 142.675Z" fill="white"/>
</svg>
