<svg id="レイヤー_1" data-name="レイヤー 1" xmlns="http://www.w3.org/2000/svg" viewBox="0 0 813.37 96.33"><title>theme_song</title><path d="M2.62,30.89c-.25-.4-.31-.4-.31-.56s.12-.16.25-.16c.43,0,2.37.24,2.74.24,3.06.16,5.62.32,8.55.32H42.24c1.81,0,2.56-.08,3.49-2.56.32-.88,1.13-3,2.06-3s4,3.27,5.06,4.39c1.37,1.36,1.49,1.52,1.49,2,0,1.28-.31,1.28-3.12,1.28H32.69c-1.43,0-1.74.63-1.93,1.43-.31,1.44-.31,14.7-.31,17.1,0,2.71,0,3.83,1.87,3.83h7.49c1.81,0,2.55-.08,3.49-2.55.31-.8,1.12-3,2.12-3,.63,0,3.12,2.56,4.12,3.51,2.18,2.16,2.37,2.4,2.37,3,0,1.2-.31,1.2-3.12,1.2H32.32c-1.81,0-1.87,1.44-1.87,2.55,0,.64.18,19.81.18,20.13.07,1.84.5,2.4,1.88,2.4H44.17c1.06,0,1.69,0,2.56-1.6C49.17,76.5,49.42,76,50.35,76s3.81,3.44,5,4.87c.69.8,1.19,1.36,1.19,2.08,0,1.44-1.5,1.44-3.37,1.44H11.23a72.56,72.56,0,0,0-7.92.24c-.19,0-1.13.16-1.31.16s-.32-.24-.57-.56L.25,82.49C0,82.09,0,82,0,81.93s.06-.16.19-.16c.43,0,2.37.24,2.74.24,3.06.16,5.62.32,8.55.32H24c1.68,0,1.75-1.44,1.75-2.48.12-4.39.12-18.77.12-19.49,0-1.75,0-3.11-1.81-3.11H16.6a71.28,71.28,0,0,0-7.87.24c-.18,0-1.12.16-1.31.16s-.37-.16-.56-.48L5.68,55.33c-.25-.4-.31-.4-.31-.56s.12-.16.25-.16c.43,0,2.37.24,2.74.24,3.06.16,5.62.32,8.55.32h7.17c1.75,0,1.75-1.28,1.75-3,0-2,0-16.86-.12-17.82-.19-1.36-1.19-1.59-2.13-1.59h-10A77.34,77.34,0,0,0,5.68,33c-.19,0-1.13.16-1.31.16S4,33,3.81,32.73Zm30.51-4.47c0,2.07-1.18,3.19-2.43,3.19-1.62,0-2.25-1.12-4.37-5.19a25.41,25.41,0,0,0-5.12-6.87c-.25-.24-1.12-1-1.12-1.36s.37-.32.5-.32a2.93,2.93,0,0,1,.87.16C31.57,19.15,33.13,24.1,33.13,26.42Z" style="fill:#1a1a1a"/><path d="M80.06,64.52c-1.25,0-2,.4-2,2V75.3c0,1.92.13,2.56,1.31,3.2s7.86,2.39,19.72,2.39a136.66,136.66,0,0,0,17.15-1.28c.44-.07,2.63-.63,3.19-.63.12,0,.37,0,.37.32a9.8,9.8,0,0,1-1.12,1.83,12.86,12.86,0,0,0-1,4.24c-.19,1.11-9.55,1.19-11,1.19C80.56,86.56,75.81,82.09,70,74.9a9.47,9.47,0,0,0-1.43-1.6c-.32,0-.38.16-.75,1.36-2.62,8.87-6.3,12.62-6.8,12.62-.13,0-.19-.08-.19-.24a7.82,7.82,0,0,1,.81-2.23A63.48,63.48,0,0,0,66,61.4c0-.64-.32-3.75-.32-4.47,0-.4.13-.64.63-.64.12,0,2.24.64,2.62.8,2,.64,2.87,1.12,2.87,2.08,0,.71-.44,1.11-1.25,1.75-.5.4-1.31,7.83-1.31,8.71,0,1,.13,1.2,1.56,2.72.69.71,2.31,2.47,2.93,2.47s.5-.88.5-2.47c0-2.48.19-14.46.19-17.18,0-1.6,0-3.19-1.69-3.19-2.12,0-4.3,0-6.73.08-.32,0-2.44.32-2.62.32s-.38-.24-.57-.56L61.59,50c-.25-.32-.31-.4-.31-.56s.18-.16.25-.16c.37,0,2.3.24,2.74.32,1.81.08,5,.24,8.55.24h6.86c2.56,0,3.37,0,4-1.36.81-1.76,1.06-2.31,1.68-2.31s4.49,3.91,4.49,4.87-.31,1-3.3,1H79.93c-1.62,0-1.81.24-1.81,8.14,0,1,.25,2.24,1.56,2.24a3.72,3.72,0,0,0,2.37-.56c.38-.48,1.88-3.35,2.44-3.35s4.36,4,4.36,4.95c0,1.12-1.24,1.12-3.3,1.12ZM78.62,20.66a2,2,0,0,0,1.75-.72c1.31-1.35,1.43-1.51,1.87-1.51.62,0,3.43,2.63,3.43,4.07,0,.48-.12.64-.87,1.84a7.32,7.32,0,0,0-.38,2.95c0,2.08.19,12.39.19,14.78s-1.31,3.84-2.81,3.84c-1.06,0-1.18-.8-1.31-1.76s-1.12-1-1.56-1H71.88c-1.43,0-1.49.24-2.12,2a2.84,2.84,0,0,1-2.56,1.67c-1.31,0-1.31-1-1.31-2,0-1.36.19-8.15.19-9.75,0-1.76-.31-11.26-.31-11.58a35.84,35.84,0,0,1-.31-4c0-.32,0-.56.18-.56.57,0,1.56.4,3.87,1.35a4.43,4.43,0,0,0,2,.4Zm-6.8,2.08c-.56,0-1.93,0-1.93,2,0,5.19,0,5.83,1.87,5.83h7c1.87,0,1.87-.88,1.87-4.31,0-2.4,0-3.52-1.94-3.52Zm.06,9.91a1.71,1.71,0,0,0-1.68.87c-.13.32-.13,3.68-.13,5.6S71.32,41,71.88,41h6.87c1.87,0,1.87-.72,1.87-6,0-.88,0-2.39-1.87-2.39Zm29.7,36.18c0,.56-.81.8-2.18,1.36-1.12.4-5.68,3.91-6.61,4.47-1.75,1-5.18,2.64-6.49,2.64-.25,0-.5,0-.5-.16s4.3-3.84,5.11-4.55a55.52,55.52,0,0,0,6.24-7c.13-.24.56-1.28.75-1.28a6.87,6.87,0,0,1,2.18,1.91C100.58,66.83,101.58,68,101.58,68.83Zm-3.87-5.75c-.93,0-1.56.16-1.87.88-1.06,2.31-2.43,2.31-2.81,2.31-1.37,0-1.49-1.43-1.49-2.55,0-3,.25-16.3.25-19,0-2.16-.13-8-.32-13,0-.4-.18-2.24-.18-2.56,0-.48.06-1,.5-1,.75,0,3.93,1.76,4.55,1.76,1.75,0,2.19-4.63,2.19-5.83,0-1.44-.75-1.44-1.81-1.44a35.83,35.83,0,0,0-5.68.24c-.13,0-.75.16-.88.16s-.37-.24-.56-.56l-1.18-1.84c-.25-.32-.31-.4-.31-.48a.23.23,0,0,1,.24-.24c.44,0,2.38.24,2.81.32,2.25.08,5.31.24,7.49.24h7.55c2.62,0,3.12,0,3.87-1.35,1.25-2.16,1.37-2.4,2-2.4s5,3.91,5,4.95-.32,1-3.25,1H106a3.94,3.94,0,0,0-2.93,1,22,22,0,0,0-3.12,5.59c0,.72.25.72,1.31.72h7.73a2.65,2.65,0,0,0,1.63-.48c.25-.24,1.43-1.76,1.74-1.76,1.06,0,3.62,3.12,3.62,4.48,0,.48-.18.8-1.12,2-.44.56-.44,3.2-.44,4.56,0,3.59.44,19.41.44,22.68,0,2.64-1.5,3.92-2.81,3.92-.87,0-1.18-.72-1.43-1.28a1.48,1.48,0,0,0-1.63-.88ZM97.46,32c-1.93,0-1.93.8-1.93,4.87,0,2.48,0,3.59,1.93,3.59h11.48c1.56,0,1.56-1,1.56-4.47,0-3,0-4-1.68-4ZM108.7,50.62a1.64,1.64,0,0,0,1.8-1.76c0-5.83,0-6.31-1.68-6.31H97.46a1.7,1.7,0,0,0-1.87,1.76c0,6.15,0,6.31,1.87,6.31Zm0,10.38c1.74,0,1.74-.56,1.74-5.83,0-1.2-.19-2.47-1.74-2.47H97.59c-1.75,0-1.75.63-1.75,5.83,0,1.91.56,2.47,1.87,2.47Zm8.17,13.74c0,1.52-.94,2.72-2,2.72s-1.37-.4-3.74-4a57.78,57.78,0,0,0-4.56-5.67,8.81,8.81,0,0,1-1.87-2.15c0-.32.38-.32.5-.32A21,21,0,0,1,111.94,68C113.87,69.15,116.87,71.39,116.87,74.74Z" style="fill:#1a1a1a"/><path d="M148.92,54.29a1.88,1.88,0,0,0-2.12,1.6c-.06.4-.06,12.06-.06,13.26,0,13.5-.07,14.14-1,15.74-1.12,2.07-4.24,3.27-4.56,3.27s-.37-.24-.5-1a6.73,6.73,0,0,0-2.49-4.39c-.25-.16-1.31-.64-1.31-.88s.25-.32.44-.32c.56,0,3.24.56,3.8.56,1.81,0,1.87-3,1.94-7,.06-3.11.06-12,.06-18,0-1.44,0-2.88-1.87-2.88h-7.37c-1.74,0-4.86,0-7.36.16-.19,0-1.68.24-1.81.24s-.31-.16-.56-.56L123,52.3a1.31,1.31,0,0,1-.24-.48.23.23,0,0,1,.18-.24c.38,0,2.31.32,2.75.32,1.81.08,5,.24,8.55.24h8.61c2.74,0,3.3,0,4-1.28,1-1.84,1.31-2.56,2.06-2.56.5,0,.68,0,3.18,2.88.31.32,1.5,1.6,1.5,2,0,1.12-1.25,1.12-3.37,1.12ZM134.57,23.7c-1.37,0-5.68,0-7.86.24-.19,0-1.12.16-1.31.16s-.31-.16-.56-.48l-1.19-1.84a.89.89,0,0,1-.25-.56c0-.16.06-.16.19-.16.44,0,2.37.24,2.74.24,2.87.16,5.68.32,8.55.32h8.92c2.81,0,3.12,0,4-1.36,1-1.51,1.31-1.91,1.87-1.91S154,21.86,154,22.58c0,1.12-1.25,1.12-3.37,1.12h-1.62c-1.75,0-1.75.4-1.75,7.59V43.43c0,3.91-2.93,5.91-4.18,5.91-.88,0-1.13-1-1.5-2.48-.06-.24-1-1.91-1.68-2.07-.25-.08-.57-.16-.57-.4s.32-.32.5-.32c3.44,0,3.81,0,3.81-2.8V26.33c0-1.27-.06-2.63-1.81-2.63Zm-1.68,37.46c.81,0,1.31,0,1.74-1.2.13-.31.44-1,.81-1,.19,0,3.56,2.47,3.56,4.07,0,.32-.06.48-.81,1.36-.38.48-.44,1.12-.44,3,0,1,.19,5.6.19,6.63a2.92,2.92,0,0,1-2.81,2.88c-1.06,0-1.06-.64-1.12-2s-.94-1.44-2.37-1.44-1.62.88-1.62,1.84c-.07,1.52-.13,3.92-2.63,3.92-1.06,0-1.06-.64-1.06-1.12,0-1.76.25-10.47.25-12.46a47.9,47.9,0,0,0-.18-4.88,9.47,9.47,0,0,1-.19-1c0-.24.06-.48.25-.48a6.25,6.25,0,0,1,2.93,1.19,3.64,3.64,0,0,0,2.12.8Zm.49-32.27a1.83,1.83,0,0,0,1.56-.72c.94-1.12,1-1.28,1.31-1.28s3.56,1.68,3.56,3c0,.48-.19.72-1,1.52-.43.4-.43.64-.43,2.79,0,1.12.18,6.31.18,6.87a2.91,2.91,0,0,1-2.62,2.56c-1.18,0-1.18-.72-1.18-1.44,0-1.36-1.06-1.36-1.5-1.36H132c-.93,0-1.37.48-1.5,1.68-.31,2.56-2,2.56-2.3,2.56-1.31,0-1.31-.8-1.31-1.92,0-1.52.12-8.71.12-10.3,0-.8,0-3.76-.12-4.32a3.82,3.82,0,0,1-.13-.88c0-.48.19-.56.62-.56a4.39,4.39,0,0,1,2.38,1c1.24.88,1.62.8,2.12.8Zm-.68,42.42c1.75,0,1.75-.48,1.75-5,0-2.31,0-3-1.75-3h-1.06c-1.75,0-1.75.72-1.75,3.19,0,4.4,0,4.88,1.75,4.88ZM132,31.05c-1.56,0-1.56.72-1.56,4.63,0,2,0,3.12,1.56,3.12h1.62c1.56,0,1.56-.72,1.56-4.16,0-2.63,0-3.59-1.62-3.59Zm34.88,6.87c-1.94,0-1.94,1.68-1.94,3.51a90.58,90.58,0,0,0,.94,10.39c2.68,18.61,8.23,24.92,12.48,29.23a7.73,7.73,0,0,1,1.5,1.76c0,.16-.19.16-.32.16-.43,0-2.62-.16-3.12-.16-1.49,0-2.68.16-3.12.64s-.87,1.28-1.12,1.28c-.56,0-3.49-7.91-3.93-9.19-2.81-8.07-3.43-18.29-3.87-26.2-.12-1.68-.12-1.92-.37-1.92s-.31.56-.38,1.28C162,60.92,160.9,69.79,154,79.77c-1.68,2.4-5.61,7.11-6.61,7.11-.06,0-.25,0-.25-.16a30.77,30.77,0,0,1,1.81-3c5.68-9,11.17-22.53,11.17-41.86,0-2.79-.13-4-1.94-4a7.33,7.33,0,0,0-1.93.08c-1.18.4-4.18,7.91-5.49,7.91-.13,0-.19-.08-.19-.24,0-.48,2.5-7,2.94-8.39,1.49-5,3.86-14.3,3.86-19.49,0-.72,0-1,.38-1s.93.24,4.12,1.68c2.43,1.12,2.55,1.12,2.55,1.75,0,.48-.56.8-.81,1a4.94,4.94,0,0,0-2.18,2.08c-1.06,1.68-4.12,11.5-4.12,11.66,0,.72.56.72,1.06.72h12a1.76,1.76,0,0,0,1.5-.56c.19-.24.94-1.68,1.19-1.68s4.43,3.84,5.05,4.4a2,2,0,0,1,.81,1.6c0,1.43-.5,1.43-3.18,1.43a3.63,3.63,0,0,0-2.75,1.2c-.56.48-3.12,3.68-3.43,3.68s-.25-.24-.25-.4a24.26,24.26,0,0,1,.81-2.4c.82-2.72.88-3,.88-3.67,0-1.44-.81-1.44-1.38-1.44Z" style="fill:#1a1a1a"/><path d="M359,35.33c2.52,0,2.52-1.87,2.52-3.43,0-4.57,0-5.82-2.52-5.82H344c-1.79,0-7.39,0-10.23.21-.24,0-1.46.31-1.7.31s-.49-.31-.73-.73l-1.55-2.39c-.32-.41-.4-.52-.4-.62a.3.3,0,0,1,.32-.31c.57,0,3.09.31,3.57.41,3.74.21,7.39.32,11.12.32h14.45c2.52,0,2.52-1.56,2.52-4.37,0-5.4,0-6-1.46-6-.9,0-4.71.51-5.44.62-6.17.52-13.72.93-16.07.93-4,0-4.47,0-4.47-1.14,0-.52.17-.52,1.63-.73,20.69-2.18,37.33-7.89,40.82-9.56.81-.41,4.3-3,5.11-3,.49,0,8.2,6.34,8.2,8,0,1-.4,1-3.81,1.35-1,.11-14.53,2.18-17.21,2.5-2.11.2-2.11.83-2.11,6,0,3.95,0,5.41,2.68,5.41h14.37c3.4,0,3.65,0,5.51-3.12.65-1.14,2.11-3.64,2.93-3.64s7.62,6.76,7.62,8.11-1.62,1.45-4.38,1.45h-26c-2.6,0-2.76,1.25-2.76,4.05,0,4.27,0,5.2,2.68,5.2H380c1.79,0,2.19-.21,3.41-1.87,1.54-2.08,1.71-2.29,2.19-2.29.65,0,5.44,3.74,5.44,5.41,0,.72-.16.83-1.54,1.87-.81.62-1,2.08-1,3.84v8.52c0,2.08.57,11.12.57,12.89a4.22,4.22,0,0,1-4.22,4.47c-1.62,0-1.86-.63-2.27-1.87-.32-.84-.81-.84-1.87-.84H369.28c-2.68,0-2.68,1.36-2.68,5,0,4.89,0,5.82,2.76,5.82h9.9c2.92,0,4.47,0,5.36-1.56,2.11-3.63,2.35-4,3.08-4,1.3,0,7.23,5.92,7.23,6.86,0,1.45-1.06,1.45-4,1.45H369.36c-2.6,0-2.68,1.56-2.68,4.37,0,5.19,0,5.92,2.76,5.92h15.91c3.33,0,4.38,0,5.6-1.77,2.6-4,2.92-4.46,3.65-4.46,1.22,0,6.49,5.92,6.49,7.58,0,1.35-.4,1.46-4,1.46H342.5c-1.87,0-7.47,0-10.31.2-.24,0-1.46.32-1.71.32s-.4-.32-.73-.73l-1.54-2.39c-.32-.42-.32-.52-.32-.62s.08-.32.24-.32c.57,0,3.08.32,3.65.42,3.66.21,7.31.31,11.12.31h15.91c2.52,0,2.52-1.35,2.52-5.82,0-3.53-.17-4.47-2.6-4.47h-9c-1.79,0-7.39,0-10.23.32-.24,0-1.46.2-1.7.2s-.49-.2-.73-.62l-1.54-2.39c-.33-.52-.41-.52-.41-.73s.16-.21.33-.21c.56,0,3.08.32,3.57.32,3.73.2,7.38.41,11.12.41h8.76c2.52,0,2.52-1.35,2.52-5.3s0-5.51-2.52-5.51H347.37c-1.22,0-1.22.11-1.87,1.77-.57,1.25-1.3,2.91-3.08,2.91-2.93,0-2.93-2.7-2.93-4,0-.31.08-4,.17-4.47.08-.93.08-15.07.08-15.79a86,86,0,0,0-.49-8.84c-.08-.62-.49-3.11-.49-3.63,0-.73.33-1.15,1.06-1.15a39.54,39.54,0,0,1,4.95,2.29,6.48,6.48,0,0,0,3.41.83Zm0,13.4c2.52,0,2.52-1.24,2.52-4.77,0-4.78,0-5.93-2.52-5.93H347.85c-2.43,0-2.43,1.35-2.43,4.89,0,4.78,0,5.81,2.43,5.81Zm-.08,14c2.52,0,2.52-1.56,2.52-5,0-5.1,0-6.24-2.52-6.24H348c-2.52,0-2.52,1.46-2.52,4.88,0,5.2,0,6.34,2.52,6.34ZM369.36,38c-2.76,0-2.76,1.25-2.76,5,0,4.78,0,5.71,2.76,5.71h10.71c2.76,0,2.76-1.14,2.76-4.88,0-4.78,0-5.82-2.76-5.82Zm-.08,13.51c-2.68,0-2.68.94-2.68,5.92,0,4.26,0,5.3,2.68,5.3h10.87c2.68,0,2.68-1,2.68-5.92,0-4.26,0-5.3-2.68-5.3Z" style="fill:#1a1a1a"/><path d="M444.07,29.1c-2.51,0-2.51.72-2.84,5.71-1.78,26.39-6,41.15-16.56,51.54-7.06,7-14.36,10-14.85,10a.56.56,0,0,1-.57-.63c0-.41.17-.52,1.87-1.76,3.73-2.7,16.8-13.2,21.35-36.68A172.23,172.23,0,0,0,435.14,32c0-1.25-.08-2.91-2.27-2.91h-9.58c-7.06,0-9.41.2-10.22.2a9.35,9.35,0,0,1-1.71.32c-.32,0-.4-.32-.73-.73l-1.54-2.39c-.32-.42-.32-.52-.32-.63s.08-.31.24-.31c.57,0,3.08.31,3.57.42,4,.21,7.31.31,11.12.31H433c2.36,0,2.6-1,2.6-7.59,0-3.94-.41-11.84-.49-13,0-.52-.24-2.91-.24-3.43,0-.94.16-1,.81-1,.81,0,9.9,1.24,9.9,3.74,0,.93-.16,1-1.86,2-1,.63-1.22,1.56-1.3,3.22s-.65,9.77-.65,11.43c0,3.33.08,4.68,2.51,4.68H462c1.46,0,2.19-.21,2.92-1.56,1-1.87,1.22-2.18,1.7-2.18,1,0,6.17,3.84,6.17,5.61,0,.94-.32,1.25-1.46,2.49a4.66,4.66,0,0,0-1,3.12c-.73,23.9-1.22,45.31-4.95,53.83-2.84,6.34-8.28,8.1-9.66,8.1s-1.46-.83-1.46-2.39c0-3.22-.57-3.63-6.17-7.79-1.87-1.35-2-1.56-2-2a.5.5,0,0,1,.49-.52c.24,0,2.51.72,3,.83a39.4,39.4,0,0,0,5.93.83c4.46,0,5.84-3.12,6.89-12.37.82-6.65,1.79-23.59,1.79-39.28,0-2.49,0-3.94-2.6-3.94Z" style="fill:#1a1a1a"/><path d="M514,18.6c0,.31.16.73.16,1.14A102.68,102.68,0,0,1,515,31c0,7-1.22,16.62-8.36,30.44C500.11,74.09,496,76.58,492.72,76.58c-5.36,0-10.14-10.7-10.14-23.38a42.52,42.52,0,0,1,9-26.49c10.31-13.51,21.19-13.51,25.9-13.51,7.38,0,10.79,1.87,13.06,3.32,8.77,5.51,14.12,16.63,14.12,30.24s-6.08,30.14-20.45,36.58c-6.9,3.12-12.25,3.84-13.47,3.84-.33,0-.81-.1-.81-.72,0-.32.16-.42,2.19-1.46,8.44-4.26,26-13.2,26-39.07,0-4-.32-28.78-22.48-28.78C514.07,17.15,514,18,514,18.6ZM487.61,50.5c0,6.76,2.11,16,7.06,16,2.35,0,4.3-1.24,9.9-12,4.3-8.42,7.95-20,7.95-30.24,0-6.23-.32-6.75-1.37-6.75C503.43,17.46,487.61,30.86,487.61,50.5Z" style="fill:#1a1a1a"/><path d="M575.17,54c-2.43,0-2.43,1.67-2.43,4.37V76.17c0,2.08.24,3.32,1.87,3.32.24,0,3.81-.93,4.38-1.14,1.7-.42,2.6-.62,2.6-2.39s-3.41-9.25-3.41-9.87c0-.42.08-.52.32-.52a9.5,9.5,0,0,1,2.84,1.77c7.06,4.36,9.26,9,9.26,13.09,0,3.64-1.63,5.09-3.25,5.09-1.3,0-2.27-.73-3.41-3.74-.81-2.08-.89-2.29-1.79-2.29-.4,0-20.69,11.12-22.07,12.16-.41.31-2.35,2.5-2.84,2.5-1.63,0-5.12-7.59-5.12-9.05,0-.72.74-.93,1.06-.93.16,0,1.54.21,1.79.21,1.78,0,10.95-1.87,11.84-3.33.49-.73.49-3,.49-23.9,0-3.12-1.54-3.12-2.51-3.12-3.17,0-3.17.21-3.17,4.78,0,1,0,5.62-4.14,5.62-1.05,0-2.19-.11-2.19-3.64,0-.21.16-3.74.16-3.95.08-3,.16-4.36.16-10.49,0-12.06-.08-12.79-.56-20.16,0-.63-.41-3.64-.41-4.26s.24-.94.89-.94c1.06,0,1.38.31,4.71,3,1.46,1.25,1.62,1.25,3.09,1.25h1.46c2.27,0,2.43-1.56,2.43-4.05,0-2.7-.08-9.77-.24-12.47-.08-.73-.73-4.05-.73-4.78,0-1,.56-1.35,1.3-1.35.4,0,7.22,1,7.22,4,0,.62-1.54,2.7-1.71,3.22-.32,1.25-.32,5.71-.32,12,0,1.56,0,3.53,2.19,3.53h2a2.39,2.39,0,0,0,2.52-1.14c1.05-1.35,1.46-2,2.27-2s5.27,3.12,5.27,5.61c0,.73-.16.94-1.46,2.39-.57.73-.57,3.33-.57,6,0,10.5,0,11.64.25,15.07.08.93.24,3.64.24,4.36,0,4.68-3.81,5.1-4.22,5.1-1.78,0-1.87-2.08-1.87-3.75,0-1.87-.32-2.91-2.76-2.91Zm-9.73-2.8c1.86,0,1.86-2.5,1.86-3.43V32c0-1.67,0-4.06-1.86-4.06h-2.36c-1.87,0-1.87,2.6-1.87,3.43V47.7c0,1.14,0,3.53,1.87,3.53Zm11.93,0c1.54,0,2.35-.94,2.35-3.43V32c0-1.56,0-4.06-2.35-4.06h-2.28c-1.54,0-2.35,1-2.35,3.43v15.8c0,1.66-.08,4,2.35,4Zm33.68,36.06c3.65,0,4.06,0,5.19-1.77,2.28-3.43,2.52-3.84,3.25-3.84.57,0,7.63,5.5,7.63,6.85S625.49,90,622.74,90H592.22A92.66,92.66,0,0,0,582,90.3c-.32,0-1.54.21-1.78.21s-.41-.21-.65-.63l-1.63-2.39c-.32-.51-.32-.51-.32-.72s.08-.21.24-.21c.57,0,3.09.31,3.66.31,4,.21,7.3.42,11.11.42h6.17c.9,0,2.36,0,2.36-3.43V16.11c0-1.56,0-3.22-2.28-3.22h-2c-7.22,0-9.57.2-10.06.2a10.06,10.06,0,0,1-1.78.31c-.25,0-.41-.31-.65-.72l-1.63-2.39c-.32-.42-.32-.52-.32-.63s.08-.31.32-.31c.49,0,3,.31,3.57.42,4,.21,7.31.31,11.12.31h11.85c3.66,0,4.06,0,5.2-1.77,2.27-3.43,2.51-3.84,3.32-3.84.49,0,7.55,5.61,7.55,6.86,0,1.56-1.62,1.56-4.38,1.56H609.34c-.81,0-2.35,0-2.35,3V84c0,1.14.08,3.33,2.35,3.33Z" style="fill:#1a1a1a"/><path d="M740.34,87.81c-.49,0-2,0-2-1.56,0-1.77,1.3-1.77,2.36-1.77s3.08-.52,3.81-3.84c.49-2.19.49-39.08.49-44.69,0-3,0-16.21-.49-18.18A2.26,2.26,0,0,0,742.29,16c-.33,0-2.19.31-2.68.31a.75.75,0,0,1-.73-.83c0-.93,2.68-2,4-2.49.57-.21,7.38-2.91,7.46-2.91.49,0,.49.31.49,2.39,0,8.21-.16,48.22-.16,57.26,0,11,0,14.44,4.22,14.75,1.79.1,2.6.1,2.6,1.77s-1.06,1.56-2,1.56Z" style="fill:#1a1a1a"/><path d="M761.67,87.81c-.73,0-1.87,0-1.87-1.67s1-1.66,2.52-1.76c1,0,2.52-.63,3.25-2.91.65-1.77.65-16.94.65-20.68,0-2.91-.09-15-.49-16.42a2.31,2.31,0,0,0-2.27-1.77c-.41,0-2.44.32-2.52.32-.32,0-.73-.21-.73-.94s.41-.93,4.06-2.39c1.05-.41,6.08-2.8,6.73-2.8.82,0,.82.93.82,2,0,4.68-.09,28.06-.09,33.36,0,7.58,0,11.95,3.74,12.26,1.62.1,2.59.2,2.59,1.76s-1.37,1.67-1.94,1.67Zm2.6-71.7c0-3.33,2.11-6,4.7-5.93s4.71,2.6,4.71,5.93-2.11,6-4.71,6S764.27,19.43,764.27,16.11Z" style="fill:#1a1a1a"/><path d="M788.86,60.48c-1,0-2.6,0-2.6,3.32,0,12.78,6.74,21.51,13.47,21.51,3.74,0,7.31-2.8,9.83-5.82.4-.52,2.35-4,3-4,.49,0,.81.52.81,1.35,0,2.29-5.6,13-16.31,13-11.37,0-17.7-11.53-17.7-26.7,0-17.15,8.28-26.29,17.13-26.29,12.58,0,16.15,17,16.15,21.3,0,1.87-.89,2.39-2.52,2.39Zm14.93-3.33c1.71,0,2.68-.52,2.68-3,0-4-2.92-14.55-9.74-14.55-7.55,0-9.9,13-9.9,15.28s1.38,2.28,2.11,2.28ZM803.31,14a.9.9,0,0,1,.89.83,1.76,1.76,0,0,1-.49,1c-.81,1-14.53,14.75-15.18,14.75-.32,0-.4-.41-.4-.62s4.46-9.77,5-10.7c2.27-4.78,2.52-5.3,5.36-5.3Z" style="fill:#1a1a1a"/><line x1="701.47" y1="22.51" x2="669.23" y2="81.88" style="fill:none;stroke:#000;stroke-miterlimit:10;stroke-width:3px"/></svg>